<?xml version="1.0" standalone="no"?>
<!DOCTYPE svg PUBLIC "-//W3C//DTD SVG 1.1//EN" "http://www.w3.org/Graphics/SVG/1.1/DTD/svg11.dtd" >
<svg>
<metadata>
Created by FontForge 20090622 at Fri Nov  9 16:54:54 2018
 By ffonts
Original Fonts are &#194;&#169; Bitstream. OpenDyslexic changes and additional glyphs by Abelardo Gonzalez are licensed under a Creative Commons Attribution 3.0 Unported License.
Based on a work at http://dyslexicfonts.com. &#226;&#153;&#161;2012 by Abelardo Gonzalez. Copying is an act of love. Please copy.
Bitstream license available here: http://opendyslexic.org/legal/
</metadata>
<defs>
<font id="OpenDyslexic-Regular" horiz-adv-x="293" >
  <font-face 
    font-family="OpenDyslexic"
    font-weight="400"
    font-stretch="normal"
    units-per-em="1000"
    panose-1="0 0 5 0 0 0 0 0 0 0"
    ascent="800"
    descent="-200"
    x-height="547"
    cap-height="729"
    bbox="-44 -522 1305 1182"
    underline-thickness="50"
    underline-position="-163"
    stemh="67"
    stemv="104"
    unicode-range="U+0020-U+FB02"
  />
<missing-glyph horiz-adv-x="646" 
d="M573 705h-500v-882h500v882zM518 649v-682h-389v682h389z" />
    <glyph glyph-name="fi" unicode="fi" horiz-adv-x="679" 
d="M254 547v48c0 55 22 95 86 95l86 19v75l-90 -10c-117 -19 -177 -70 -177 -189v-38h-86v-65h86l-10 -482h120l-15 482h247l-10 -482h115l-15 547h-337zM591 645v114h-90v-114h90z" />
    <glyph glyph-name="fl" unicode="fl" horiz-adv-x="714" 
d="M586 760h-250c-123 0 -177 -53 -177 -175l-5 -38h-81v-70h81l-14 -477h144l-30 477h143v70h-143l-4 58c0 68 21 90 85 90h161v-695h145l-1 103l-54 -1v658z" />
    <glyph glyph-name=".notdef" horiz-adv-x="646" 
d="M573 705h-500v-882h500v882zM518 649v-682h-389v682h389z" />
    <glyph glyph-name="NULL" horiz-adv-x="0" 
 />
    <glyph glyph-name="NULL" horiz-adv-x="0" 
 />
    <glyph glyph-name="space" unicode=" " horiz-adv-x="391" 
 />
    <glyph glyph-name="exclam" unicode="!" horiz-adv-x="279" 
d="M73 235h133l-15 174l-4 320h-95l-9 -320zM201 0l-10 124h-104l-9 -124h123z" />
    <glyph glyph-name="quotedbl" unicode="&#x22;" horiz-adv-x="440" 
d="M73 442h98l-5 287h-87zM269 442h98l-6 287h-88z" />
    <glyph glyph-name="numbersign" unicode="#" horiz-adv-x="831" 
d="M305 515h-176v-75h157l-41 -163h-172v-75h154l-51 -202h79l50 202h143l-50 -202h78l51 202h174v75h-155l40 163h171v75h-152l50 203h-78l-51 -203h-143l51 203h-79zM324 277l41 163h142l-40 -163h-143z" />
    <glyph glyph-name="dollar" unicode="$" horiz-adv-x="619" 
d="M349 -144l-7 148c120 8 202 72 204 182c-4 102 -65 150 -213 175l4 228c60 -4 117 -19 170 -48l2 76c-53 19 -110 29 -171 33l2 113l-48 1l-2 -115c-133 -6 -207 -68 -209 -174c4 -98 61 -153 198 -179l-4 -192c-66 1 -134 23 -200 66l-2 -117c69 -31 138 -46 200 -48
l-12 -147zM281 586l-5 -220c-82 14 -126 53 -126 109c0 57 49 103 131 111zM334 100l-4 182c80 -15 120 -48 120 -105c0 -59 -46 -66 -116 -77z" />
    <glyph glyph-name="percent" unicode="%" horiz-adv-x="986" 
d="M241 742c-103 0 -168 -77 -168 -198c0 -123 65 -199 168 -199c104 0 169 76 169 199c0 122 -66 198 -169 198zM305 -14l460 756h-78l-461 -756h79zM241 680c56 0 91 -51 91 -133c0 -84 -34 -134 -91 -134c-56 0 -90 50 -90 134c0 82 34 133 90 133zM745 383
c-103 0 -169 -76 -169 -199c0 -121 65 -198 169 -198c102 0 168 77 168 198c0 122 -65 199 -168 199zM745 321c55 0 90 -49 90 -127c0 -79 -35 -127 -90 -127c-57 0 -91 48 -91 127s34 127 91 127z" />
    <glyph glyph-name="ampersand" unicode="&#x26;" horiz-adv-x="833" 
d="M556 203l-268 263c-30 31 -49 55 -59 72c-9 16 -14 33 -14 49c0 58 47 98 115 98c45 0 96 -17 153 -47l34 69c-55 23 -108 35 -163 35c-119 0 -198 -70 -198 -175c0 -39 17 -80 48 -121c-87 -65 -131 -137 -131 -221c0 -140 111 -239 267 -239c86 0 159 28 226 86l70 -72
h123l-136 139c61 82 65 166 73 252h-91c-4 -74 -11 -130 -49 -188zM230 412l261 -268c-48 -41 -102 -62 -165 -62c-105 0 -183 71 -183 167c0 58 27 109 87 163z" />
    <glyph glyph-name="quotesingle" unicode="'" horiz-adv-x="229" 
d="M73 458h83v271h-83v-271z" />
    <glyph glyph-name="parenleft" unicode="(" horiz-adv-x="354" 
d="M335 755l-78 7c-111 -144 -172 -285 -184 -430c0 -146 28 -296 92 -457l103 -7c-74 156 -89 305 -95 456c6 150 62 290 162 431z" />
    <glyph glyph-name="parenright" unicode=")" horiz-adv-x="354" 
d="M173 768l-77 7c72 -157 90 -304 90 -454c-14 -151 -69 -292 -168 -433l112 -7c78 144 150 286 150 432c0 144 -23 293 -107 455z" />
    <glyph glyph-name="asterisk" unicode="*" horiz-adv-x="621" 
d="M336 558v184l-75 -19l19 -165l-164 99l-43 -68l190 -75l-175 -95l48 -67l144 118v-184l75 15l-19 169l164 -99l48 67l-195 76l175 95l-8 68z" />
    <glyph glyph-name="plus" unicode="+" horiz-adv-x="772" 
d="M345 355h-272v-83h272v-272h82v272h272v83h-272v272h-82v-272z" />
    <glyph glyph-name="comma" unicode="," horiz-adv-x="319" 
d="M73 -141h63l110 157v103h-123v-103z" />
    <glyph glyph-name="hyphen" unicode="-" horiz-adv-x="413" 
d="M336 238l4 81l-263 -5l-4 -80z" />
    <glyph glyph-name="period" unicode="." horiz-adv-x="292" 
d="M219 0v158h-146v-158h146z" />
    <glyph glyph-name="slash" unicode="/" horiz-adv-x="502" 
d="M186 -97l243 814l-74 3l-282 -813z" />
    <glyph glyph-name="zero" unicode="0" horiz-adv-x="650" 
d="M330 742c-163 0 -250 -132 -257 -378c0 -246 84 -378 247 -378c164 0 251 132 257 378c0 246 -83 378 -247 378zM330 703c102 0 153 -89 153 -268c-13 -179 -61 -268 -163 -268c-101 0 -143 83 -143 268c0 179 52 268 153 268zM327 324c-42 0 -52 49 -52 86
c0 57 6 113 52 113c41 0 51 -43 51 -113c0 -37 -10 -86 -51 -86z" />
    <glyph glyph-name="one" unicode="1" horiz-adv-x="581" 
d="M507 0v137h-161v592h-98l-175 -35v-90l176 35v-502h-162v-137h420z" />
    <glyph glyph-name="two" unicode="2" horiz-adv-x="609" 
d="M536 142h-242c12 42 39 85 82 130c44 45 70 73 78 82c59 73 78 120 78 180c0 127 -97 208 -248 208c-57 0 -126 -16 -206 -48v-100c78 44 146 65 208 65c88 0 147 -54 147 -131c0 -24 -6 -48 -18 -72c-26 -50 -63 -97 -178 -185l-164 -129v-142h463v142z" />
    <glyph glyph-name="three" unicode="3" horiz-adv-x="626" 
d="M403 393c85 22 133 80 133 160c0 116 -93 189 -243 189c-58 0 -123 -10 -198 -31v-78c74 25 135 36 189 36c99 0 154 -42 154 -116c0 -73 -53 -113 -150 -113h-89v-81h85c108 0 171 -56 171 -123c0 -17 -16 -39 -48 -67c-33 -28 -80 -42 -142 -42c-71 0 -137 17 -192 49
v-154c69 -24 134 -36 195 -36c182 0 285 79 285 236c0 93 -56 164 -150 171z" />
    <glyph glyph-name="four" unicode="4" horiz-adv-x="678" 
d="M73 206h320l-10 -206h132l-10 206h99v82h-99l-5 441h-124l-303 -462v-61zM153 288l249 389l-5 -389h-244z" />
    <glyph glyph-name="five" unicode="5" horiz-adv-x="618" 
d="M104 729v-366c55 25 106 36 159 36c113 0 178 -49 178 -150c0 -50 -65 -126 -178 -126c-70 0 -131 15 -190 47v-153c68 -21 131 -31 192 -31c178 0 280 91 280 248c0 152 -102 248 -265 248c-29 0 -54 -5 -95 -15v189h306v73h-387z" />
    <glyph glyph-name="six" unicode="6" horiz-adv-x="650" 
d="M529 623v90c-54 19 -104 29 -154 29c-184 0 -302 -148 -302 -378c0 -246 92 -378 260 -378c147 0 244 98 244 248c0 153 -91 248 -238 248c-69 0 -129 -31 -168 -88c10 178 78 265 208 265c50 0 101 -13 150 -36zM333 404c89 0 145 -65 145 -170
c0 -66 -56 -107 -145 -107c-88 0 -144 41 -144 107c0 105 56 170 144 170z" />
    <glyph glyph-name="seven" unicode="7" horiz-adv-x="610" 
d="M448 656l-269 -656h176l182 687v42h-464v-73h375z" />
    <glyph glyph-name="eight" unicode="8" horiz-adv-x="666" 
d="M234 388c-95 -22 -161 -90 -161 -183c0 -141 99 -219 260 -219s260 78 260 219c0 93 -66 161 -161 183c84 21 124 82 124 165c0 104 -78 179 -223 179s-223 -75 -223 -179c0 -83 40 -144 124 -165zM198 573c0 63 50 111 135 111c84 0 135 -48 135 -111
c0 -75 -51 -120 -135 -120c-85 0 -135 45 -135 120zM333 356c94 0 151 -53 151 -141c0 -48 -57 -107 -151 -107s-151 58 -151 107c0 88 57 141 151 141z" />
    <glyph glyph-name="nine" unicode="9" horiz-adv-x="649" 
d="M120 164v-149c55 -19 105 -29 154 -29c184 0 302 148 302 378c0 246 -91 378 -260 378c-147 0 -243 -98 -243 -248c0 -153 91 -247 237 -247c70 0 130 31 168 87c-10 -178 -78 -207 -208 -207c-49 0 -101 13 -150 37zM308 394c-108 0 -176 10 -176 116
c0 105 68 170 176 170s175 -65 175 -170c0 -106 -67 -116 -175 -116z" />
    <glyph glyph-name="colon" unicode=":" horiz-adv-x="274" 
d="M201 398v140h-128v-140h128zM201 0v149h-128v-149h128z" />
    <glyph glyph-name="semicolon" unicode=";" horiz-adv-x="307" 
d="M234 392v143h-119v-143h119zM73 -160h70l89 173v93h-114v-93z" />
    <glyph glyph-name="less" unicode="&#x3c;" horiz-adv-x="799" 
d="M83 399l-10 -110l604 -281l11 118l-487 221l517 135l8 88z" />
    <glyph glyph-name="equal" unicode="=" horiz-adv-x="772" 
d="M699 372v82h-626v-82h626zM699 172v98h-626v-98h626z" />
    <glyph glyph-name="greater" unicode="&#x3e;" horiz-adv-x="799" 
d="M83 185l-10 -118l644 171l9 111l-603 280l-8 -88l485 -223z" />
    <glyph glyph-name="question" unicode="?" horiz-adv-x="531" 
d="M293 196v60c0 17 1 30 2 40c2 19 5 33 18 50c6 8 14 21 22 36l39 42c52 56 84 97 84 146c0 103 -75 172 -194 172c-67 0 -130 -18 -191 -55v-77c63 43 122 67 174 67c70 0 116 -54 116 -112c-6 -32 -27 -50 -77 -91l-49 -43c-58 -56 -71 -94 -71 -160v-75h127zM292 -5
v139h-129v-139h129z" />
    <glyph glyph-name="at" unicode="@" horiz-adv-x="1011" 
d="M646 116v-75c182 4 292 108 292 280c0 80 -27 156 -76 220c-80 104 -202 163 -341 163c-123 0 -236 -45 -320 -128c-82 -81 -128 -192 -128 -311c0 -123 45 -232 128 -314c84 -81 193 -125 313 -125c99 0 198 35 279 98l-43 88c-68 -53 -152 -77 -236 -77
c-102 0 -184 22 -253 89c-84 89 -119 138 -119 241c0 126 61 239 163 306c63 41 137 63 217 63c115 0 215 -47 283 -132c42 -52 62 -113 62 -183c0 -115 -56 -192 -152 -206v359h-69v-64c-39 50 -89 74 -156 74c-111 0 -189 -89 -189 -220c0 -130 77 -219 189 -219
c67 0 116 23 156 73zM365 302c0 82 50 134 129 134s130 -52 130 -134s-49 -134 -129 -134c-81 0 -130 51 -130 134z" />
    <glyph glyph-name="A" unicode="A" horiz-adv-x="814" 
d="M207 0l37 119h328l28 -119h141l-287 729h-93l-288 -729h134zM273 235l134 404l135 -404h-269z" />
    <glyph glyph-name="B" unicode="B" horiz-adv-x="673" 
d="M73 0h262c164 0 265 74 265 204c0 99 -58 168 -187 189c80 13 123 66 123 156c0 115 -85 180 -235 180h-228v-729zM172 663h146c96 0 143 -51 143 -125s-47 -110 -143 -110h-146v235zM172 348h158c53 0 92 -11 118 -32c26 -22 38 -41 38 -57c0 -91 -50 -114 -156 -114
h-158v203z" />
    <glyph glyph-name="C" unicode="C" horiz-adv-x="734" 
d="M661 569v104c-68 46 -144 69 -232 69c-221 0 -356 -144 -356 -378s135 -378 356 -378c86 0 163 23 232 70v172c-66 -62 -141 -93 -226 -93c-166 0 -255 58 -258 229c0 193 92 297 258 297c85 0 160 -30 226 -92z" />
    <glyph glyph-name="D" unicode="D" horiz-adv-x="759" 
d="M73 0h203c281 0 410 114 410 365c0 250 -127 364 -410 364h-203v-729zM177 648h119c201 0 289 -91 289 -273c-15 -149 -88 -191 -289 -191h-119v464z" />
    <glyph glyph-name="E" unicode="E" horiz-adv-x="616" 
d="M543 0v151h-371v196h347v83h-347v216h362v83h-461v-729h470z" />
    <glyph glyph-name="F" unicode="F" horiz-adv-x="565" 
d="M196 0l-9 329h279v102h-284l9 210h301v88h-399l-20 -729h123z" />
    <glyph glyph-name="G" unicode="G" horiz-adv-x="783" 
d="M598 261v-79c-24 -25 -83 -37 -153 -37c-178 0 -261 49 -268 229c0 197 90 297 268 297c91 0 173 -31 246 -93v95c-72 45 -159 69 -254 69c-228 0 -364 -140 -364 -378s136 -378 364 -378c104 0 197 28 273 82v298h-269v-105h157z" />
    <glyph glyph-name="H" unicode="H" horiz-adv-x="712" 
d="M187 0v245h338v-245h114l-10 729h-104v-348h-338v348h-104l-10 -729h114z" />
    <glyph glyph-name="I" unicode="I" horiz-adv-x="265" 
d="M73 0h118c-13 243 -11 486 -14 729h-84c-5 -243 -5 -486 -20 -729z" />
    <glyph glyph-name="J" unicode="J" horiz-adv-x="452" 
d="M275 730l-26 -693c-1 -41 -39 -88 -126 -92l-50 11l2 -161l57 -6c155 3 217 66 221 242l26 692z" />
    <glyph glyph-name="K" unicode="K" horiz-adv-x="735" 
d="M201 0l-19 351l247 -351h233l-388 389l362 340h-127l-327 -308l9 308h-98l-20 -729h128z" />
    <glyph glyph-name="L" unicode="L" horiz-adv-x="605" 
d="M522 0l10 151h-355l5 578h-99l-10 -729h449z" />
    <glyph glyph-name="M" unicode="M" horiz-adv-x="833" 
d="M198 0l-19 640l178 -524h119l178 524l-20 -640h126l-15 729h-137l-192 -433l-181 433h-147l-15 -729h125z" />
    <glyph glyph-name="N" unicode="N" horiz-adv-x="708" 
d="M198 0l-29 610l323 -610h143v729h-91l-15 -590l-313 575h-123l-20 -714h125z" />
    <glyph glyph-name="O" unicode="O" horiz-adv-x="821" 
d="M411 742c-205 0 -338 -148 -338 -378c0 -231 133 -378 338 -378s337 148 337 378s-132 378 -337 378zM411 662c143 0 233 -114 233 -298c0 -151 -90 -191 -233 -191s-234 40 -234 191c0 184 91 298 234 298z" />
    <glyph glyph-name="P" unicode="P" horiz-adv-x="642" 
d="M191 0l10 283h119c164 0 248 84 248 228c0 143 -84 218 -248 218h-217l-30 -729h118zM206 687h124c98 0 154 -49 154 -137s-56 -137 -154 -137h-134z" />
    <glyph glyph-name="Q" unicode="Q" horiz-adv-x="855" 
d="M782 -129l-155 171c58 64 121 152 121 322c0 230 -132 378 -337 378s-338 -148 -338 -378s135 -378 333 -378c11 0 20 0 41 2l103 -117h232zM411 662c143 0 233 -114 233 -298c0 -76 -31 -131 -92 -164c-40 5 -79 17 -118 34l-40 -67l-46 6c-59 7 -171 40 -171 191
c0 184 91 298 234 298z" />
    <glyph glyph-name="R" unicode="R" horiz-adv-x="714" 
d="M419 342c68 23 110 85 110 177c0 141 -86 210 -233 210h-223v-729h118v308h74c78 0 114 -23 162 -121l74 -187h140l-100 199c-41 82 -80 129 -122 143zM182 677h124c75 0 153 -33 153 -158c0 -59 -78 -110 -153 -110h-124v268z" />
    <glyph glyph-name="S" unicode="S" horiz-adv-x="660" 
d="M542 609v96c-74 25 -145 37 -213 37c-160 0 -256 -79 -256 -208c0 -111 62 -170 209 -199l60 -12c100 -20 141 -66 141 -105c0 -43 -63 -98 -176 -98c-74 0 -151 23 -231 68v-156c84 -31 162 -46 231 -46c183 0 279 74 279 215c0 119 -68 188 -215 216l-59 12
c-108 20 -140 49 -140 113c0 77 61 120 168 120c62 0 128 -17 202 -53z" />
    <glyph glyph-name="T" unicode="T" horiz-adv-x="763" 
d="M332 656l-19 -656h138l-20 656l259 -10v83h-617v-83z" />
    <glyph glyph-name="U" unicode="U" horiz-adv-x="705" 
d="M73 729v-455c0 -190 95 -288 280 -288c183 0 278 98 278 288v455h-104l10 -375c4 -156 -58 -220 -184 -220c-127 0 -189 64 -186 220l10 375h-104z" />
    <glyph glyph-name="V" unicode="V" horiz-adv-x="814" 
d="M741 729h-102l-232 -545l-231 545h-103l254 -729h161z" />
    <glyph glyph-name="W" unicode="W" horiz-adv-x="1069" 
d="M390 0l145 394l134 -394h144l183 729h-95l-168 -533l-158 347h-86l-173 -337l-148 523h-95l163 -729h154z" />
    <glyph glyph-name="X" unicode="X" horiz-adv-x="771" 
d="M73 0h160l153 261l152 -261h159l-240 340l225 389h-106l-182 -310l-182 310h-106l218 -389z" />
    <glyph glyph-name="Y" unicode="Y" horiz-adv-x="761" 
d="M312 0h133v250l243 479h-106l-201 -373l-202 373h-106l239 -479v-250z" />
    <glyph glyph-name="Z" unicode="Z" horiz-adv-x="742" 
d="M534 646l-461 -507v-139h595v146h-472l461 508v75h-573v-83h450z" />
    <glyph glyph-name="bracketleft" unicode="[" horiz-adv-x="329" 
d="M280 -132v109h-117v713h117v70h-207v-892h207z" />
    <glyph glyph-name="backslash" unicode="\" horiz-adv-x="455" 
d="M279 -101l102 -3l-225 830l-83 3z" />
    <glyph glyph-name="bracketright" unicode="]" horiz-adv-x="329" 
d="M49 690h117v-718h-117v-104h207v892h-207v-70z" />
    <glyph glyph-name="asciicircum" unicode="^" horiz-adv-x="772" 
d="M73 457h152l161 222l161 -222h152l-275 272h-76z" />
    <glyph glyph-name="underscore" unicode="_" horiz-adv-x="666" 
d="M73 -129v-87h520v87h-520z" />
    <glyph glyph-name="grave" unicode="`" horiz-adv-x="380" 
d="M174 656h133l-138 183h-96z" />
    <glyph glyph-name="a" unicode="a" horiz-adv-x="608" 
d="M535 0v312c0 167 -77 248 -236 248c-58 0 -120 -13 -186 -38v-73c55 30 115 45 177 45c105 -7 155 -57 155 -140v-9h-126c-163 0 -246 -63 -246 -186c0 -105 72 -173 183 -173c89 0 148 32 189 92v-78h90zM395 279v-20c0 -117 -35 -136 -125 -136c-65 0 -112 5 -122 61
c1 67 35 95 166 95h81z" />
    <glyph glyph-name="b" unicode="b" horiz-adv-x="636" 
d="M126 99c-20 42 -24 346 -43 661h90l-9 -286c37 65 94 86 174 86c133 0 225 -115 225 -287s-92 -287 -225 -287c-143 0 -186 41 -212 113zM505 293c-4 127 -50 203 -146 203c-95 0 -152 -75 -152 -207c13 -101 22 -143 152 -143c80 6 131 34 146 147z" />
    <glyph glyph-name="c" unicode="c" horiz-adv-x="579" 
d="M506 447v79c-49 23 -103 34 -158 34c-170 0 -275 -109 -275 -287c0 -176 105 -287 269 -287c61 0 114 12 164 35l-2 141c-51 -28 -104 -21 -156 -21c-117 6 -166 38 -175 132c0 133 62 216 179 216c52 0 103 -14 154 -42z" />
    <glyph glyph-name="d" unicode="d" horiz-adv-x="645" 
d="M482 760l-10 -296c-37 65 -95 96 -175 96c-132 0 -224 -115 -224 -287s92 -287 224 -287c80 0 138 31 175 96v-82h90l10 760h-90zM138 283c0 132 57 212 153 212c95 0 138 -73 141 -205c-3 -121 -49 -141 -144 -141s-135 39 -150 134z" />
    <glyph glyph-name="e" unicode="e" horiz-adv-x="648" 
d="M575 296v34c-12 156 -87 224 -233 230c-165 0 -262 -113 -269 -292c0 -173 110 -276 284 -282c70 0 138 14 203 42l-2 124c-64 -34 -129 -33 -198 -33c-119 6 -191 31 -193 177h408zM497 375l-320 -1c0 66 65 139 165 139c89 0 145 -77 155 -138z" />
    <glyph glyph-name="f" unicode="f" horiz-adv-x="471" 
d="M392 740l-80 10c-84 0 -153 -43 -153 -165l-5 -38h-81v-89h81l-14 -458h129l-15 458h143v89h-143l-4 48c0 68 16 80 61 80l81 -9v74z" />
    <glyph glyph-name="g" unicode="g" horiz-adv-x="645" 
d="M482 547l-10 -83c-37 64 -95 96 -175 96c-134 0 -224 -111 -224 -280s90 -280 224 -280c80 0 140 37 170 82v-30c-13 -65 -63 -167 -181 -167c-53 0 -104 13 -157 42v-160c53 -19 108 -29 171 -29c171 0 249 78 257 330l15 479h-90zM433 285c0 -129 -63 -139 -160 -139
c-96 0 -133 10 -146 139c0 131 57 205 153 205c97 0 153 -74 153 -205z" />
    <glyph glyph-name="h" unicode="h" horiz-adv-x="624" 
d="M551 0l-10 330c0 151 -65 230 -191 230c-76 0 -134 -32 -177 -98l10 298h-90l-20 -760h110l-10 309c0 107 60 183 157 183c81 0 127 -40 121 -165l-14 -327h114z" />
    <glyph glyph-name="i" unicode="i" horiz-adv-x="261" 
d="M173 646l-5 114h-80l-5 -114h90zM73 0h115c-21 199 -26 383 -20 547h-80c1 -172 -2 -355 -15 -547z" />
    <glyph glyph-name="j" unicode="j" horiz-adv-x="358" 
d="M285 646l-5 114h-80l-5 -114h90zM179 544l-23 -498c-6 -114 -22 -129 -91 -134h-38l-3 -135l49 -1c118 5 169 71 172 210l19 557z" />
    <glyph glyph-name="k" unicode="k" horiz-adv-x="646" 
d="M193 0l-15 257l210 -257h185l-302 291l207 256h-115l-185 -216l5 429h-90l-20 -760h120z" />
    <glyph glyph-name="l" unicode="l" horiz-adv-x="342" 
d="M269 0v111h-106c2 217 8 389 20 605h-85c-14 -254 -21 -463 -25 -716h196z" />
    <glyph glyph-name="m" unicode="m" horiz-adv-x="969" 
d="M527 442c-27 77 -93 118 -173 118c-79 0 -135 -31 -176 -98l10 85h-90l-25 -547h125l-10 309c0 106 63 192 155 192c77 0 114 -49 114 -154l-44 -347h124l15 309c5 107 52 188 146 188c76 0 98 -50 98 -155l-34 -342h134l-10 330c0 147 -64 230 -178 230
c-84 0 -136 -38 -181 -118z" />
    <glyph glyph-name="n" unicode="n" horiz-adv-x="639" 
d="M565 0l-14 330c-7 151 -71 230 -196 230c-76 0 -134 -40 -177 -74v66h-90l-15 -552h125l-15 314c0 107 52 173 162 173c80 0 111 -51 111 -155l-19 -332h128z" />
    <glyph glyph-name="o" unicode="o" horiz-adv-x="648" 
d="M324 560c-157 0 -251 -107 -251 -287c0 -179 94 -287 251 -287c156 0 251 108 251 287c0 180 -95 287 -251 287zM324 494c96 0 156 -80 156 -205c0 -127 -60 -148 -156 -148c-97 0 -156 20 -156 148c0 127 60 205 156 205z" />
    <glyph glyph-name="p" unicode="p" horiz-adv-x="664" 
d="M188 -208l4 290c37 -65 95 -96 175 -96c133 0 224 115 224 287s-91 287 -224 287c-80 0 -138 -31 -175 -96l15 75h-90v-412l-44 -335h115zM533 289c0 -133 -53 -155 -148 -155s-157 22 -157 155c0 132 57 211 152 211c96 0 153 -79 153 -211z" />
    <glyph glyph-name="q" unicode="q" horiz-adv-x="727" 
d="M572 -207l81 69l-110 106l31 579h-87l-15 -83c-37 65 -95 96 -175 96c-132 0 -224 -115 -224 -287s92 -287 224 -287c80 0 138 31 175 96l-27 -290zM133 286c0 132 57 212 153 212c95 0 153 -80 153 -212c0 -133 -61 -150 -156 -150s-150 17 -150 150z" />
    <glyph glyph-name="r" unicode="r" horiz-adv-x="478" 
d="M405 453l-1 92c-18 4 -28 5 -40 5c-87 0 -152 -50 -170 -64v56h-83c8 -234 3 -316 -38 -542h141l-20 273c0 118 42 192 143 192c29 0 48 0 68 -12z" />
    <glyph glyph-name="s" unicode="s" horiz-adv-x="564" 
d="M462 456v75c-49 19 -108 29 -175 29c-134 0 -210 -58 -210 -161c0 -85 47 -121 158 -144l31 -7c56 -13 88 -23 95 -32c8 -9 17 -23 28 -43c0 -47 -37 -73 -122 -73c-63 0 -127 17 -194 52v-132c71 -23 134 -34 192 -34c141 0 226 63 226 165c0 89 -49 130 -176 157l-31 7
c-96 21 -125 44 -125 93c0 54 49 87 139 87c58 0 113 -14 164 -39z" />
    <glyph glyph-name="t" unicode="t" horiz-adv-x="488" 
d="M139 547h-66v-70h66l-5 -297c0 -137 50 -180 188 -180h93v134h-93c-74 0 -93 15 -93 105l5 238h127v70h-127l5 136h-95z" />
    <glyph glyph-name="u" unicode="u" horiz-adv-x="609" 
d="M73 547v-331c0 -151 67 -230 192 -230c76 0 133 32 176 98l-4 -84h89l10 547h-99l-10 -232c-7 -107 -60 -173 -157 -173c-81 0 -115 52 -122 155v250h-75z" />
    <glyph glyph-name="v" unicode="v" horiz-adv-x="679" 
d="M405 0l200 547h-95l-171 -401l-171 401h-95l200 -547h132z" />
    <glyph glyph-name="w" unicode="w" horiz-adv-x="880" 
d="M337 0l103 248l99 -248h125l143 547h-90l-112 -383l-102 202h-126l-102 -202l-112 383h-90l143 -547h121z" />
    <glyph glyph-name="x" unicode="x" horiz-adv-x="696" 
d="M347 323l-150 224h-96l190 -285l-218 -262h145l135 190l125 -190h145l-213 256l193 291h-91z" />
    <glyph glyph-name="y" unicode="y" horiz-adv-x="679" 
d="M510 547l-148 -318l-194 318h-95l234 -502l-38 -77c-34 -42 -54 -67 -103 -67h-63v-119h82c80 0 126 24 190 167l230 598h-95z" />
    <glyph glyph-name="z" unicode="z" horiz-adv-x="590" 
d="M421 480l-348 -349v-131h439v121h-304l309 344v82h-422v-67h326z" />
    <glyph glyph-name="braceleft" unicode="{" horiz-adv-x="517" 
d="M453 -70h-33c-92 2 -104 28 -109 94l2 122c-4 88 -23 131 -95 150c72 16 99 55 101 157l2 121c2 92 14 105 113 110l33 -1l1 70h-30c-162 -3 -205 -32 -208 -176l-1 -117c-2 -97 -32 -122 -125 -127l-30 1l-1 -70h30c92 -2 115 -35 120 -133l-2 -116
c4 -144 39 -181 201 -184l30 -1z" />
    <glyph glyph-name="bar" unicode="|" horiz-adv-x="249" 
d="M117 764l-44 -1000h93l15 493l19 507h-83z" />
    <glyph glyph-name="braceright" unicode="}" horiz-adv-x="445" 
d="M57 -163h31c162 0 203 36 203 180v117c0 98 30 130 122 130h30v70h-30c-92 0 -122 32 -122 129v117c0 144 -41 180 -203 180h-31v-70h34c92 0 110 -20 110 -112v-121c0 -102 26 -142 98 -158c-72 -18 -98 -59 -98 -154v-121c0 -93 -18 -112 -110 -112h-34v-75z" />
    <glyph glyph-name="asciitilde" unicode="~" horiz-adv-x="772" 
d="M699 322v77c-67 -55 -118 -78 -175 -78c-30 0 -71 10 -121 30c-9 3 -12 4 -18 7c-48 19 -90 29 -126 29c-63 0 -117 -21 -186 -72v-102c64 55 118 103 175 103c31 0 71 -13 122 -40l10 -4c2 -1 5 -1 8 -3c48 -29 90 -43 125 -43c63 0 118 45 186 96z" />
    <glyph glyph-name="uni00A0" unicode="&#xa0;" horiz-adv-x="783" 
 />
    <glyph glyph-name="exclamdown" unicode="&#xa1;" 
d="M88 749l-15 -134h119l-15 134h-89zM188 496l-99 -4l-4 -174l7 -320l128 4l-16 320z" />
    <glyph glyph-name="cent" unicode="&#xa2;" horiz-adv-x="584" 
d="M510 449l1 69c-44 21 -88 32 -135 36l2 140l-50 1l-2 -140c-158 -12 -249 -114 -253 -282c-2 -168 86 -274 242 -290l-2 -140l50 -1l2 138c51 4 94 15 137 33l2 122c-47 -24 -91 -37 -137 -39l8 397c44 -2 87 -16 135 -44zM324 492l-7 -393c-95 13 -150 78 -149 172
c3 133 61 211 156 221z" />
    <glyph glyph-name="sterling" unicode="&#xa3;" horiz-adv-x="641" 
d="M565 616l3 89c-51 19 -102 31 -141 31c-152 -4 -220 -72 -225 -242l-3 -116l-97 1l-2 -60l97 -1l-6 -213l-115 2l-3 -107l485 -8l3 107l-272 5l6 212l191 -3l1 60l-191 3l3 105c4 138 38 172 134 177c40 0 84 -15 132 -42z" />
    <glyph glyph-name="currency" unicode="&#xa4;" horiz-adv-x="692" 
d="M563 587l-101 -102c-39 25 -77 36 -116 36c-41 0 -79 -12 -115 -37l-101 101l-56 -56l101 -101c-25 -36 -37 -74 -37 -115c0 -38 12 -76 36 -116l-101 -101l55 -56l101 101c40 -24 80 -36 117 -36c40 0 77 12 115 38l102 -101l55 55l-102 101c26 37 38 74 38 115
s-12 79 -35 117l100 101zM478 314c0 -74 -58 -95 -132 -95s-132 21 -132 95c0 73 59 130 132 130c74 0 132 -57 132 -130z" />
    <glyph glyph-name="yen" unicode="&#xa5;" horiz-adv-x="711" 
d="M409 282v25l41 76h162v60h-129l155 286h-103l-179 -342l-180 342h-103l150 -286h-129v-60h162l51 -76v-25h-203v-79h203l-15 -203h128l-10 203h202v79h-203z" />
    <glyph glyph-name="brokenbar" unicode="&#xa6;" horiz-adv-x="229" 
d="M200 764h-83l-19 -455h83zM98 257l-25 -493h93l15 493h-83z" />
    <glyph glyph-name="section" unicode="&#xa7;" horiz-adv-x="556" 
d="M433 634v80c-51 19 -101 28 -149 28c-108 0 -179 -56 -179 -141c0 -45 20 -81 58 -110c-59 -32 -90 -79 -90 -138c0 -33 10 -62 31 -87s66 -57 136 -96l12 -7c72 -40 108 -73 108 -100c0 -49 -38 -63 -105 -63c-37 0 -86 12 -143 38v-105c57 -19 107 -28 154 -28
c113 0 184 59 184 151c0 42 -17 76 -58 110c61 35 90 80 90 138c0 33 -10 62 -31 87c-22 25 -67 57 -136 96c-4 2 -11 6 -19 11c-67 38 -101 71 -101 100c0 47 37 74 100 74c37 0 84 -13 138 -38zM213 469c80 -44 132 -76 156 -98c23 -22 34 -46 34 -70
c0 -30 -20 -60 -61 -89c-81 44 -133 77 -155 99c-23 21 -35 44 -35 69c0 30 20 59 61 89z" />
    <glyph glyph-name="dieresis" unicode="&#xa8;" horiz-adv-x="458" 
d="M180 659v106h-107v-106h107zM384 659v106h-106v-106h106z" />
    <glyph glyph-name="copyright" unicode="&#xa9;" horiz-adv-x="870" 
d="M435 725c-99 0 -185 -36 -256 -107s-106 -156 -106 -256c0 -99 35 -184 106 -255s157 -107 256 -107s185 36 256 107s106 156 106 255c0 100 -35 185 -106 256s-157 107 -256 107zM435 675c86 0 160 -31 221 -92c60 -61 91 -135 91 -221s-30 -158 -91 -205
c-61 -42 -135 -68 -221 -68c-85 0 -159 26 -220 68c-61 54 -93 121 -93 205s32 160 93 221s135 92 220 92zM581 507v48c-42 18 -86 27 -134 27c-140 0 -228 -84 -228 -220c0 -135 88 -221 228 -221c46 0 91 9 134 28v91c-43 -22 -81 -31 -123 -31c-101 0 -159 68 -159 133
c0 102 57 177 154 177c43 0 85 -11 128 -32z" />
    <glyph glyph-name="ordfeminine" unicode="&#xaa;" horiz-adv-x="494" 
d="M420 350v219c0 117 -58 173 -177 173c-45 0 -93 -9 -140 -27v-62c44 22 89 33 130 33c76 0 114 -30 114 -89v-2h-89c-122 0 -185 -45 -185 -133c0 -74 53 -121 137 -121c61 0 108 23 137 64v-55h73zM342 571v-14c0 -75 -46 -126 -114 -126c-53 0 -88 27 -88 69
c0 25 10 43 31 55c20 10 57 16 109 16h62zM421 229v60h-336v-60h336z" />
    <glyph glyph-name="guillemotleft" unicode="&#xab;" horiz-adv-x="616" 
d="M73 253l222 -211l23 111l-142 137l152 125l3 93l-236 -196zM285 246l222 -212l23 112l-142 136l152 126l2 93l-235 -196z" />
    <glyph glyph-name="logicalnot" unicode="&#xac;" horiz-adv-x="787" 
d="M617 338l-24 -198h121l-15 281h-626v-93z" />
    <glyph glyph-name="registered" unicode="&#xae;" horiz-adv-x="870" 
d="M435 725c-99 0 -185 -36 -256 -107s-106 -156 -106 -256c0 -99 35 -184 106 -255s157 -107 256 -107s185 36 256 107s106 156 106 255c0 100 -35 185 -106 256s-157 107 -256 107zM435 675c86 0 160 -29 221 -85c60 -56 91 -125 91 -204s-30 -147 -91 -203
c-61 -57 -135 -86 -221 -86c-85 0 -159 29 -220 86c-61 56 -93 125 -93 203s32 147 93 204c61 56 135 85 220 85zM286 165h100v174h28c4 0 12 -4 24 -12c12 -9 28 -29 47 -60l63 -102h84l-67 109c-15 24 -28 42 -39 55c-11 12 -20 20 -28 22c63 11 98 49 98 105
c0 79 -56 117 -171 117h-139v-408zM386 547h60c71 0 96 -18 96 -68c0 -48 -24 -66 -96 -66h-60v134z" />
    <glyph glyph-name="macron" unicode="&#xaf;" horiz-adv-x="438" 
d="M365 673v72h-292v-72h292z" />
    <glyph glyph-name="degree" unicode="&#xb0;" horiz-adv-x="456" 
d="M228 742c-86 0 -155 -69 -155 -156c0 -88 66 -154 154 -154c87 0 156 68 156 154c0 43 -15 81 -45 110c-28 30 -68 46 -110 46zM228 704c51 0 93 -38 93 -85s-41 -84 -93 -84s-93 37 -93 84s41 85 93 85z" />
    <glyph glyph-name="plusminus" unicode="&#xb1;" horiz-adv-x="772" 
d="M345 438h-272v-83h272v-189h82v189h272v83h-272v189h-82v-189zM699 0v93h-626v-93h626z" />
    <glyph glyph-name="twosuperior" unicode="&#xb2;" horiz-adv-x="438" 
d="M365 407h-207c10 9 25 21 43 36c108 93 161 137 161 182c0 70 -61 117 -155 117c-38 0 -81 -9 -131 -27v-60c47 23 87 34 120 34c55 0 93 -29 93 -72c0 -31 -57 -71 -168 -170l-48 -42v-79h292v81z" />
    <glyph glyph-name="threesuperior" unicode="&#xb3;" horiz-adv-x="449" 
d="M281 547c53 12 84 44 84 89c0 65 -59 106 -153 106c-35 0 -77 -6 -125 -17v-56c53 15 83 20 109 20c62 0 96 -21 96 -58c0 -39 -33 -60 -94 -60h-46v-53h42c71 0 107 -25 107 -73c0 -46 -36 -51 -107 -51c-44 0 -83 8 -116 25l-5 -80c46 -13 86 -20 123 -20
c116 0 179 45 179 126c0 53 -34 90 -94 102z" />
    <glyph glyph-name="acute" unicode="&#xb4;" horiz-adv-x="407" 
d="M156 645l177 204h-107l-153 -204h83z" />
    <glyph glyph-name="mu" unicode="&#xb5;" horiz-adv-x="698" 
d="M173 -208l-5 270c27 -51 74 -76 140 -76c64 0 110 26 143 77c10 -52 36 -77 81 -77c11 0 27 6 45 17c18 12 34 22 48 29v72c-10 -3 -17 -6 -22 -8s-9 -3 -12 -3c-37 3 -55 13 -55 33l5 421h-90l-5 -216c0 -110 -49 -164 -145 -164c-88 0 -133 48 -133 143l-5 242l-90 -5
l10 -755h90z" />
    <glyph glyph-name="paragraph" unicode="&#xb6;" horiz-adv-x="700" 
d="M519 729h-214c-140 0 -232 -83 -232 -206c0 -120 98 -195 166 -206l-34 -413h157v765h93l-5 -765h176z" />
    <glyph glyph-name="periodcentered" unicode="&#xb7;" horiz-adv-x="250" 
d="M176 285v124h-103v-124h103z" />
    <glyph glyph-name="cedilla" unicode="&#xb8;" horiz-adv-x="349" 
d="M222 0h-58c29 -40 43 -67 43 -87c0 -30 -19 -46 -58 -46c-31 0 -54 5 -76 16v-64c28 -8 56 -12 86 -12c77 0 116 30 116 88c0 31 -17 64 -53 105z" />
    <glyph glyph-name="onesuperior" unicode="&#xb9;" horiz-adv-x="426" 
d="M353 326v90h-101v318h-66l-113 -19v-57l109 20v-262h-99v-90h270z" />
    <glyph glyph-name="ordmasculine" unicode="&#xba;" horiz-adv-x="523" 
d="M262 742c-116 0 -189 -76 -189 -201c0 -124 73 -200 189 -200c117 0 188 76 188 200c0 125 -71 201 -188 201zM262 704c69 0 113 -47 113 -122c0 -74 -44 -122 -113 -122c-68 0 -113 48 -113 122s45 122 113 122zM430 229v60h-336v-60h336z" />
    <glyph glyph-name="guillemotright" unicode="&#xbb;" horiz-adv-x="611" 
d="M227 297l-154 -123l14 -113l239 191l-16 61l-218 216l-5 -93zM438 286l-153 -123l13 -114l240 192l-17 61l-218 216l-5 -94z" />
    <glyph glyph-name="onequarter" unicode="&#xbc;" horiz-adv-x="963" 
d="M322 -14l455 756h-78l-455 -756h78zM353 326v54h-101v354h-66l-113 -19v-57l109 20v-298h-99v-54h270zM551 92h202v-91h71v91h66v53h-66v264h-81l-192 -258v-59zM603 145l150 205v-205h-150z" />
    <glyph glyph-name="onehalf" unicode="&#xbd;" horiz-adv-x="967" 
d="M297 -14l455 756h-78l-455 -756h78zM353 326v54h-101v354h-66l-113 -19v-57l109 20v-298h-99v-54h270zM894 57h-207c10 8 24 21 42 36c108 93 162 161 162 207c0 70 -61 117 -156 117c-37 0 -80 -9 -130 -27v-60c47 23 86 34 120 34c55 0 92 -29 92 -72
c0 -31 -56 -96 -168 -195l-47 -42v-54h292v56z" />
    <glyph glyph-name="threequarters" unicode="&#xbe;" horiz-adv-x="957" 
d="M281 547c53 12 84 44 84 89c0 65 -59 106 -153 106c-35 0 -77 -6 -125 -17v-56c53 15 83 20 109 20c62 0 96 -21 96 -58c0 -39 -33 -60 -94 -60h-46v-53h42c71 0 107 -25 107 -73c0 -46 -41 -73 -112 -73c-43 0 -82 8 -116 26v-59c46 -13 86 -20 123 -20
c116 0 179 45 179 126c0 53 -34 90 -94 102zM335 -14l456 756h-79l-455 -756h78zM545 92h203v-91h70v91h66v53h-66v264h-81l-192 -258v-59zM597 145l151 205v-205h-151z" />
    <glyph glyph-name="questiondown" unicode="&#xbf;" horiz-adv-x="536" 
d="M245 729v-124h98v124h-98zM248 533v-60c0 -35 -2 -52 -7 -66c-5 -16 -14 -30 -46 -61l-43 -42c-58 -56 -79 -96 -79 -146c0 -103 80 -172 199 -172c67 0 129 18 190 55v121c-62 -43 -122 -67 -172 -67c-71 0 -118 39 -118 97c0 32 16 61 54 96l44 43c45 50 56 60 56 126
v76h-78z" />
    <glyph glyph-name="Agrave" unicode="&#xc0;" horiz-adv-x="814" 
d="M353 939h133l-138 183h-96zM207 0l37 119h328l28 -119h141l-287 729h-93l-288 -729h134zM273 235l134 404l135 -404h-269z" />
    <glyph glyph-name="Aacute" unicode="&#xc1;" horiz-adv-x="814" 
d="M456 930l177 204h-107l-153 -204h83zM207 0l37 119h328l28 -119h141l-287 729h-93l-288 -729h134zM273 235l134 404l135 -404h-269z" />
    <glyph glyph-name="Acircumflex" unicode="&#xc2;" horiz-adv-x="814" 
d="M325 733l88 120l88 -120h68l-120 184h-72l-120 -184h68zM207 0l37 119h328l28 -119h141l-287 729h-93l-288 -729h134zM273 235l134 404l135 -404h-269z" />
    <glyph glyph-name="Atilde" unicode="&#xc3;" horiz-adv-x="814" 
d="M384 977l27 -27c24 -22 43 -30 68 -30c59 0 94 50 96 138h-62c0 -27 -3 -46 -9 -58s-15 -18 -28 -18c-8 0 -19 6 -33 19l-28 27c-24 22 -43 30 -68 30c-59 0 -93 -50 -95 -138h61c1 27 4 46 10 58s15 18 27 18c9 0 19 -6 34 -19zM207 0l37 119h328l28 -119h141l-287 729
h-93l-288 -729h134zM273 235l134 404l135 -404h-269z" />
    <glyph glyph-name="Adieresis" unicode="&#xc4;" horiz-adv-x="814" 
d="M364 793v106h-107v-106h107zM568 793v106h-106v-106h106zM207 0l37 119h328l28 -119h141l-287 729h-93l-288 -729h134zM273 235l134 404l135 -404h-269z" />
    <glyph glyph-name="Aring" unicode="&#xc5;" horiz-adv-x="814" 
d="M547 878c0 75 -59 134 -134 134s-134 -59 -134 -134s59 -134 134 -134s134 59 134 134zM487 878c0 -41 -32 -74 -74 -74s-74 32 -74 74s32 74 74 74s74 -33 74 -74zM207 0l37 119h328l28 -119h141l-287 729h-93l-288 -729h134zM273 235l134 404l135 -404h-269z" />
    <glyph glyph-name="AE" unicode="&#xc6;" horiz-adv-x="1061" 
d="M50 0h183l-4 128h257v-128h471v127h-372v137h348v83h-348v299h362v83h-592zM486 210h-224l161 442h63v-442z" />
    <glyph glyph-name="Ccedilla" unicode="&#xc7;" horiz-adv-x="734" 
d="M435 661c-166 0 -258 -104 -258 -297c3 -171 92 -229 258 -229c85 0 160 31 226 93v-172c-66 -45 -138 -68 -219 -70c28 -35 41 -64 41 -91c0 -58 -39 -88 -116 -88c-30 0 -58 4 -86 12v64c22 -11 45 -16 76 -16c39 0 58 16 58 46c0 18 -11 42 -35 75
c-192 20 -307 160 -307 376c0 234 135 378 356 378c88 0 164 -23 232 -69v-104c-66 62 -141 92 -226 92z" />
    <glyph glyph-name="Egrave" unicode="&#xc8;" horiz-adv-x="616" 
d="M232 963h133l-138 183h-96zM543 0v151h-371v196h347v83h-347v216h362v83h-461v-729h470z" />
    <glyph glyph-name="Eacute" unicode="&#xc9;" horiz-adv-x="616" 
d="M335 954l177 204h-107l-153 -204h83zM543 0v151h-371v196h347v83h-347v216h362v83h-461v-729h470z" />
    <glyph glyph-name="Ecircumflex" unicode="&#xca;" horiz-adv-x="616" 
d="M204 757l88 120l88 -120h68l-120 184h-72l-120 -184h68zM543 0v151h-371v196h347v83h-347v216h362v83h-461v-729h470z" />
    <glyph glyph-name="Edieresis" unicode="&#xcb;" horiz-adv-x="616" 
d="M243 817v106h-107v-106h107zM447 817v106h-106v-106h106zM543 0v151h-371v196h347v83h-347v216h362v83h-461v-729h470z" />
    <glyph glyph-name="Igrave" unicode="&#xcc;" horiz-adv-x="265" 
d="M77 987h133l-138 183h-96zM73 0h118c-13 243 -11 486 -14 729h-84c-5 -243 -5 -486 -20 -729z" />
    <glyph glyph-name="Iacute" unicode="&#xcd;" horiz-adv-x="265" 
d="M180 978l177 204h-107l-153 -204h83zM73 0h118c-13 243 -11 486 -14 729h-84c-5 -243 -5 -486 -20 -729z" />
    <glyph glyph-name="Icircumflex" unicode="&#xce;" horiz-adv-x="265" 
d="M49 781l88 120l88 -120h68l-120 184h-72l-120 -184h68zM73 0h118c-13 243 -11 486 -14 729h-84c-5 -243 -5 -486 -20 -729z" />
    <glyph glyph-name="Idieresis" unicode="&#xcf;" horiz-adv-x="265" 
d="M88 841v106h-107v-106h107zM292 841v106h-106v-106h106zM73 0h118c-13 243 -11 486 -14 729h-84c-5 -243 -5 -486 -20 -729z" />
    <glyph glyph-name="Eth" unicode="&#xd0;" horiz-adv-x="865" 
d="M65 412v-70h99v-342h203c281 0 409 114 409 365c0 250 -128 364 -409 364h-203v-317h-99zM263 648h118c202 0 291 -87 291 -283c0 -197 -89 -216 -291 -216h-118v193h164v70h-164v236z" />
    <glyph glyph-name="Ntilde" unicode="&#xd1;" horiz-adv-x="708" 
d="M331 1025l27 -27c24 -22 43 -30 68 -30c59 0 94 50 96 138h-62c0 -27 -3 -46 -9 -58s-15 -18 -28 -18c-8 0 -19 6 -33 19l-28 27c-24 22 -43 30 -68 30c-59 0 -93 -50 -95 -138h61c1 27 4 46 10 58s15 18 27 18c9 0 19 -6 34 -19zM198 0l-29 610l323 -610h143v729h-91
l-15 -590l-313 575h-123l-20 -714h125z" />
    <glyph glyph-name="Ograve" unicode="&#xd2;" horiz-adv-x="821" 
d="M351 987h133l-138 183h-96zM411 742c-205 0 -338 -148 -338 -378c0 -231 133 -378 338 -378s337 148 337 378s-132 378 -337 378zM411 662c143 0 233 -114 233 -298c0 -151 -90 -191 -233 -191s-234 40 -234 191c0 184 91 298 234 298z" />
    <glyph glyph-name="Oacute" unicode="&#xd3;" horiz-adv-x="821" 
d="M454 978l177 204h-107l-153 -204h83zM411 742c-205 0 -338 -148 -338 -378c0 -231 133 -378 338 -378s337 148 337 378s-132 378 -337 378zM411 662c143 0 233 -114 233 -298c0 -151 -90 -191 -233 -191s-234 40 -234 191c0 184 91 298 234 298z" />
    <glyph glyph-name="Ocircumflex" unicode="&#xd4;" horiz-adv-x="821" 
d="M323 781l88 120l88 -120h68l-120 184h-72l-120 -184h68zM411 742c-205 0 -338 -148 -338 -378c0 -231 133 -378 338 -378s337 148 337 378s-132 378 -337 378zM411 662c143 0 233 -114 233 -298c0 -151 -90 -191 -233 -191s-234 40 -234 191c0 184 91 298 234 298z" />
    <glyph glyph-name="Otilde" unicode="&#xd5;" horiz-adv-x="821" 
d="M382 1025l27 -27c24 -22 43 -30 68 -30c59 0 94 50 96 138h-62c0 -27 -3 -46 -9 -58s-15 -18 -28 -18c-8 0 -19 6 -33 19l-28 27c-24 22 -43 30 -68 30c-59 0 -93 -50 -95 -138h61c1 27 4 46 10 58s15 18 27 18c9 0 19 -6 34 -19zM411 742c-205 0 -338 -148 -338 -378
c0 -231 133 -378 338 -378s337 148 337 378s-132 378 -337 378zM411 662c143 0 233 -114 233 -298c0 -151 -90 -191 -233 -191s-234 40 -234 191c0 184 91 298 234 298z" />
    <glyph glyph-name="Odieresis" unicode="&#xd6;" horiz-adv-x="821" 
d="M362 841v106h-107v-106h107zM566 841v106h-106v-106h106zM411 742c-205 0 -338 -148 -338 -378c0 -231 133 -378 338 -378s337 148 337 378s-132 378 -337 378zM411 662c143 0 233 -114 233 -298c0 -151 -90 -191 -233 -191s-234 40 -234 191c0 184 91 298 234 298z" />
    <glyph glyph-name="multiply" unicode="&#xd7;" horiz-adv-x="686" 
d="M340 406l-175 176l-82 -84l174 -175l-184 -184l82 -84l185 185l185 -185l83 84l-184 184l189 190l-83 83z" />
    <glyph glyph-name="Oslash" unicode="&#xd8;" horiz-adv-x="821" 
d="M606 773l-22 -74c103 -60 164 -179 164 -335c0 -230 -132 -378 -337 -378c-13 0 -27 1 -39 2l-9 -29l-113 4l18 51c-122 53 -195 179 -195 350c0 230 133 378 338 378c37 0 72 -5 104 -14l17 48zM177 364c0 -118 56 -168 148 -185l163 470c-23 9 -49 13 -77 13
c-143 0 -234 -114 -234 -298zM557 608l-130 -435c134 3 217 46 217 191c0 109 -32 194 -87 244z" />
    <glyph glyph-name="Ugrave" unicode="&#xd9;" horiz-adv-x="705" 
d="M292 987h133l-138 183h-96zM73 729v-455c0 -190 95 -288 280 -288c183 0 278 98 278 288v455h-104l10 -375c4 -156 -58 -220 -184 -220c-127 0 -189 64 -186 220l10 375h-104z" />
    <glyph glyph-name="Uacute" unicode="&#xda;" horiz-adv-x="705" 
d="M395 978l177 204h-107l-153 -204h83zM73 729v-455c0 -190 95 -288 280 -288c183 0 278 98 278 288v455h-104l10 -375c4 -156 -58 -220 -184 -220c-127 0 -189 64 -186 220l10 375h-104z" />
    <glyph glyph-name="Ucircumflex" unicode="&#xdb;" horiz-adv-x="705" 
d="M264 781l88 120l88 -120h68l-120 184h-72l-120 -184h68zM73 729v-455c0 -190 95 -288 280 -288c183 0 278 98 278 288v455h-104l10 -375c4 -156 -58 -220 -184 -220c-127 0 -189 64 -186 220l10 375h-104z" />
    <glyph glyph-name="Udieresis" unicode="&#xdc;" horiz-adv-x="705" 
d="M303 841v106h-107v-106h107zM507 841v106h-106v-106h106zM73 729v-455c0 -190 95 -288 280 -288c183 0 278 98 278 288v455h-104l10 -375c4 -156 -58 -220 -184 -220c-127 0 -189 64 -186 220l10 375h-104z" />
    <glyph glyph-name="Yacute" unicode="&#xdd;" horiz-adv-x="761" 
d="M423 978l177 204h-107l-153 -204h83zM312 0h133v250l243 479h-106l-201 -373l-202 373h-106l239 -479v-250z" />
    <glyph glyph-name="Thorn" unicode="&#xde;" horiz-adv-x="617" 
d="M172 0v165h124c163 0 248 75 248 218s-85 217 -248 217h-124v129h-99v-729h99zM172 519h124c92 0 144 -49 144 -136c0 -88 -52 -137 -144 -137h-124v273z" />
    <glyph glyph-name="germandbls" unicode="&#xdf;" horiz-adv-x="694" 
d="M239 0l-24 553c13 112 55 152 139 152c74 0 107 -6 158 -125c-131 -19 -160 -78 -160 -160c0 -59 35 -101 65 -139l40 -27c32 -20 54 -37 64 -51c9 -14 14 -27 14 -41c0 -40 -40 -62 -116 -62c-42 0 -86 9 -139 29v-119c48 -16 92 -24 134 -24c137 0 212 61 212 173
c0 65 -20 101 -127 170l-28 18c-43 28 -60 52 -60 83c0 63 57 102 155 107c-2 146 -74 223 -210 223c-142 0 -223 -74 -223 -205l-29 -555h135z" />
    <glyph glyph-name="agrave" unicode="&#xe0;" horiz-adv-x="608" 
d="M258 805h133l-138 183h-96zM535 0v312c0 167 -77 248 -236 248c-58 0 -120 -13 -186 -38v-73c55 30 115 45 177 45c105 -7 155 -57 155 -140v-9h-126c-163 0 -246 -63 -246 -186c0 -105 72 -173 183 -173c89 0 148 32 189 92v-78h90zM395 279v-20
c0 -117 -35 -136 -125 -136c-65 0 -112 5 -122 61c1 67 35 95 166 95h81z" />
    <glyph glyph-name="aacute" unicode="&#xe1;" horiz-adv-x="608" 
d="M361 796l177 204h-107l-153 -204h83zM535 0v312c0 167 -77 248 -236 248c-58 0 -120 -13 -186 -38v-73c55 30 115 45 177 45c105 -7 155 -57 155 -140v-9h-126c-163 0 -246 -63 -246 -186c0 -105 72 -173 183 -173c89 0 148 32 189 92v-78h90zM395 279v-20
c0 -117 -35 -136 -125 -136c-65 0 -112 5 -122 61c1 67 35 95 166 95h81z" />
    <glyph glyph-name="acircumflex" unicode="&#xe2;" horiz-adv-x="608" 
d="M230 599l88 120l88 -120h68l-120 184h-72l-120 -184h68zM535 0v312c0 167 -77 248 -236 248c-58 0 -120 -13 -186 -38v-73c55 30 115 45 177 45c105 -7 155 -57 155 -140v-9h-126c-163 0 -246 -63 -246 -186c0 -105 72 -173 183 -173c89 0 148 32 189 92v-78h90zM395 279
v-20c0 -117 -35 -136 -125 -136c-65 0 -112 5 -122 61c1 67 35 95 166 95h81z" />
    <glyph glyph-name="atilde" unicode="&#xe3;" horiz-adv-x="608" 
d="M289 843l27 -27c24 -22 43 -30 68 -30c59 0 94 50 96 138h-62c0 -27 -3 -46 -9 -58s-15 -18 -28 -18c-8 0 -19 6 -33 19l-28 27c-24 22 -43 30 -68 30c-59 0 -93 -50 -95 -138h61c1 27 4 46 10 58s15 18 27 18c9 0 19 -6 34 -19zM535 0v312c0 167 -77 248 -236 248
c-58 0 -120 -13 -186 -38v-73c55 30 115 45 177 45c105 -7 155 -57 155 -140v-9h-126c-163 0 -246 -63 -246 -186c0 -105 72 -173 183 -173c89 0 148 32 189 92v-78h90zM395 279v-20c0 -117 -35 -136 -125 -136c-65 0 -112 5 -122 61c1 67 35 95 166 95h81z" />
    <glyph glyph-name="adieresis" unicode="&#xe4;" horiz-adv-x="608" 
d="M269 659v106h-107v-106h107zM473 659v106h-106v-106h106zM535 0v312c0 167 -77 248 -236 248c-58 0 -120 -13 -186 -38v-73c55 30 115 45 177 45c105 -7 155 -57 155 -140v-9h-126c-163 0 -246 -63 -246 -186c0 -105 72 -173 183 -173c89 0 148 32 189 92v-78h90z
M395 279v-20c0 -117 -35 -136 -125 -136c-65 0 -112 5 -122 61c1 67 35 95 166 95h81z" />
    <glyph glyph-name="aring" unicode="&#xe5;" horiz-adv-x="608" 
d="M452 744c0 75 -59 134 -134 134s-134 -59 -134 -134s59 -134 134 -134s134 59 134 134zM392 744c0 -41 -32 -74 -74 -74s-74 32 -74 74s32 74 74 74s74 -33 74 -74zM535 0v312c0 167 -77 248 -236 248c-58 0 -120 -13 -186 -38v-73c55 30 115 45 177 45
c105 -7 155 -57 155 -140v-9h-126c-163 0 -246 -63 -246 -186c0 -105 72 -173 183 -173c89 0 148 32 189 92v-78h90zM395 279v-20c0 -117 -35 -136 -125 -136c-65 0 -112 5 -122 61c1 67 35 95 166 95h81z" />
    <glyph glyph-name="ae" unicode="&#xe6;" horiz-adv-x="1083" 
d="M535 470c-35 57 -107 90 -200 90c-58 0 -120 -13 -186 -38v-64c55 30 115 45 177 45c98 0 155 -76 155 -120v-8h-126c-163 0 -246 -54 -246 -216c0 -109 72 -173 195 -173c93 0 164 39 211 117c50 -78 131 -117 240 -117c69 0 138 29 203 56v129
c-65 -34 -130 -51 -198 -51c-119 0 -187 76 -195 161h414v44c0 124 -93 235 -240 235c-86 0 -156 -31 -204 -90zM888 352l-320 -1c10 76 73 159 172 159c90 0 148 -88 148 -158zM481 304v-16c0 -125 -65 -178 -165 -178c-72 0 -117 32 -117 83c0 95 48 111 193 111h89z" />
    <glyph glyph-name="ccedilla" unicode="&#xe7;" horiz-adv-x="579" 
d="M352 489c-117 0 -179 -83 -179 -216c9 -94 58 -126 175 -132c52 0 105 -7 156 21l2 -141c-42 -20 -87 -31 -137 -34c29 -35 42 -64 42 -92c0 -58 -39 -88 -116 -88c-30 0 -58 4 -86 12v64c22 -11 45 -16 76 -16c39 0 58 16 58 46c0 18 -11 41 -34 75
c-145 14 -236 121 -236 285c0 178 105 287 275 287c55 0 109 -11 158 -34v-79c-51 28 -102 42 -154 42z" />
    <glyph glyph-name="egrave" unicode="&#xe8;" horiz-adv-x="648" 
d="M269 805h133l-138 183h-96zM575 296v34c-12 156 -87 224 -233 230c-165 0 -262 -113 -269 -292c0 -173 110 -276 284 -282c70 0 138 14 203 42l-2 124c-64 -34 -129 -33 -198 -33c-119 6 -191 31 -193 177h408zM497 375l-320 -1c0 66 65 139 165 139
c89 0 145 -77 155 -138z" />
    <glyph glyph-name="eacute" unicode="&#xe9;" horiz-adv-x="648" 
d="M372 796l177 204h-107l-153 -204h83zM575 296v34c-12 156 -87 224 -233 230c-165 0 -262 -113 -269 -292c0 -173 110 -276 284 -282c70 0 138 14 203 42l-2 124c-64 -34 -129 -33 -198 -33c-119 6 -191 31 -193 177h408zM497 375l-320 -1c0 66 65 139 165 139
c89 0 145 -77 155 -138z" />
    <glyph glyph-name="ecircumflex" unicode="&#xea;" horiz-adv-x="648" 
d="M241 599l88 120l88 -120h68l-120 184h-72l-120 -184h68zM575 296v34c-12 156 -87 224 -233 230c-165 0 -262 -113 -269 -292c0 -173 110 -276 284 -282c70 0 138 14 203 42l-2 124c-64 -34 -129 -33 -198 -33c-119 6 -191 31 -193 177h408zM497 375l-320 -1
c0 66 65 139 165 139c89 0 145 -77 155 -138z" />
    <glyph glyph-name="edieresis" unicode="&#xeb;" horiz-adv-x="648" 
d="M280 659v106h-107v-106h107zM484 659v106h-106v-106h106zM575 296v34c-12 156 -87 224 -233 230c-165 0 -262 -113 -269 -292c0 -173 110 -276 284 -282c70 0 138 14 203 42l-2 124c-64 -34 -129 -33 -198 -33c-119 6 -191 31 -193 177h408zM497 375l-320 -1
c0 66 65 139 165 139c89 0 145 -77 155 -138z" />
    <glyph glyph-name="igrave" unicode="&#xec;" horiz-adv-x="383" 
d="M174 617h133l-138 183h-96zM310 0v547h-90v-547h90z" />
    <glyph glyph-name="iacute" unicode="&#xed;" horiz-adv-x="407" 
d="M156 596l177 204h-107l-153 -204h83zM216 0v547h-90v-547h90z" />
    <glyph glyph-name="icircumflex" unicode="&#xee;" horiz-adv-x="458" 
d="M141 616l88 120l88 -120h68l-120 184h-72l-120 -184h68zM301 0v547h-90v-547h90z" />
    <glyph glyph-name="idieresis" unicode="&#xef;" horiz-adv-x="458" 
d="M180 659v106h-107v-106h107zM384 659v106h-106v-106h106zM273 0v547h-90v-547h90z" />
    <glyph glyph-name="eth" unicode="&#xf0;" horiz-adv-x="648" 
d="M522 696l-16 47l-163 -54l-62 71h-111l88 -100l-137 -45l16 -48l156 52l78 -88c-28 4 -43 5 -55 5c-144 0 -243 -111 -243 -274c0 -166 101 -276 251 -276s251 110 251 276c0 113 -35 202 -117 295l-80 91zM427 447c35 -45 53 -105 53 -185c0 -122 -62 -128 -156 -128
c-95 0 -156 6 -156 128c0 127 63 201 172 201c27 0 55 -5 87 -16z" />
    <glyph glyph-name="ntilde" unicode="&#xf1;" horiz-adv-x="639" 
d="M281 843l27 -27c24 -22 43 -30 68 -30c59 0 94 50 96 138h-62c0 -27 -3 -46 -9 -58s-15 -18 -28 -18c-8 0 -19 6 -33 19l-28 27c-24 22 -43 30 -68 30c-59 0 -93 -50 -95 -138h61c1 27 4 46 10 58s15 18 27 18c9 0 19 -6 34 -19zM565 0l-14 330c-7 151 -71 230 -196 230
c-76 0 -134 -40 -177 -74v66h-90l-15 -552h125l-15 314c0 107 52 173 162 173c80 0 111 -51 111 -155l-19 -332h128z" />
    <glyph glyph-name="ograve" unicode="&#xf2;" horiz-adv-x="648" 
d="M264 805h133l-138 183h-96zM324 560c-157 0 -251 -107 -251 -287c0 -179 94 -287 251 -287c156 0 251 108 251 287c0 180 -95 287 -251 287zM324 494c96 0 156 -80 156 -205c0 -127 -60 -148 -156 -148c-97 0 -156 20 -156 148c0 127 60 205 156 205z" />
    <glyph glyph-name="oacute" unicode="&#xf3;" horiz-adv-x="648" 
d="M367 796l177 204h-107l-153 -204h83zM324 560c-157 0 -251 -107 -251 -287c0 -179 94 -287 251 -287c156 0 251 108 251 287c0 180 -95 287 -251 287zM324 494c96 0 156 -80 156 -205c0 -127 -60 -148 -156 -148c-97 0 -156 20 -156 148c0 127 60 205 156 205z" />
    <glyph glyph-name="ocircumflex" unicode="&#xf4;" horiz-adv-x="648" 
d="M236 599l88 120l88 -120h68l-120 184h-72l-120 -184h68zM324 560c-157 0 -251 -107 -251 -287c0 -179 94 -287 251 -287c156 0 251 108 251 287c0 180 -95 287 -251 287zM324 494c96 0 156 -80 156 -205c0 -127 -60 -148 -156 -148c-97 0 -156 20 -156 148
c0 127 60 205 156 205z" />
    <glyph glyph-name="otilde" unicode="&#xf5;" horiz-adv-x="648" 
d="M295 843l27 -27c24 -22 43 -30 68 -30c59 0 94 50 96 138h-62c0 -27 -3 -46 -9 -58s-15 -18 -28 -18c-8 0 -19 6 -33 19l-28 27c-24 22 -43 30 -68 30c-59 0 -93 -50 -95 -138h61c1 27 4 46 10 58s15 18 27 18c9 0 19 -6 34 -19zM324 560c-157 0 -251 -107 -251 -287
c0 -179 94 -287 251 -287c156 0 251 108 251 287c0 180 -95 287 -251 287zM324 494c96 0 156 -80 156 -205c0 -127 -60 -148 -156 -148c-97 0 -156 20 -156 148c0 127 60 205 156 205z" />
    <glyph glyph-name="odieresis" unicode="&#xf6;" horiz-adv-x="648" 
d="M275 659v106h-107v-106h107zM479 659v106h-106v-106h106zM324 560c-157 0 -251 -107 -251 -287c0 -179 94 -287 251 -287c156 0 251 108 251 287c0 180 -95 287 -251 287zM324 494c96 0 156 -80 156 -205c0 -127 -60 -148 -156 -148c-97 0 -156 20 -156 148
c0 127 60 205 156 205z" />
    <glyph glyph-name="divide" unicode="&#xf7;" horiz-adv-x="797" 
d="M471 434v145h-145v-145h145zM724 248v107h-651v-107h651zM471 24v144h-145v-144h145z" />
    <glyph glyph-name="oslash" unicode="&#xf8;" horiz-adv-x="688" 
d="M120 -46l68 82c41 -33 94 -50 156 -50c156 0 251 108 251 287c0 78 -17 143 -52 193l71 87l-46 39l-68 -82c-43 33 -95 50 -156 50c-156 0 -251 -107 -251 -287c0 -78 18 -142 53 -192l-73 -89zM445 444l-238 -289c-13 30 -19 64 -19 111c0 137 58 218 156 218
c41 0 74 -13 101 -40zM242 102l238 289c14 -30 20 -67 20 -118c0 -130 -60 -211 -156 -211c-42 0 -75 13 -102 40z" />
    <glyph glyph-name="ugrave" unicode="&#xf9;" horiz-adv-x="609" 
d="M248 805h133l-138 183h-96zM73 547v-331c0 -151 67 -230 192 -230c76 0 133 32 176 98l-4 -84h89l10 547h-99l-10 -232c-7 -107 -60 -173 -157 -173c-81 0 -115 52 -122 155v250h-75z" />
    <glyph glyph-name="uacute" unicode="&#xfa;" horiz-adv-x="609" 
d="M351 796l177 204h-107l-153 -204h83zM73 547v-331c0 -151 67 -230 192 -230c76 0 133 32 176 98l-4 -84h89l10 547h-99l-10 -232c-7 -107 -60 -173 -157 -173c-81 0 -115 52 -122 155v250h-75z" />
    <glyph glyph-name="ucircumflex" unicode="&#xfb;" horiz-adv-x="609" 
d="M220 599l88 120l88 -120h68l-120 184h-72l-120 -184h68zM73 547v-331c0 -151 67 -230 192 -230c76 0 133 32 176 98l-4 -84h89l10 547h-99l-10 -232c-7 -107 -60 -173 -157 -173c-81 0 -115 52 -122 155v250h-75z" />
    <glyph glyph-name="udieresis" unicode="&#xfc;" horiz-adv-x="609" 
d="M259 659v106h-107v-106h107zM463 659v106h-106v-106h106zM73 547v-331c0 -151 67 -230 192 -230c76 0 133 32 176 98l-4 -84h89l10 547h-99l-10 -232c-7 -107 -60 -173 -157 -173c-81 0 -115 52 -122 155v250h-75z" />
    <glyph glyph-name="yacute" unicode="&#xfd;" horiz-adv-x="679" 
d="M339 796l177 204h-107l-153 -204h83zM510 547l-148 -318l-194 318h-95l234 -502l-38 -77c-34 -42 -54 -67 -103 -67h-63v-119h82c80 0 126 24 190 167l230 598h-95z" />
    <glyph glyph-name="thorn" unicode="&#xfe;" horiz-adv-x="624" 
d="M225 -208v290c37 -65 94 -96 174 -96c133 0 225 115 225 287s-92 287 -225 287c-80 0 -137 -31 -174 -96v296h-91v-968h91zM530 273c0 -132 -57 -212 -153 -212c-95 0 -152 80 -152 212s57 212 152 212c96 0 153 -80 153 -212z" />
    <glyph glyph-name="ydieresis" unicode="&#xff;" horiz-adv-x="679" 
d="M247 659v106h-107v-106h107zM451 659v106h-106v-106h106zM510 547l-148 -318l-194 318h-95l234 -502l-38 -77c-34 -42 -54 -67 -103 -67h-63v-119h82c80 0 126 24 190 167l230 598h-95z" />
    <glyph glyph-name="Cacute" unicode="&#x106;" horiz-adv-x="734" 
d="M425 978l177 204h-107l-153 -204h83zM661 569v104c-68 46 -144 69 -232 69c-221 0 -356 -144 -356 -378s135 -378 356 -378c86 0 163 23 232 70v172c-66 -62 -141 -93 -226 -93c-166 0 -255 58 -258 229c0 193 92 297 258 297c85 0 160 -30 226 -92z" />
    <glyph glyph-name="cacute" unicode="&#x107;" horiz-adv-x="579" 
d="M353 796l177 204h-107l-153 -204h83zM506 447v79c-49 23 -103 34 -158 34c-170 0 -275 -109 -275 -287c0 -176 105 -287 269 -287c61 0 114 12 164 35l-2 141c-51 -28 -104 -21 -156 -21c-117 6 -166 38 -175 132c0 133 62 216 179 216c52 0 103 -14 154 -42z" />
    <glyph glyph-name="Ccaron" unicode="&#x10c;" horiz-adv-x="734" 
d="M538 982h-68l-88 -120l-88 120h-68l120 -184h72zM661 569v104c-68 46 -144 69 -232 69c-221 0 -356 -144 -356 -378s135 -378 356 -378c86 0 163 23 232 70v172c-66 -62 -141 -93 -226 -93c-166 0 -255 58 -258 229c0 193 92 297 258 297c85 0 160 -30 226 -92z" />
    <glyph glyph-name="ccaron" unicode="&#x10d;" horiz-adv-x="579" 
d="M466 800h-68l-88 -120l-88 120h-68l120 -184h72zM506 447v79c-49 23 -103 34 -158 34c-170 0 -275 -109 -275 -287c0 -176 105 -287 269 -287c61 0 114 12 164 35l-2 141c-51 -28 -104 -21 -156 -21c-117 6 -166 38 -175 132c0 133 62 216 179 216c52 0 103 -14 154 -42z
" />
    <glyph glyph-name="dcroat" unicode="&#x111;" horiz-adv-x="710" 
d="M472 627v-163c-37 65 -95 96 -175 96c-132 0 -224 -115 -224 -287s92 -287 224 -287c80 0 138 31 175 96v-82h90v627h75v61h-75v72h-90v-72h-159v-61h159zM166 294c0 119 58 191 153 191s153 -72 153 -191s-58 -191 -153 -191s-153 72 -153 191z" />
    <glyph glyph-name="Gbreve" unicode="&#x11e;" horiz-adv-x="783" 
d="M309 940h-58c7 -93 59 -140 153 -140s147 47 153 140h-58c-8 -49 -39 -73 -95 -73c-57 0 -88 24 -95 73zM598 261v-79c-24 -25 -83 -37 -153 -37c-178 0 -261 49 -268 229c0 197 90 297 268 297c91 0 173 -31 246 -93v95c-72 45 -159 69 -254 69
c-228 0 -364 -140 -364 -378s136 -378 364 -378c104 0 197 28 273 82v298h-269v-105h157z" />
    <glyph glyph-name="gbreve" unicode="&#x11f;" horiz-adv-x="645" 
d="M238 758h-58c7 -93 59 -140 153 -140s147 47 153 140h-58c-8 -49 -39 -73 -95 -73c-57 0 -88 24 -95 73zM482 547l-10 -83c-37 64 -95 96 -175 96c-134 0 -224 -111 -224 -280s90 -280 224 -280c80 0 140 37 170 82v-30c-13 -65 -63 -167 -181 -167
c-53 0 -104 13 -157 42v-160c53 -19 108 -29 171 -29c171 0 249 78 257 330l15 479h-90zM433 285c0 -129 -63 -139 -160 -139c-96 0 -133 10 -146 139c0 131 57 205 153 205c97 0 153 -74 153 -205z" />
    <glyph glyph-name="Idotaccent" unicode="&#x130;" horiz-adv-x="265" 
d="M187 840v100h-100v-100h100zM73 0h118c-13 243 -11 486 -14 729h-84c-5 -243 -5 -486 -20 -729z" />
    <glyph glyph-name="dotlessi" unicode="&#x131;" horiz-adv-x="261" 
d="M73 0h115c-21 199 -26 383 -20 547h-80c1 -172 -2 -355 -15 -547z" />
    <glyph glyph-name="Lslash" unicode="&#x141;" horiz-adv-x="710" 
d="M73 281l38 -54l72 52v-279h454v83h-355v264l192 134l-39 54l-153 -107v301h-99v-371z" />
    <glyph glyph-name="lslash" unicode="&#x142;" horiz-adv-x="302" 
d="M10 334l36 -52l60 43v-325h90v389l98 69l-37 52l-61 -44v294h-90v-357z" />
    <glyph glyph-name="OE" unicode="&#x152;" horiz-adv-x="1140" 
d="M1036 729h-512c-281 0 -429 -126 -429 -364c0 -240 148 -365 429 -365h520v137h-371v244h357v83h-357v202h363v63zM575 137h-63c-209 0 -313 112 -313 228c0 214 104 301 313 301h63v-529z" />
    <glyph glyph-name="oe" unicode="&#x153;" horiz-adv-x="1126" 
d="M1022 325v44c0 65 -92 191 -239 191c-93 0 -170 -37 -221 -107c-43 70 -112 107 -204 107c-156 0 -251 -107 -251 -287c0 -179 95 -287 251 -287c92 0 159 35 205 107c53 -71 132 -107 236 -107c69 0 138 14 202 42v114c-63 -34 -128 -51 -197 -51
c-119 0 -187 13 -195 234h413zM932 391l-320 -1c10 45 73 118 172 118c90 0 147 -77 148 -117zM358 499c96 0 156 -76 156 -195s-60 -194 -156 -194c-97 0 -156 74 -156 194c0 121 60 195 156 195z" />
    <glyph glyph-name="Scedilla" unicode="&#x15e;" horiz-adv-x="660" 
d="M586 201c0 -122 -71 -193 -209 -211c31 -36 45 -67 45 -95c0 -58 -39 -88 -116 -88c-30 0 -58 4 -86 12v64c22 -11 45 -16 76 -16c39 0 58 16 58 46c0 18 -11 41 -33 73h-14c-69 0 -147 15 -231 46v156c80 -45 157 -68 231 -68c113 0 176 55 176 98c0 39 -41 85 -141 105
l-60 12c-147 29 -209 88 -209 199c0 129 96 208 256 208c68 0 139 -12 213 -37v-96c-74 36 -140 53 -202 53c-107 0 -168 -43 -168 -120c0 -64 32 -93 140 -113l59 -12c147 -28 215 -97 215 -216z" />
    <glyph glyph-name="scedilla" unicode="&#x15f;" horiz-adv-x="564" 
d="M491 151c0 -85 -59 -143 -161 -160c30 -37 45 -67 45 -96c0 -58 -39 -88 -116 -88c-30 0 -58 4 -86 12v64c22 -11 45 -16 76 -16c39 0 58 16 58 46c0 18 -11 41 -33 73h-9c-58 0 -121 11 -192 34v132c67 -35 131 -52 194 -52c85 0 122 26 122 73c-11 20 -20 34 -28 43
c-7 9 -39 19 -95 32l-31 7c-111 23 -158 59 -158 144c0 103 76 161 210 161c67 0 126 -10 175 -29v-75c-51 25 -106 39 -164 39c-90 0 -139 -33 -139 -87c0 -49 29 -72 125 -93l31 -7c127 -27 176 -68 176 -157z" />
    <glyph glyph-name="Scaron" unicode="&#x160;" horiz-adv-x="660" 
d="M477 982h-68l-88 -120l-88 120h-68l120 -184h72zM542 609v96c-74 25 -145 37 -213 37c-160 0 -256 -79 -256 -208c0 -111 62 -170 209 -199l60 -12c100 -20 141 -66 141 -105c0 -43 -63 -98 -176 -98c-74 0 -151 23 -231 68v-156c84 -31 162 -46 231 -46
c183 0 279 74 279 215c0 119 -68 188 -215 216l-59 12c-108 20 -140 49 -140 113c0 77 61 120 168 120c62 0 128 -17 202 -53z" />
    <glyph glyph-name="scaron" unicode="&#x161;" horiz-adv-x="564" 
d="M430 800h-68l-88 -120l-88 120h-68l120 -184h72zM462 456v75c-49 19 -108 29 -175 29c-134 0 -210 -58 -210 -161c0 -85 47 -121 158 -144l31 -7c56 -13 88 -23 95 -32c8 -9 17 -23 28 -43c0 -47 -37 -73 -122 -73c-63 0 -127 17 -194 52v-132c71 -23 134 -34 192 -34
c141 0 226 63 226 165c0 89 -49 130 -176 157l-31 7c-96 21 -125 44 -125 93c0 54 49 87 139 87c58 0 113 -14 164 -39z" />
    <glyph glyph-name="Ydieresis" unicode="&#x178;" horiz-adv-x="761" 
d="M331 841v106h-107v-106h107zM535 841v106h-106v-106h106zM312 0h133v250l243 479h-106l-201 -373l-202 373h-106l239 -479v-250z" />
    <glyph glyph-name="Zcaron" unicode="&#x17d;" horiz-adv-x="742" 
d="M549 982h-68l-88 -120l-88 120h-68l120 -184h72zM534 646l-461 -507v-139h595v146h-472l461 508v75h-573v-83h450z" />
    <glyph glyph-name="zcaron" unicode="&#x17e;" horiz-adv-x="590" 
d="M474 800h-68l-88 -120l-88 120h-68l120 -184h72zM421 480l-348 -349v-131h439v121h-304l309 344v82h-422v-67h326z" />
    <glyph glyph-name="florin" unicode="&#x192;" horiz-adv-x="757" 
d="M684 672v70c-30 12 -62 18 -97 18c-98 0 -165 -66 -188 -185l-31 -161l-136 -10v-70l121 10l-38 -261c-22 -108 -54 -148 -117 -148c-31 0 -62 11 -95 32l-30 -154c31 -14 63 -21 100 -21c121 0 198 6 241 315l32 237l155 10v70l-140 -10l29 162c16 86 52 124 115 124
c29 0 54 -9 79 -28z" />
    <glyph glyph-name="circumflex" unicode="&#x2c6;" horiz-adv-x="458" 
d="M141 616l88 120l88 -120h68l-120 184h-72l-120 -184h68z" />
    <glyph glyph-name="caron" unicode="&#x2c7;" horiz-adv-x="458" 
d="M385 800h-68l-88 -120l-88 120h-68l120 -184h72z" />
    <glyph glyph-name="breve" unicode="&#x2d8;" horiz-adv-x="452" 
d="M131 785h-58c7 -93 59 -140 153 -140s147 47 153 140h-58c-8 -49 -39 -73 -95 -73c-57 0 -88 24 -95 73z" />
    <glyph glyph-name="dotaccent" unicode="&#x2d9;" horiz-adv-x="246" 
d="M173 658v100h-100v-100h100z" />
    <glyph glyph-name="ring" unicode="&#x2da;" horiz-adv-x="414" 
d="M341 744c0 75 -59 134 -134 134s-134 -59 -134 -134s59 -134 134 -134s134 59 134 134zM281 744c0 -41 -32 -74 -74 -74s-74 32 -74 74s32 74 74 74s74 -33 74 -74z" />
    <glyph glyph-name="ogonek" unicode="&#x2db;" horiz-adv-x="329" 
d="M184 0h-58c-36 -41 -53 -74 -53 -105c0 -61 36 -88 116 -88c19 0 41 4 66 10v65c-20 -10 -40 -15 -61 -15c-35 0 -53 15 -53 45c0 20 14 48 43 88z" />
    <glyph glyph-name="tilde" unicode="&#x2dc;" horiz-adv-x="469" 
d="M205 696l27 -27c24 -22 43 -30 68 -30c59 0 94 50 96 138h-62c0 -27 -3 -46 -9 -58s-15 -18 -28 -18c-8 0 -19 6 -33 19l-28 27c-24 22 -43 30 -68 30c-59 0 -93 -50 -95 -138h61c1 27 4 46 10 58s15 18 27 18c9 0 19 -6 34 -19z" />
    <glyph glyph-name="hungarumlaut" unicode="&#x2dd;" horiz-adv-x="489" 
d="M140 616l109 184h-83l-93 -184h67zM295 616l121 184h-87l-100 -184h66z" />
    <glyph glyph-name="pi" unicode="&#x3c0;" horiz-adv-x="745" 
d="M671 523h-434c-107 0 -146 -34 -164 -142h78c6 51 25 70 60 70h20l-134 -451h142l80 451h160l-54 -189c-18 -52 -28 -90 -31 -114c-4 -23 -6 -42 -6 -57c0 -65 65 -133 141 -133c17 0 35 2 54 8l15 103c-24 -4 -37 -5 -49 -5c-35 0 -49 15 -49 52c0 8 1 18 3 33
c3 16 6 35 11 59l51 243h89z" />
    <glyph glyph-name="endash" unicode="&#x2013;" horiz-adv-x="646" 
d="M573 239v70h-500v-70h500z" />
    <glyph glyph-name="emdash" unicode="&#x2014;" horiz-adv-x="1146" 
d="M1073 239v70h-1000v-70h1000z" />
    <glyph glyph-name="quoteleft" unicode="&#x2018;" horiz-adv-x="302" 
d="M249 742h-78l-98 -192v-104h127v104z" />
    <glyph glyph-name="quoteright" unicode="&#x2019;" horiz-adv-x="288" 
d="M73 458h76l98 189v90h-125v-90z" />
    <glyph glyph-name="quotesinglbase" unicode="&#x201a;" horiz-adv-x="290" 
d="M73 -116h63l80 156v84h-103v-84z" />
    <glyph glyph-name="quotedblleft" unicode="&#x201c;" horiz-adv-x="573" 
d="M251 729h-78l-100 -194v-105h128v105zM500 729h-78l-100 -194v-105h128v105z" />
    <glyph glyph-name="quotedblright" unicode="&#x201d;" horiz-adv-x="545" 
d="M73 450h73l94 181v98h-120v-98zM306 450h73l93 181v98h-119v-98z" />
    <glyph glyph-name="quotedblbase" unicode="&#x201e;" horiz-adv-x="578" 
d="M73 -116h79l101 196v106h-129v-106zM325 -116h79l100 196v106h-129v-106z" />
    <glyph glyph-name="dagger" unicode="&#x2020;" horiz-adv-x="591" 
d="M73 524v-75h179v-545h86v545h180v75h-180v205h-86v-205h-179z" />
    <glyph glyph-name="daggerdbl" unicode="&#x2021;" horiz-adv-x="591" 
d="M348 184l-10 265h180v75h-180v205h-86v-205h-179v-75h179l-9 -265h-170v-109h160l-10 -171h145l-10 171h160v109h-170z" />
    <glyph glyph-name="bullet" unicode="&#x2022;" horiz-adv-x="437" 
d="M73 372c0 -81 64 -145 145 -145c82 0 145 64 145 145s-63 144 -144 144c-82 0 -146 -63 -146 -144z" />
    <glyph glyph-name="ellipsis" unicode="&#x2026;" horiz-adv-x="970" 
d="M231 0v178h-158v-178h158zM563 0v178h-157v-178h157zM896 0v178h-157v-178h157z" />
    <glyph glyph-name="perthousand" unicode="&#x2030;" horiz-adv-x="1378" 
d="M241 742c-103 0 -168 -77 -168 -198c0 -123 65 -199 168 -199c104 0 169 76 169 199c0 122 -66 198 -169 198zM304 -14l456 756h-78l-490 -756h112zM241 680c56 0 91 -40 91 -106c0 -67 -34 -107 -91 -107c-56 0 -90 40 -90 107c0 66 34 106 90 106zM745 383
c-103 0 -169 -76 -169 -199c0 -121 65 -198 169 -198c102 0 168 77 168 198c0 122 -65 199 -168 199zM1137 383c-103 0 -169 -76 -169 -199c0 -121 65 -198 169 -198c102 0 168 77 168 198c0 122 -65 199 -168 199zM745 321c55 0 90 -37 90 -98c0 -60 -35 -98 -90 -98
c-57 0 -91 38 -91 98c0 61 34 98 91 98zM1137 321c55 0 90 -37 90 -98c0 -60 -35 -98 -90 -98c-56 0 -91 38 -91 98c0 61 35 98 91 98z" />
    <glyph glyph-name="guilsinglleft" unicode="&#x2039;" horiz-adv-x="375" 
d="M73 273l229 -204v93l-147 131l147 131v93l-229 -204v-40z" />
    <glyph glyph-name="guilsinglright" unicode="&#x203a;" horiz-adv-x="375" 
d="M220 293l-147 -131v-93l229 204v40l-229 204v-93z" />
    <glyph glyph-name="fraction" unicode="&#x2044;" horiz-adv-x="680" 
d="M151 -14l455 756h-78l-455 -756h78z" />
    <glyph glyph-name="trademark" unicode="&#x2122;" horiz-adv-x="801" 
d="M73 683h98l-14 -236h85l-15 236h99v46h-253v-46zM367 447h85l-15 236l89 -211h47l85 211l-14 -236h84l-10 282h-83l-85 -159l-80 159h-84z" />
    <glyph glyph-name="Omega" unicode="&#x2126;" horiz-adv-x="834" 
d="M761 116h-156c105 92 148 153 148 279c0 201 -139 343 -336 343c-199 0 -336 -141 -336 -348c0 -119 45 -183 148 -274h-156v-116h293v116c-116 37 -184 148 -184 279c0 188 94 283 235 283s234 -94 234 -283c0 -131 -68 -242 -183 -279v-116h293v116z" />
    <glyph glyph-name="partialdiff" unicode="&#x2202;" horiz-adv-x="565" 
d="M392 303c-25 63 -66 92 -132 92c-105 0 -187 -93 -187 -222c0 -106 74 -185 174 -185c138 0 245 161 245 379c0 172 -75 280 -193 280c-66 0 -119 -38 -119 -78c0 -20 8 -22 31 -22c12 0 20 6 26 18c5 13 38 20 98 24c47 0 71 -43 71 -127c0 -49 -5 -102 -14 -159z
M349 263c0 -114 -57 -194 -135 -194c-58 0 -90 35 -90 100c0 115 57 194 135 194c57 0 90 -36 90 -100z" />
    <glyph glyph-name="Delta" unicode="&#x2206;" horiz-adv-x="821" 
d="M748 0l-283 719h-109l-283 -719h675zM206 146l204 529l204 -529h-408z" />
    <glyph glyph-name="product" unicode="&#x220f;" horiz-adv-x="750" 
d="M224 -192l-44 811h370l10 -811h151l-44 911h-604l10 -911h151z" />
    <glyph glyph-name="summation" unicode="&#x2211;" horiz-adv-x="788" 
d="M525 272l-452 -352v-112h642v133h-492l437 334l-426 370h468v74h-614v-67z" />
    <glyph glyph-name="minus" unicode="&#x2212;" horiz-adv-x="772" 
d="M699 272v83h-626v-83h626z" />
    <glyph glyph-name="middot.001" unicode="&#x2219;" horiz-adv-x="279" 
d="M206 285v160h-133v-160h133z" />
    <glyph glyph-name="radical" unicode="&#x221a;" horiz-adv-x="754" 
d="M211 476l-138 -48l12 -39l61 22l156 -431h32l291 784h56v47h-93l-252 -681z" />
    <glyph glyph-name="infinity" unicode="&#x221e;" horiz-adv-x="765" 
d="M387 236c51 -90 96 -126 157 -126c88 0 147 76 147 190c0 109 -69 191 -157 191c-63 0 -113 -41 -158 -131c-46 90 -94 129 -156 129c-87 0 -147 -77 -147 -191c0 -108 69 -190 157 -190c62 0 112 40 157 128zM412 317c48 105 88 145 141 145c58 0 101 -49 101 -115
c0 -68 -46 -117 -112 -117c-54 0 -98 30 -130 87zM353 315c-48 -105 -88 -101 -142 -101c-58 0 -101 49 -101 115c0 69 46 116 112 116c55 0 99 -72 131 -130z" />
    <glyph glyph-name="integral" unicode="&#x222b;" horiz-adv-x="621" 
d="M202 -128c-6 0 -10 7 -12 21c-1 13 -3 23 -7 28c-10 18 -25 28 -47 28c-39 0 -63 -21 -63 -58c0 -42 37 -72 88 -72c64 0 111 34 142 101s49 179 54 335c2 36 3 85 4 148c5 201 25 302 59 302c6 0 9 -6 11 -17c1 -12 3 -21 5 -25c7 -23 26 -36 53 -36c36 0 58 22 58 57
c0 43 -35 73 -88 73c-65 0 -114 -36 -145 -109c-30 -72 -48 -192 -52 -359c0 -19 -1 -46 -1 -81c-5 -224 -24 -336 -59 -336z" />
    <glyph glyph-name="approxequal" unicode="&#x2248;" horiz-adv-x="772" 
d="M699 407v87c-67 -55 -118 -78 -175 -78c-30 0 -71 10 -121 30l-11 4c-1 1 -4 2 -7 3c-48 19 -90 30 -126 34c-63 0 -117 -21 -186 -72v-87c64 54 118 78 175 78c31 0 71 -12 122 -35l10 -4c2 -1 5 -2 8 -3c48 -19 90 -29 125 -29c63 0 118 21 186 72zM699 217v87
c-67 -55 -118 -78 -175 -78c-30 0 -71 10 -121 30l-10 4c-2 0 -5 2 -8 3c-48 19 -90 30 -126 34c-63 0 -117 -21 -186 -72v-87c64 54 118 78 175 78c31 0 71 -12 122 -35l10 -4c2 -1 5 -2 8 -3c48 -19 90 -29 125 -29c63 0 118 21 186 72z" />
    <glyph glyph-name="notequal" unicode="&#x2260;" horiz-adv-x="772" 
d="M382 372l-95 -117h-214v-83h146l-85 -103l61 -50l126 153h378v83h-310l95 117h215v82h-148l85 104l-61 50l-125 -154h-377v-82h309z" />
    <glyph glyph-name="lessequal" unicode="&#x2264;" horiz-adv-x="772" 
d="M73 403v-83l626 -180v87l-469 134l469 135v86zM699 0v83h-626v-83h626z" />
    <glyph glyph-name="greaterequal" unicode="&#x2265;" horiz-adv-x="772" 
d="M73 227v-87l626 180v83l-626 179v-86l469 -135zM73 0h626v83h-626v-83z" />
    <glyph glyph-name="lozenge" unicode="&#x25ca;" horiz-adv-x="635" 
d="M317 -233l245 522l-245 518l-244 -518zM317 13l-188 276l188 399l188 -399z" />
    <glyph glyph-name="c6459" horiz-adv-x="437" 
d="M172 632v99h-99v-99h99zM363 632v99h-99v-99h99z" />
    <glyph glyph-name="c6460" horiz-adv-x="333" 
d="M148 616l111 129h-90l-96 -129h75z" />
    <glyph glyph-name="c6461" horiz-adv-x="469" 
d="M205 669l27 -16c34 -18 49 -21 71 -21c55 0 91 42 93 107h-62v-3c0 -27 -14 -45 -35 -45c-9 0 -20 4 -35 12l-28 15c-31 17 -47 21 -70 21c-57 0 -93 -41 -93 -107h61v3c0 29 14 46 37 46c8 0 17 -3 34 -12z" />
    <glyph glyph-name="c6462" horiz-adv-x="333" 
d="M186 616h74l-95 129h-92z" />
    <glyph glyph-name="c6463" horiz-adv-x="444" 
d="M141 616l81 87l81 -87h68l-103 130h-92l-103 -130h68z" />
    <glyph glyph-name="c6466" horiz-adv-x="444" 
d="M371 746h-68l-81 -87l-81 87h-68l103 -130h92z" />
    <glyph glyph-name="c6467" horiz-adv-x="485" 
d="M73 417h202v-91h71v91h66v53h-66v264h-81l-192 -258v-59zM125 470l150 205v-205h-150z" />
    <glyph glyph-name="c6468" horiz-adv-x="452" 
d="M131 746h-58c7 -78 59 -118 153 -118c93 0 147 40 153 118h-58c-10 -37 -42 -54 -95 -54c-54 0 -87 19 -95 54z" />
    <glyph glyph-name="c6469" horiz-adv-x="246" 
d="M173 632v100h-100v-100h100z" />
    <glyph glyph-name="glyph268" horiz-adv-x="0" 
 />
    <glyph glyph-name="Abreve" unicode="&#x102;" horiz-adv-x="814" 
d="M318 892h-58c7 -93 59 -140 153 -140s147 47 153 140h-58c-8 -49 -39 -73 -95 -73c-57 0 -88 24 -95 73zM207 0l37 119h328l28 -119h141l-287 729h-93l-288 -729h134zM273 235l134 404l135 -404h-269z" />
    <glyph glyph-name="Abreveacute" unicode="&#x1eae;" horiz-adv-x="814" 
d="M456 930l177 204h-107l-153 -204h83zM318 892h-58c7 -93 59 -140 153 -140s147 47 153 140h-58c-8 -49 -39 -73 -95 -73c-57 0 -88 24 -95 73zM207 0l37 119h328l28 -119h141l-287 729h-93l-288 -729h134zM273 235l134 404l135 -404h-269z" />
    <glyph glyph-name="Abrevedotbelow" unicode="&#x1eb6;" horiz-adv-x="814" 
d="M318 892h-58c7 -93 59 -140 153 -140s147 47 153 140h-58c-8 -49 -39 -73 -95 -73c-57 0 -88 24 -95 73zM207 0l37 119h328l28 -119h141l-287 729h-93l-288 -729h134zM273 235l134 404l135 -404h-269zM451 -146v108h-100v-108h100z" />
    <glyph glyph-name="Abrevegrave" unicode="&#x1eb0;" horiz-adv-x="814" 
d="M353 939h133l-138 183h-96zM318 892h-58c7 -93 59 -140 153 -140s147 47 153 140h-58c-8 -49 -39 -73 -95 -73c-57 0 -88 24 -95 73zM207 0l37 119h328l28 -119h141l-287 729h-93l-288 -729h134zM273 235l134 404l135 -404h-269z" />
    <glyph glyph-name="Abrevehookabove" unicode="&#x1eb2;" horiz-adv-x="814" 
d="M358 950v-21c16 8 30 13 45 13c23 0 32 -8 32 -14s-4 -12 -11 -17l-11 -9c-8 -6 -13 -10 -16 -15c-2 -4 -3 -10 -3 -16v-3h28c0 5 1 9 2 12c1 1 3 4 9 8l11 7c14 11 21 21 21 31s-6 19 -16 26c-10 6 -23 10 -40 10c-16 0 -33 -4 -51 -12zM318 892h-58
c7 -93 59 -140 153 -140s147 47 153 140h-58c-8 -49 -39 -73 -95 -73c-57 0 -88 24 -95 73zM207 0l37 119h328l28 -119h141l-287 729h-93l-288 -729h134zM273 235l134 404l135 -404h-269z" />
    <glyph glyph-name="Abrevetilde" unicode="&#x1eb4;" horiz-adv-x="814" 
d="M384 977l27 -27c24 -22 43 -30 68 -30c59 0 94 50 96 138h-62c0 -27 -3 -46 -9 -58s-15 -18 -28 -18c-8 0 -19 6 -33 19l-28 27c-24 22 -43 30 -68 30c-59 0 -93 -50 -95 -138h61c1 27 4 46 10 58s15 18 27 18c9 0 19 -6 34 -19zM318 892h-58c7 -93 59 -140 153 -140
s147 47 153 140h-58c-8 -49 -39 -73 -95 -73c-57 0 -88 24 -95 73zM207 0l37 119h328l28 -119h141l-287 729h-93l-288 -729h134zM273 235l134 404l135 -404h-269z" />
    <glyph glyph-name="Acaron" unicode="&#x1cd;" horiz-adv-x="814" 
d="M569 934h-68l-88 -120l-88 120h-68l120 -184h72zM207 0l37 119h328l28 -119h141l-287 729h-93l-288 -729h134zM273 235l134 404l135 -404h-269z" />
    <glyph glyph-name="Acircumflexacute" unicode="&#x1ea4;" horiz-adv-x="814" 
d="M456 930l177 204h-107l-153 -204h83zM325 733l88 120l88 -120h68l-120 184h-72l-120 -184h68zM207 0l37 119h328l28 -119h141l-287 729h-93l-288 -729h134zM273 235l134 404l135 -404h-269z" />
    <glyph glyph-name="Acircumflexdotbelow" unicode="&#x1eac;" horiz-adv-x="814" 
d="M325 733l88 120l88 -120h68l-120 184h-72l-120 -184h68zM207 0l37 119h328l28 -119h141l-287 729h-93l-288 -729h134zM273 235l134 404l135 -404h-269zM451 -146v108h-100v-108h100z" />
    <glyph glyph-name="Acircumflexgrave" unicode="&#x1ea6;" horiz-adv-x="814" 
d="M353 939h133l-138 183h-96zM325 733l88 120l88 -120h68l-120 184h-72l-120 -184h68zM207 0l37 119h328l28 -119h141l-287 729h-93l-288 -729h134zM273 235l134 404l135 -404h-269z" />
    <glyph glyph-name="Acircumflexhookabove" unicode="&#x1ea8;" horiz-adv-x="814" 
d="M325 733l88 120l88 -120h68l-120 184h-72l-120 -184h68zM556 876v-21c16 8 30 13 45 13c23 0 32 -8 32 -14s-4 -12 -11 -17l-11 -9c-8 -6 -13 -10 -16 -15c-2 -4 -3 -10 -3 -16v-3h28c0 5 1 9 2 12c1 1 3 4 9 8l11 7c14 11 21 21 21 31s-6 19 -16 26c-10 6 -23 10 -40 10
c-16 0 -33 -4 -51 -12zM207 0l37 119h328l28 -119h141l-287 729h-93l-288 -729h134zM273 235l134 404l135 -404h-269z" />
    <glyph glyph-name="Acircumflextilde" unicode="&#x1eaa;" horiz-adv-x="814" 
d="M384 977l27 -27c24 -22 43 -30 68 -30c59 0 94 50 96 138h-62c0 -27 -3 -46 -9 -58s-15 -18 -28 -18c-8 0 -19 6 -33 19l-28 27c-24 22 -43 30 -68 30c-59 0 -93 -50 -95 -138h61c1 27 4 46 10 58s15 18 27 18c9 0 19 -6 34 -19zM325 733l88 120l88 -120h68l-120 184h-72
l-120 -184h68zM207 0l37 119h328l28 -119h141l-287 729h-93l-288 -729h134zM273 235l134 404l135 -404h-269z" />
    <glyph glyph-name="Adieresismacron" unicode="&#x1de;" horiz-adv-x="814" 
d="M267 793h-10v106h107v-59h98v59h106v-106h-9v-25h-292v25zM741 0h-141l-28 119h-328l-37 -119h-134l288 729h93zM542 235l-135 404l-134 -404h269z" />
    <glyph glyph-name="Adotbelow" unicode="&#x1ea0;" horiz-adv-x="814" 
d="M207 0l37 119h328l28 -119h141l-287 729h-93l-288 -729h134zM273 235l134 404l135 -404h-269zM451 -146v108h-100v-108h100z" />
    <glyph glyph-name="Ahookabove" unicode="&#x1ea2;" horiz-adv-x="814" 
d="M355 842v-21c16 8 30 13 45 13c23 0 32 -8 32 -14s-4 -12 -11 -17l-11 -9c-8 -6 -13 -10 -16 -15c-2 -4 -3 -10 -3 -16v-3h28c0 5 1 9 2 12c1 1 3 4 9 8l11 7c14 11 21 21 21 31s-6 19 -16 26c-10 6 -23 10 -40 10c-16 0 -33 -4 -51 -12zM207 0l37 119h328l28 -119h141
l-287 729h-93l-288 -729h134zM273 235l134 404l135 -404h-269z" />
    <glyph glyph-name="Amacron" unicode="&#x100;" horiz-adv-x="814" 
d="M559 768v72h-292v-72h292zM207 0l37 119h328l28 -119h141l-287 729h-93l-288 -729h134zM273 235l134 404l135 -404h-269z" />
    <glyph glyph-name="Aogonek" unicode="&#x104;" horiz-adv-x="814" 
d="M626 -88c0 -30 18 -45 53 -45c21 0 41 5 61 15v-65c-25 -6 -47 -10 -66 -10c-80 0 -116 27 -116 88c0 31 17 64 53 105h-11l-28 119h-328l-37 -119h-134l288 729h93l287 -729h-72c-29 -40 -43 -68 -43 -88zM542 235l-135 404l-134 -404h269z" />
    <glyph glyph-name="Bdotbelow" unicode="&#x1e04;" horiz-adv-x="673" 
d="M73 0h262c164 0 265 74 265 204c0 99 -58 168 -187 189c80 13 123 66 123 156c0 115 -85 180 -235 180h-228v-729zM172 663h146c96 0 143 -51 143 -125s-47 -110 -143 -110h-146v235zM172 348h158c53 0 92 -11 118 -32c26 -22 38 -41 38 -57c0 -91 -50 -114 -156 -114
h-158v203zM347 -146v108h-100v-108h100z" />
    <glyph glyph-name="Cdotaccent" unicode="&#x10a;" horiz-adv-x="734" 
d="M432 840v100h-100v-100h100zM661 569v104c-68 46 -144 69 -232 69c-221 0 -356 -144 -356 -378s135 -378 356 -378c86 0 163 23 232 70v172c-66 -62 -141 -93 -226 -93c-166 0 -255 58 -258 229c0 193 92 297 258 297c85 0 160 -30 226 -92z" />
    <glyph glyph-name="Dcaron" unicode="&#x10e;" horiz-adv-x="759" 
d="M510 982h-68l-88 -120l-88 120h-68l120 -184h72zM73 0h203c281 0 410 114 410 365c0 250 -127 364 -410 364h-203v-729zM177 648h119c201 0 289 -91 289 -273c-15 -149 -88 -191 -289 -191h-119v464z" />
    <glyph glyph-name="Dcircumflexbelow" unicode="&#x1e12;" horiz-adv-x="759" 
d="M73 0h203c281 0 410 114 410 365c0 250 -127 364 -410 364h-203v-729zM177 648h119c201 0 289 -91 289 -273c-15 -149 -88 -191 -289 -191h-119v464zM225 -220l88 120l88 -120h68l-120 184h-72l-120 -184h68z" />
    <glyph glyph-name="Dcroat" unicode="&#x110;" horiz-adv-x="759" 
d="M500 816v72h-292v-72h292zM73 0h203c281 0 410 114 410 365c0 250 -127 364 -410 364h-203v-729zM177 648h119c201 0 289 -91 289 -273c-15 -149 -88 -191 -289 -191h-119v464z" />
    <glyph glyph-name="Ddotbelow" unicode="&#x1e0c;" horiz-adv-x="759" 
d="M73 0h203c281 0 410 114 410 365c0 250 -127 364 -410 364h-203v-729zM177 648h119c201 0 289 -91 289 -273c-15 -149 -88 -191 -289 -191h-119v464zM386 -146v108h-100v-108h100z" />
    <glyph glyph-name="Dlinebelow" unicode="&#x1e0e;" horiz-adv-x="759" 
d="M73 0h203c281 0 410 114 410 365c0 250 -127 364 -410 364h-203v-729zM177 648h119c201 0 289 -91 289 -273c-15 -149 -88 -191 -289 -191h-119v464zM415 -121l4 81l-263 -5l-4 -80z" />
    <glyph glyph-name="Ecaron" unicode="&#x11a;" horiz-adv-x="616" 
d="M448 958h-68l-88 -120l-88 120h-68l120 -184h72zM543 0v151h-371v196h347v83h-347v216h362v83h-461v-729h470z" />
    <glyph glyph-name="uni0228" unicode="&#x228;" horiz-adv-x="616" 
d="M543 0h-163c36 -41 53 -74 53 -105c0 -58 -39 -88 -116 -88c-30 0 -58 4 -86 12v64c22 -11 45 -16 76 -16c39 0 58 16 58 46c0 20 -14 47 -43 87h-249v729h461v-83h-362v-216h347v-83h-347v-196h371v-151z" />
    <glyph glyph-name="Ecircumflexacute" unicode="&#x1ebe;" horiz-adv-x="616" 
d="M335 954l177 204h-107l-153 -204h83zM204 757l88 120l88 -120h68l-120 184h-72l-120 -184h68zM543 0v151h-371v196h347v83h-347v216h362v83h-461v-729h470z" />
    <glyph glyph-name="Ecircumflexdotbelow" unicode="&#x1ec6;" horiz-adv-x="616" 
d="M204 757l88 120l88 -120h68l-120 184h-72l-120 -184h68zM543 0v151h-371v196h347v83h-347v216h362v83h-461v-729h470zM362 -146v108h-100v-108h100z" />
    <glyph glyph-name="Ecircumflexgrave" unicode="&#x1ec0;" horiz-adv-x="616" 
d="M232 963h133l-138 183h-96zM204 757l88 120l88 -120h68l-120 184h-72l-120 -184h68zM543 0v151h-371v196h347v83h-347v216h362v83h-461v-729h470z" />
    <glyph glyph-name="Ecircumflexhookabove" unicode="&#x1ec2;" horiz-adv-x="616" 
d="M204 757l88 120l88 -120h68l-120 184h-72l-120 -184h68zM425 895v-21c16 8 30 13 45 13c23 0 32 -8 32 -14s-4 -12 -11 -17l-11 -9c-8 -6 -13 -10 -16 -15c-2 -4 -3 -10 -3 -16v-3h28c0 5 1 9 2 12c1 1 3 4 9 8l11 7c14 11 21 21 21 31s-6 19 -16 26c-10 6 -23 10 -40 10
c-16 0 -33 -4 -51 -12zM543 0v151h-371v196h347v83h-347v216h362v83h-461v-729h470z" />
    <glyph glyph-name="Ecircumflextilde" unicode="&#x1ec4;" horiz-adv-x="616" 
d="M263 1001l27 -27c24 -22 43 -30 68 -30c59 0 94 50 96 138h-62c0 -27 -3 -46 -9 -58s-15 -18 -28 -18c-8 0 -19 6 -33 19l-28 27c-24 22 -43 30 -68 30c-59 0 -93 -50 -95 -138h61c1 27 4 46 10 58s15 18 27 18c9 0 19 -6 34 -19zM204 757l88 120l88 -120h68l-120 184
h-72l-120 -184h68zM543 0v151h-371v196h347v83h-347v216h362v83h-461v-729h470z" />
    <glyph glyph-name="Edotaccent" unicode="&#x116;" horiz-adv-x="616" 
d="M342 816v100h-100v-100h100zM543 0v151h-371v196h347v83h-347v216h362v83h-461v-729h470z" />
    <glyph glyph-name="Edotbelow" unicode="&#x1eb8;" horiz-adv-x="616" 
d="M543 0v151h-371v196h347v83h-347v216h362v83h-461v-729h470zM362 -146v108h-100v-108h100z" />
    <glyph glyph-name="Ehookabove" unicode="&#x1eba;" horiz-adv-x="616" 
d="M254 850v-21c16 8 30 13 45 13c23 0 32 -8 32 -14s-4 -12 -11 -17l-11 -9c-8 -6 -13 -10 -16 -15c-2 -4 -3 -10 -3 -16v-3h28c0 5 1 9 2 12c1 1 3 4 9 8l11 7c14 11 21 21 21 31s-6 19 -16 26c-10 6 -23 10 -40 10c-16 0 -33 -4 -51 -12zM543 0v151h-371v196h347v83h-347
v216h362v83h-461v-729h470z" />
    <glyph glyph-name="Emacron" unicode="&#x112;" horiz-adv-x="616" 
d="M438 792v72h-292v-72h292zM543 0v151h-371v196h347v83h-347v216h362v83h-461v-729h470z" />
    <glyph glyph-name="Eogonek" unicode="&#x118;" horiz-adv-x="616" 
d="M543 0h-179c-29 -40 -43 -68 -43 -88c0 -30 18 -45 53 -45c21 0 41 5 61 15v-65c-25 -6 -47 -10 -66 -10c-80 0 -116 27 -116 88c0 31 17 64 53 105h-233v729h461v-83h-362v-216h347v-83h-347v-196h371v-151z" />
    <glyph glyph-name="Etilde" unicode="&#x1ebc;" horiz-adv-x="616" 
d="M263 1001l27 -27c24 -22 43 -30 68 -30c59 0 94 50 96 138h-62c0 -27 -3 -46 -9 -58s-15 -18 -28 -18c-8 0 -19 6 -33 19l-28 27c-24 22 -43 30 -68 30c-59 0 -93 -50 -95 -138h61c1 27 4 46 10 58s15 18 27 18c9 0 19 -6 34 -19zM543 0v151h-371v196h347v83h-347v216
h362v83h-461v-729h470z" />
    <glyph glyph-name="Gcaron" unicode="&#x1e6;" horiz-adv-x="783" 
d="M560 982h-68l-88 -120l-88 120h-68l120 -184h72zM598 261v-79c-24 -25 -83 -37 -153 -37c-178 0 -261 49 -268 229c0 197 90 297 268 297c91 0 173 -31 246 -93v95c-72 45 -159 69 -254 69c-228 0 -364 -140 -364 -378s136 -378 364 -378c104 0 197 28 273 82v298h-269
v-105h157z" />
    <glyph glyph-name="Gcommaaccent" unicode="&#x122;" horiz-adv-x="783" 
d="M598 261v-79c-24 -25 -83 -37 -153 -37c-178 0 -261 49 -268 229c0 197 90 297 268 297c91 0 173 -31 246 -93v95c-72 45 -159 69 -254 69c-228 0 -364 -140 -364 -378s136 -378 364 -378c104 0 197 28 273 82v298h-269v-105h157zM309 -336h63l110 157v103h-123v-103z
" />
    <glyph glyph-name="Gdotaccent" unicode="&#x120;" horiz-adv-x="783" 
d="M454 840v100h-100v-100h100zM598 261v-79c-24 -25 -83 -37 -153 -37c-178 0 -261 49 -268 229c0 197 90 297 268 297c91 0 173 -31 246 -93v95c-72 45 -159 69 -254 69c-228 0 -364 -140 -364 -378s136 -378 364 -378c104 0 197 28 273 82v298h-269v-105h157z" />
    <glyph glyph-name="Hbar" unicode="&#x126;" horiz-adv-x="712" 
d="M632 542l7 -542h-114v245h-338v-245h-114l7 542h-62l4 70h59l2 117h104v-117h338v117h104l2 -117h57l5 -70h-61zM525 542h-338v-161h338v161z" />
    <glyph glyph-name="Hdotbelow" unicode="&#x1e24;" horiz-adv-x="712" 
d="M187 0v245h338v-245h114l-10 729h-104v-348h-338v348h-104l-10 -729h114zM393 -146v108h-100v-108h100z" />
    <glyph glyph-name="IJ" unicode="&#x132;" horiz-adv-x="668" 
d="M491 730l-26 -693c-1 -41 -39 -88 -126 -92l-50 11l2 -161l57 -6c155 3 217 66 221 242l26 692zM73 0h118c-13 243 -11 486 -14 729h-84c-5 -243 -5 -486 -20 -729z" />
    <glyph glyph-name="Icaron" unicode="&#x1cf;" horiz-adv-x="265" 
d="M293 982h-68l-88 -120l-88 120h-68l120 -184h72zM73 0h118c-13 243 -11 486 -14 729h-84c-5 -243 -5 -486 -20 -729z" />
    <glyph glyph-name="Idieresisacute" unicode="&#x1e2e;" horiz-adv-x="265" 
d="M180 978l177 204h-107l-153 -204h83zM88 841v106h-107v-106h107zM292 841v106h-106v-106h106zM73 0h118c-13 243 -11 486 -14 729h-84c-5 -243 -5 -486 -20 -729z" />
    <glyph glyph-name="Idotbelow" unicode="&#x1eca;" horiz-adv-x="265" 
d="M73 0h118c-13 243 -11 486 -14 729h-84c-5 -243 -5 -486 -20 -729zM181 -146v108h-100v-108h100z" />
    <glyph glyph-name="Ihookabove" unicode="&#x1ec8;" horiz-adv-x="265" 
d="M82 850v-21c16 8 30 13 45 13c23 0 32 -8 32 -14s-4 -12 -11 -17l-11 -9c-8 -6 -13 -10 -16 -15c-2 -4 -3 -10 -3 -16v-3h28c0 5 1 9 2 12c1 1 3 4 9 8l11 7c14 11 21 21 21 31s-6 19 -16 26c-10 6 -23 10 -40 10c-16 0 -33 -4 -51 -12zM73 0h118
c-13 243 -11 486 -14 729h-84c-5 -243 -5 -486 -20 -729z" />
    <glyph glyph-name="Imacron" unicode="&#x12a;" horiz-adv-x="265" 
d="M283 816v72h-292v-72h292zM73 0h118c-13 243 -11 486 -14 729h-84c-5 -243 -5 -486 -20 -729z" />
    <glyph glyph-name="Iogonek" unicode="&#x12e;" horiz-adv-x="265" 
d="M176 -133c21 0 41 5 61 15v-65c-25 -6 -47 -10 -66 -10c-80 0 -116 27 -116 88c0 31 17 64 53 105h-35c15 243 15 486 20 729h84c3 -243 1 -486 14 -729h-25c-29 -40 -43 -68 -43 -88c0 -30 18 -45 53 -45z" />
    <glyph glyph-name="Itilde" unicode="&#x128;" horiz-adv-x="265" 
d="M108 1025l27 -27c24 -22 43 -30 68 -30c59 0 94 50 96 138h-62c0 -27 -3 -46 -9 -58s-15 -18 -28 -18c-8 0 -19 6 -33 19l-28 27c-24 22 -43 30 -68 30c-59 0 -93 -50 -95 -138h61c1 27 4 46 10 58s15 18 27 18c9 0 19 -6 34 -19zM73 0h118c-13 243 -11 486 -14 729h-84
c-5 -243 -5 -486 -20 -729z" />
    <glyph glyph-name="Kcommaaccent" unicode="&#x136;" horiz-adv-x="735" 
d="M201 0l-19 351l247 -351h233l-388 389l362 340h-127l-327 -308l9 308h-98l-20 -729h128zM198 -320h63l110 157v103h-123v-103z" />
    <glyph glyph-name="Lacute" unicode="&#x139;" horiz-adv-x="605" 
d="M193 978l177 204h-107l-153 -204h83zM522 0l10 151h-355l5 578h-99l-10 -729h449z" />
    <glyph glyph-name="Lcaron" unicode="&#x13d;" horiz-adv-x="605" 
d="M315 511h76l98 189v90h-125v-90zM522 0l10 151h-355l5 578h-99l-10 -729h449z" />
    <glyph glyph-name="Lcircumflexbelow" unicode="&#x1e3c;" horiz-adv-x="605" 
d="M522 0l10 151h-355l5 578h-99l-10 -729h449zM219 -220l88 120l88 -120h68l-120 184h-72l-120 -184h68z" />
    <glyph glyph-name="Lcommaaccent" unicode="&#x13b;" horiz-adv-x="605" 
d="M522 0l10 151h-355l5 578h-99l-10 -729h449zM181 -317h63l110 157v103h-123v-103z" />
    <glyph glyph-name="Ldot" unicode="&#x13f;" horiz-adv-x="605" 
d="M522 0l10 151h-355l5 578h-99l-10 -729h449zM425 285v124h-103v-124h103z" />
    <glyph glyph-name="Ldotbelow" unicode="&#x1e36;" horiz-adv-x="605" 
d="M522 0l10 151h-355l5 578h-99l-10 -729h449zM337 -146v108h-100v-108h100z" />
    <glyph glyph-name="Macute" unicode="&#x1e3e;" horiz-adv-x="833" 
d="M455 736l177 204h-107l-153 -204h83zM198 0l-19 640l178 -524h119l178 524l-20 -640h126l-15 729h-137l-192 -433l-181 433h-147l-15 -729h125z" />
    <glyph glyph-name="Nacute" unicode="&#x143;" horiz-adv-x="708" 
d="M403 978l177 204h-107l-153 -204h83zM198 0l-29 610l323 -610h143v729h-91l-15 -590l-313 575h-123l-20 -714h125z" />
    <glyph glyph-name="Ncaron" unicode="&#x147;" horiz-adv-x="708" 
d="M516 982h-68l-88 -120l-88 120h-68l120 -184h72zM198 0l-29 610l323 -610h143v729h-91l-15 -590l-313 575h-123l-20 -714h125z" />
    <glyph glyph-name="Ncircumflexbelow" unicode="&#x1e4a;" horiz-adv-x="708" 
d="M198 0l-29 610l323 -610h143v729h-91l-15 -590l-313 575h-123l-20 -714h125zM283 -220l88 120l88 -120h68l-120 184h-72l-120 -184h68z" />
    <glyph glyph-name="Ncommaaccent" unicode="&#x145;" horiz-adv-x="708" 
d="M198 0l-29 610l323 -610h143v729h-91l-15 -590l-313 575h-123l-20 -714h125zM225 -295h63l110 157v103h-123v-103z" />
    <glyph glyph-name="Ndotaccent" unicode="&#x1e44;" horiz-adv-x="708" 
d="M410 840v100h-100v-100h100zM198 0l-29 610l323 -610h143v729h-91l-15 -590l-313 575h-123l-20 -714h125z" />
    <glyph glyph-name="Ndotbelow" unicode="&#x1e46;" horiz-adv-x="708" 
d="M198 0l-29 610l323 -610h143v729h-91l-15 -590l-313 575h-123l-20 -714h125zM386 -146v108h-100v-108h100z" />
    <glyph glyph-name="Eng" unicode="&#x14a;" horiz-adv-x="708" 
d="M635 729v-729h-1l-51 -141l-52 -89c-35 20 -165 48 -190 86c32 30 96 71 130 102c11 14 18 28 21 42l-323 610l29 -610h-125l20 714h123l313 -575l15 590h91z" />
    <glyph glyph-name="Ocaron" unicode="&#x1d1;" horiz-adv-x="821" 
d="M567 982h-68l-88 -120l-88 120h-68l120 -184h72zM411 742c-205 0 -338 -148 -338 -378c0 -231 133 -378 338 -378s337 148 337 378s-132 378 -337 378zM411 662c143 0 233 -114 233 -298c0 -151 -90 -191 -233 -191s-234 40 -234 191c0 184 91 298 234 298z" />
    <glyph glyph-name="Ocircumflexacute" unicode="&#x1ed0;" horiz-adv-x="821" 
d="M454 978l177 204h-107l-153 -204h83zM323 781l88 120l88 -120h68l-120 184h-72l-120 -184h68zM411 742c-205 0 -338 -148 -338 -378c0 -231 133 -378 338 -378s337 148 337 378s-132 378 -337 378zM411 662c143 0 233 -114 233 -298c0 -151 -90 -191 -233 -191
s-234 40 -234 191c0 184 91 298 234 298z" />
    <glyph glyph-name="Ocircumflexdotbelow" unicode="&#x1ed8;" horiz-adv-x="821" 
d="M323 781l88 120l88 -120h68l-120 184h-72l-120 -184h68zM411 742c-205 0 -338 -148 -338 -378c0 -231 133 -378 338 -378s337 148 337 378s-132 378 -337 378zM411 662c143 0 233 -114 233 -298c0 -151 -90 -191 -233 -191s-234 40 -234 191c0 184 91 298 234 298z
M454 -146v108h-100v-108h100z" />
    <glyph glyph-name="Ocircumflexgrave" unicode="&#x1ed2;" horiz-adv-x="821" 
d="M351 987h133l-138 183h-96zM323 781l88 120l88 -120h68l-120 184h-72l-120 -184h68zM411 742c-205 0 -338 -148 -338 -378c0 -231 133 -378 338 -378s337 148 337 378s-132 378 -337 378zM411 662c143 0 233 -114 233 -298c0 -151 -90 -191 -233 -191s-234 40 -234 191
c0 184 91 298 234 298z" />
    <glyph glyph-name="Ocircumflexhookabove" unicode="&#x1ed4;" horiz-adv-x="821" 
d="M323 781l88 120l88 -120h68l-120 184h-72l-120 -184h68zM555 929v-21c16 8 30 13 45 13c23 0 32 -8 32 -14s-4 -12 -11 -17l-11 -9c-8 -6 -13 -10 -16 -15c-2 -4 -3 -10 -3 -16v-3h28c0 5 1 9 2 12c1 1 3 4 9 8l11 7c14 11 21 21 21 31s-6 19 -16 26c-10 6 -23 10 -40 10
c-16 0 -33 -4 -51 -12zM411 742c-205 0 -338 -148 -338 -378c0 -231 133 -378 338 -378s337 148 337 378s-132 378 -337 378zM411 662c143 0 233 -114 233 -298c0 -151 -90 -191 -233 -191s-234 40 -234 191c0 184 91 298 234 298z" />
    <glyph glyph-name="Ocircumflextilde" unicode="&#x1ed6;" horiz-adv-x="821" 
d="M382 1025l27 -27c24 -22 43 -30 68 -30c59 0 94 50 96 138h-62c0 -27 -3 -46 -9 -58s-15 -18 -28 -18c-8 0 -19 6 -33 19l-28 27c-24 22 -43 30 -68 30c-59 0 -93 -50 -95 -138h61c1 27 4 46 10 58s15 18 27 18c9 0 19 -6 34 -19zM323 781l88 120l88 -120h68l-120 184
h-72l-120 -184h68zM411 742c-205 0 -338 -148 -338 -378c0 -231 133 -378 338 -378s337 148 337 378s-132 378 -337 378zM411 662c143 0 233 -114 233 -298c0 -151 -90 -191 -233 -191s-234 40 -234 191c0 184 91 298 234 298z" />
    <glyph glyph-name="uni022A" unicode="&#x22a;" horiz-adv-x="821" 
d="M265 841h-10v106h107v-59h98v59h106v-106h-9v-25h-292v25zM411 742c205 0 337 -148 337 -378s-132 -378 -337 -378s-338 147 -338 378c0 230 133 378 338 378zM411 173c143 0 233 40 233 191c0 184 -90 298 -233 298s-234 -114 -234 -298c0 -151 91 -191 234 -191z" />
    <glyph glyph-name="Odotbelow" unicode="&#x1ecc;" horiz-adv-x="821" 
d="M411 742c-205 0 -338 -148 -338 -378c0 -231 133 -378 338 -378s337 148 337 378s-132 378 -337 378zM411 662c143 0 233 -114 233 -298c0 -151 -90 -191 -233 -191s-234 40 -234 191c0 184 91 298 234 298zM454 -146v108h-100v-108h100z" />
    <glyph glyph-name="Ohookabove" unicode="&#x1ece;" horiz-adv-x="821" 
d="M347 854v-21c16 8 30 13 45 13c23 0 32 -8 32 -14s-4 -12 -11 -17l-11 -9c-8 -6 -13 -10 -16 -15c-2 -4 -3 -10 -3 -16v-3h28c0 5 1 9 2 12c1 1 3 4 9 8l11 7c14 11 21 21 21 31s-6 19 -16 26c-10 6 -23 10 -40 10c-16 0 -33 -4 -51 -12zM411 742
c-205 0 -338 -148 -338 -378c0 -231 133 -378 338 -378s337 148 337 378s-132 378 -337 378zM411 662c143 0 233 -114 233 -298c0 -151 -90 -191 -233 -191s-234 40 -234 191c0 184 91 298 234 298z" />
    <glyph glyph-name="Ohorn" unicode="&#x1a0;" horiz-adv-x="821" 
d="M739 687l48 -6c3 -12 5 -23 5 -32c0 -39 -11 -87 -41 -114c-12 -10 -18 -15 -25 -20c14 -45 22 -96 22 -151c0 -230 -132 -378 -337 -378s-338 147 -338 378c0 230 133 378 338 378c137 0 242 -67 296 -180c7 4 13 7 19 12c22 20 20 66 20 83c0 11 -3 20 -7 30zM411 173
c143 0 233 40 233 191c0 184 -90 298 -233 298s-234 -114 -234 -298c0 -151 91 -191 234 -191z" />
    <glyph glyph-name="Ohornacute" unicode="&#x1eda;" horiz-adv-x="821" 
d="M454 978h-83l153 204h107zM739 687l48 -6c3 -12 5 -23 5 -32c0 -39 -11 -87 -41 -114c-12 -10 -18 -15 -25 -20c14 -45 22 -96 22 -151c0 -230 -132 -378 -337 -378s-338 147 -338 378c0 230 133 378 338 378c137 0 242 -67 296 -180c7 4 13 7 19 12c22 20 20 66 20 83
c0 11 -3 20 -7 30zM411 173c143 0 233 40 233 191c0 184 -90 298 -233 298s-234 -114 -234 -298c0 -151 91 -191 234 -191z" />
    <glyph glyph-name="Ohorndotbelow" unicode="&#x1ee2;" horiz-adv-x="821" 
d="M739 687l48 -6c3 -12 5 -23 5 -32c0 -39 -11 -87 -41 -114c-12 -10 -18 -15 -25 -20c14 -45 22 -96 22 -151c0 -230 -132 -378 -337 -378s-338 147 -338 378c0 230 133 378 338 378c137 0 242 -67 296 -180c7 4 13 7 19 12c22 20 20 66 20 83c0 11 -3 20 -7 30zM411 173
c143 0 233 40 233 191c0 184 -90 298 -233 298s-234 -114 -234 -298c0 -151 91 -191 234 -191zM354 -38h100v-108h-100v108z" />
    <glyph glyph-name="Ohorngrave" unicode="&#x1edc;" horiz-adv-x="821" 
d="M351 987l-101 183h96l138 -183h-133zM739 687l48 -6c3 -12 5 -23 5 -32c0 -39 -11 -87 -41 -114c-12 -10 -18 -15 -25 -20c14 -45 22 -96 22 -151c0 -230 -132 -378 -337 -378s-338 147 -338 378c0 230 133 378 338 378c137 0 242 -67 296 -180c7 4 13 7 19 12
c22 20 20 66 20 83c0 11 -3 20 -7 30zM411 173c143 0 233 40 233 191c0 184 -90 298 -233 298s-234 -114 -234 -298c0 -151 91 -191 234 -191z" />
    <glyph glyph-name="Ohornhookabove" unicode="&#x1ede;" horiz-adv-x="821" 
d="M425 842c0 6 -9 14 -32 14c-15 0 -29 -5 -45 -13v21c18 8 35 12 51 12c17 0 30 -4 40 -10c10 -7 16 -16 16 -26s-7 -20 -21 -31l-11 -7c-6 -4 -8 -7 -9 -8c-1 -3 -2 -7 -2 -12h-28v3c0 6 1 12 3 16c3 5 8 9 16 15l11 9c7 5 11 11 11 17zM739 687l48 -6c3 -12 5 -23 5 -32
c0 -39 -11 -87 -41 -114c-12 -10 -18 -15 -25 -20c14 -45 22 -96 22 -151c0 -230 -132 -378 -337 -378s-338 147 -338 378c0 230 133 378 338 378c137 0 242 -67 296 -180c7 4 13 7 19 12c22 20 20 66 20 83c0 11 -3 20 -7 30zM411 173c143 0 233 40 233 191
c0 184 -90 298 -233 298s-234 -114 -234 -298c0 -151 91 -191 234 -191z" />
    <glyph glyph-name="Ohorntilde" unicode="&#x1ee0;" horiz-adv-x="821" 
d="M321 1026c-6 -12 -9 -31 -10 -58h-61c2 88 36 138 95 138c25 0 44 -8 68 -30l28 -27c14 -13 25 -19 33 -19c13 0 22 6 28 18s9 31 9 58h62c-2 -88 -37 -138 -96 -138c-25 0 -44 8 -68 30l-27 27c-15 13 -25 19 -34 19c-12 0 -21 -6 -27 -18zM739 687l48 -6
c3 -12 5 -23 5 -32c0 -39 -11 -87 -41 -114c-12 -10 -18 -15 -25 -20c14 -45 22 -96 22 -151c0 -230 -132 -378 -337 -378s-338 147 -338 378c0 230 133 378 338 378c137 0 242 -67 296 -180c7 4 13 7 19 12c22 20 20 66 20 83c0 11 -3 20 -7 30zM411 173
c143 0 233 40 233 191c0 184 -90 298 -233 298s-234 -114 -234 -298c0 -151 91 -191 234 -191z" />
    <glyph glyph-name="Ohungarumlaut" unicode="&#x150;" horiz-adv-x="821" 
d="M306 798l109 184h-83l-93 -184h67zM461 798l121 184h-87l-100 -184h66zM411 742c-205 0 -338 -148 -338 -378c0 -231 133 -378 338 -378s337 148 337 378s-132 378 -337 378zM411 662c143 0 233 -114 233 -298c0 -151 -90 -191 -233 -191s-234 40 -234 191
c0 184 91 298 234 298z" />
    <glyph glyph-name="Omacron" unicode="&#x14c;" horiz-adv-x="821" 
d="M557 816v72h-292v-72h292zM411 742c-205 0 -338 -148 -338 -378c0 -231 133 -378 338 -378s337 148 337 378s-132 378 -337 378zM411 662c143 0 233 -114 233 -298c0 -151 -90 -191 -233 -191s-234 40 -234 191c0 184 91 298 234 298z" />
    <glyph glyph-name="Omacronacute" unicode="&#x1e52;" horiz-adv-x="821" 
d="M453 978l177 204h-107l-153 -204h83zM562 845v72h-292v-72h292zM411 742c-205 0 -338 -148 -338 -378c0 -231 133 -378 338 -378s337 148 337 378s-132 378 -337 378zM411 662c143 0 233 -114 233 -298c0 -151 -90 -191 -233 -191s-234 40 -234 191c0 184 91 298 234 298
z" />
    <glyph glyph-name="Omacrongrave" unicode="&#x1e50;" horiz-adv-x="821" 
d="M350 987h133l-138 183h-96zM556 849v72h-292v-72h292zM411 742c-205 0 -338 -148 -338 -378c0 -231 133 -378 338 -378s337 148 337 378s-132 378 -337 378zM411 662c143 0 233 -114 233 -298c0 -151 -90 -191 -233 -191s-234 40 -234 191c0 184 91 298 234 298z" />
    <glyph glyph-name="Oslashacute" unicode="&#x1fe;" horiz-adv-x="821" 
d="M475 978h-83l153 204h107zM606 773l-22 -74c103 -60 164 -179 164 -335c0 -230 -132 -378 -337 -378c-13 0 -27 1 -39 2l-9 -29l-113 4l18 51c-122 53 -195 179 -195 350c0 230 133 378 338 378c37 0 72 -5 104 -14l17 48zM177 364c0 -118 56 -168 148 -185l163 470
c-23 9 -49 13 -77 13c-143 0 -234 -114 -234 -298zM557 608l-130 -435c134 3 217 46 217 191c0 109 -32 194 -87 244z" />
    <glyph glyph-name="Otildeacute" unicode="&#x1e4c;" horiz-adv-x="821" 
d="M453 978l177 204h-107l-153 -204h83zM381 865l27 -27c24 -22 43 -30 68 -30c59 0 94 50 96 138h-62c0 -27 -3 -46 -9 -58s-15 -18 -28 -18c-8 0 -19 6 -33 19l-28 27c-24 22 -43 30 -68 30c-59 0 -93 -50 -95 -138h61c1 27 4 46 10 58s15 18 27 18c9 0 19 -6 34 -19z
M411 742c-205 0 -338 -148 -338 -378c0 -231 133 -378 338 -378s337 148 337 378s-132 378 -337 378zM411 662c143 0 233 -114 233 -298c0 -151 -90 -191 -233 -191s-234 40 -234 191c0 184 91 298 234 298z" />
    <glyph glyph-name="Racute" unicode="&#x154;" horiz-adv-x="714" 
d="M356 978l177 204h-107l-153 -204h83zM419 342c68 23 110 85 110 177c0 141 -86 210 -233 210h-223v-729h118v308h74c78 0 114 -23 162 -121l74 -187h140l-100 199c-41 82 -80 129 -122 143zM182 677h124c75 0 153 -33 153 -158c0 -59 -78 -110 -153 -110h-124v268z" />
    <glyph glyph-name="Rcaron" unicode="&#x158;" horiz-adv-x="714" 
d="M469 982h-68l-88 -120l-88 120h-68l120 -184h72zM419 342c68 23 110 85 110 177c0 141 -86 210 -233 210h-223v-729h118v308h74c78 0 114 -23 162 -121l74 -187h140l-100 199c-41 82 -80 129 -122 143zM182 677h124c75 0 153 -33 153 -158c0 -59 -78 -110 -153 -110h-124
v268z" />
    <glyph glyph-name="Rcommaaccent" unicode="&#x156;" horiz-adv-x="714" 
d="M419 342c68 23 110 85 110 177c0 141 -86 210 -233 210h-223v-729h118v308h74c78 0 114 -23 162 -121l74 -187h140l-100 199c-41 82 -80 129 -122 143zM182 677h124c75 0 153 -33 153 -158c0 -59 -78 -110 -153 -110h-124v268zM209 -259h63l110 157v103h-123v-103z" />
    <glyph glyph-name="Sacute" unicode="&#x15a;" horiz-adv-x="660" 
d="M364 978l177 204h-107l-153 -204h83zM542 609v96c-74 25 -145 37 -213 37c-160 0 -256 -79 -256 -208c0 -111 62 -170 209 -199l60 -12c100 -20 141 -66 141 -105c0 -43 -63 -98 -176 -98c-74 0 -151 23 -231 68v-156c84 -31 162 -46 231 -46c183 0 279 74 279 215
c0 119 -68 188 -215 216l-59 12c-108 20 -140 49 -140 113c0 77 61 120 168 120c62 0 128 -17 202 -53z" />
    <glyph glyph-name="Scommaaccent" unicode="&#x218;" horiz-adv-x="660" 
d="M542 609v96c-74 25 -145 37 -213 37c-160 0 -256 -79 -256 -208c0 -111 62 -170 209 -199l60 -12c100 -20 141 -66 141 -105c0 -43 -63 -98 -176 -98c-74 0 -151 23 -231 68v-156c84 -31 162 -46 231 -46c183 0 279 74 279 215c0 119 -68 188 -215 216l-59 12
c-108 20 -140 49 -140 113c0 77 61 120 168 120c62 0 128 -17 202 -53zM204 -294h63l110 157v103h-123v-103z" />
    <glyph glyph-name="Sdotbelow" unicode="&#x1e62;" horiz-adv-x="660" 
d="M542 609v96c-74 25 -145 37 -213 37c-160 0 -256 -79 -256 -208c0 -111 62 -170 209 -199l60 -12c100 -20 141 -66 141 -105c0 -43 -63 -98 -176 -98c-74 0 -151 23 -231 68v-156c84 -31 162 -46 231 -46c183 0 279 74 279 215c0 119 -68 188 -215 216l-59 12
c-108 20 -140 49 -140 113c0 77 61 120 168 120c62 0 128 -17 202 -53zM367 -146v108h-100v-108h100z" />
    <glyph glyph-name="Tbar" unicode="&#x166;" horiz-adv-x="763" 
d="M527 816v72h-292v-72h292zM332 656l-19 -656h138l-20 656l259 -10v83h-617v-83z" />
    <glyph glyph-name="Tcaron" unicode="&#x164;" horiz-adv-x="763" 
d="M537 982h-68l-88 -120l-88 120h-68l120 -184h72zM332 656l-19 -656h138l-20 656l259 -10v83h-617v-83z" />
    <glyph glyph-name="Tcedilla" unicode="&#x162;" horiz-adv-x="763" 
d="M690 646l-259 10l20 -656h-22c36 -41 53 -74 53 -105c0 -58 -39 -88 -116 -88c-30 0 -58 4 -86 12v64c22 -11 45 -16 76 -16c39 0 58 16 58 46c0 20 -14 47 -43 87h-58l19 656l-259 -10v83h617v-83z" />
    <glyph glyph-name="Tcircumflexbelow" unicode="&#x1e70;" horiz-adv-x="763" 
d="M332 656l-19 -656h138l-20 656l259 -10v83h-617v-83zM297 -220l88 120l88 -120h68l-120 184h-72l-120 -184h68z" />
    <glyph glyph-name="uni021A" unicode="&#x21a;" horiz-adv-x="763" 
d="M332 656l-19 -656h138l-20 656l259 -10v83h-617v-83zM268 -286h63l110 157v103h-123v-103z" />
    <glyph glyph-name="Tdotbelow" unicode="&#x1e6c;" horiz-adv-x="763" 
d="M332 656l-19 -656h138l-20 656l259 -10v83h-617v-83zM425 -146v108h-100v-108h100z" />
    <glyph glyph-name="Tlinebelow" unicode="&#x1e6e;" horiz-adv-x="763" 
d="M332 656l-19 -656h138l-20 656l259 -10v83h-617v-83zM511 -125l4 81l-263 -5l-4 -80z" />
    <glyph glyph-name="Ucaron" unicode="&#x1d3;" horiz-adv-x="705" 
d="M508 982h-68l-88 -120l-88 120h-68l120 -184h72zM73 729v-455c0 -190 95 -288 280 -288c183 0 278 98 278 288v455h-104l10 -375c4 -156 -58 -220 -184 -220c-127 0 -189 64 -186 220l10 375h-104z" />
    <glyph glyph-name="Udieresisacute" unicode="&#x1d7;" horiz-adv-x="705" 
d="M395 978l177 204h-107l-153 -204h83zM303 841v106h-107v-106h107zM507 841v106h-106v-106h106zM73 729v-455c0 -190 95 -288 280 -288c183 0 278 98 278 288v455h-104l10 -375c4 -156 -58 -220 -184 -220c-127 0 -189 64 -186 220l10 375h-104z" />
    <glyph glyph-name="Udieresiscaron" unicode="&#x1d9;" horiz-adv-x="705" 
d="M288 841h-92v106h23l-23 35h68l26 -35h13v-18l49 -67l49 67v18h13l26 35h68l-23 -35h22v-106h-91l-28 -43h-72zM631 729v-455c0 -190 -95 -288 -278 -288c-185 0 -280 98 -280 288v455h104l-10 -375c-3 -156 59 -220 186 -220c126 0 188 64 184 220l-10 375h104z" />
    <glyph glyph-name="Udieresisgrave" unicode="&#x1db;" horiz-adv-x="705" 
d="M292 987h133l-138 183h-96zM303 841v106h-107v-106h107zM507 841v106h-106v-106h106zM73 729v-455c0 -190 95 -288 280 -288c183 0 278 98 278 288v455h-104l10 -375c4 -156 -58 -220 -184 -220c-127 0 -189 64 -186 220l10 375h-104z" />
    <glyph glyph-name="Udieresismacron" unicode="&#x1d5;" horiz-adv-x="705" 
d="M206 841h-10v106h107v-59h98v59h106v-106h-9v-25h-292v25zM631 729v-455c0 -190 -95 -288 -278 -288c-185 0 -280 98 -280 288v455h104l-10 -375c-3 -156 59 -220 186 -220c126 0 188 64 184 220l-10 375h104z" />
    <glyph glyph-name="Udotbelow" unicode="&#x1ee4;" horiz-adv-x="705" 
d="M73 729v-455c0 -190 95 -288 280 -288c183 0 278 98 278 288v455h-104l10 -375c4 -156 -58 -220 -184 -220c-127 0 -189 64 -186 220l10 375h-104zM396 -146v108h-100v-108h100z" />
    <glyph glyph-name="Uhookabove" unicode="&#x1ee6;" horiz-adv-x="705" 
d="M289 815v-21c16 8 30 13 45 13c23 0 32 -8 32 -14s-4 -12 -11 -17l-11 -9c-8 -6 -13 -10 -16 -15c-2 -4 -3 -10 -3 -16v-3h28c0 5 1 9 2 12c1 1 3 4 9 8l11 7c14 11 21 21 21 31s-6 19 -16 26c-10 6 -23 10 -40 10c-16 0 -33 -4 -51 -12zM73 729v-455
c0 -190 95 -288 280 -288c183 0 278 98 278 288v455h-104l10 -375c4 -156 -58 -220 -184 -220c-127 0 -189 64 -186 220l10 375h-104z" />
    <glyph glyph-name="Uhorn" unicode="&#x1af;" horiz-adv-x="705" 
d="M665 754l48 -6c3 -12 5 -23 5 -32c0 -39 -11 -87 -41 -114c-21 -17 -24 -22 -46 -33v-295c0 -190 -95 -288 -278 -288c-185 0 -280 98 -280 288v455h104l-10 -375c-3 -156 59 -220 186 -220c126 0 188 64 184 220l-10 375h104v-101c8 4 14 7 21 13c22 20 20 66 20 83
c0 11 -3 20 -7 30z" />
    <glyph glyph-name="Uhornacute" unicode="&#x1ee8;" horiz-adv-x="705" 
d="M395 978h-83l153 204h107zM665 754l48 -6c3 -12 5 -23 5 -32c0 -39 -11 -87 -41 -114c-21 -17 -24 -22 -46 -33v-295c0 -190 -95 -288 -278 -288c-185 0 -280 98 -280 288v455h104l-10 -375c-3 -156 59 -220 186 -220c126 0 188 64 184 220l-10 375h104v-101
c8 4 14 7 21 13c22 20 20 66 20 83c0 11 -3 20 -7 30z" />
    <glyph glyph-name="Uhorndotbelow" unicode="&#x1ef0;" horiz-adv-x="705" 
d="M665 754l48 -6c3 -12 5 -23 5 -32c0 -39 -11 -87 -41 -114c-21 -17 -24 -22 -46 -33v-295c0 -190 -95 -288 -278 -288c-185 0 -280 98 -280 288v455h104l-10 -375c-3 -156 59 -220 186 -220c126 0 188 64 184 220l-10 375h104v-101c8 4 14 7 21 13c22 20 20 66 20 83
c0 11 -3 20 -7 30zM296 -38h100v-108h-100v108z" />
    <glyph glyph-name="Uhorngrave" unicode="&#x1eea;" horiz-adv-x="705" 
d="M292 987l-101 183h96l138 -183h-133zM665 754l48 -6c3 -12 5 -23 5 -32c0 -39 -11 -87 -41 -114c-21 -17 -24 -22 -46 -33v-295c0 -190 -95 -288 -278 -288c-185 0 -280 98 -280 288v455h104l-10 -375c-3 -156 59 -220 186 -220c126 0 188 64 184 220l-10 375h104v-101
c8 4 14 7 21 13c22 20 20 66 20 83c0 11 -3 20 -7 30z" />
    <glyph glyph-name="Uhornhookabove" unicode="&#x1eec;" horiz-adv-x="705" 
d="M375 786c0 6 -9 14 -32 14c-15 0 -29 -5 -45 -13v21c18 8 35 12 51 12c17 0 30 -4 40 -10c10 -7 16 -16 16 -26s-7 -20 -21 -31l-11 -7c-6 -4 -8 -7 -9 -8c-1 -3 -2 -7 -2 -12h-28v3c0 6 1 12 3 16c3 5 8 9 16 15l11 9c7 5 11 11 11 17zM665 754l48 -6c3 -12 5 -23 5 -32
c0 -39 -11 -87 -41 -114c-21 -17 -24 -22 -46 -33v-295c0 -190 -95 -288 -278 -288c-185 0 -280 98 -280 288v455h104l-10 -375c-3 -156 59 -220 186 -220c126 0 188 64 184 220l-10 375h104v-101c8 4 14 7 21 13c22 20 20 66 20 83c0 11 -3 20 -7 30z" />
    <glyph glyph-name="Uhorntilde" unicode="&#x1eee;" horiz-adv-x="705" 
d="M262 1026c-6 -12 -9 -31 -10 -58h-61c2 88 36 138 95 138c25 0 44 -8 68 -30l28 -27c14 -13 25 -19 33 -19c13 0 22 6 28 18s9 31 9 58h62c-2 -88 -37 -138 -96 -138c-25 0 -44 8 -68 30l-27 27c-15 13 -25 19 -34 19c-12 0 -21 -6 -27 -18zM665 754l48 -6
c3 -12 5 -23 5 -32c0 -39 -11 -87 -41 -114c-21 -17 -24 -22 -46 -33v-295c0 -190 -95 -288 -278 -288c-185 0 -280 98 -280 288v455h104l-10 -375c-3 -156 59 -220 186 -220c126 0 188 64 184 220l-10 375h104v-101c8 4 14 7 21 13c22 20 20 66 20 83c0 11 -3 20 -7 30z
" />
    <glyph glyph-name="Uhungarumlaut" unicode="&#x170;" horiz-adv-x="705" 
d="M247 798l109 184h-83l-93 -184h67zM402 798l121 184h-87l-100 -184h66zM73 729v-455c0 -190 95 -288 280 -288c183 0 278 98 278 288v455h-104l10 -375c4 -156 -58 -220 -184 -220c-127 0 -189 64 -186 220l10 375h-104z" />
    <glyph glyph-name="Umacron" unicode="&#x16a;" horiz-adv-x="705" 
d="M498 816v72h-292v-72h292zM73 729v-455c0 -190 95 -288 280 -288c183 0 278 98 278 288v455h-104l10 -375c4 -156 -58 -220 -184 -220c-127 0 -189 64 -186 220l10 375h-104z" />
    <glyph glyph-name="Uogonek" unicode="&#x172;" horiz-adv-x="705" 
d="M631 729v-455c0 -179 -84 -276 -247 -287c-23 -33 -34 -57 -34 -75c0 -30 18 -45 53 -45c21 0 41 5 61 15v-65c-25 -6 -47 -10 -66 -10c-80 0 -116 27 -116 88c0 28 13 57 42 92c-166 10 -251 107 -251 287v455h104l-10 -375c-3 -156 59 -220 186 -220
c126 0 188 64 184 220l-10 375h104z" />
    <glyph glyph-name="Uring" unicode="&#x16e;" horiz-adv-x="705" 
d="M486 926c0 75 -59 134 -134 134s-134 -59 -134 -134s59 -134 134 -134s134 59 134 134zM426 926c0 -41 -32 -74 -74 -74s-74 32 -74 74s32 74 74 74s74 -33 74 -74zM73 729v-455c0 -190 95 -288 280 -288c183 0 278 98 278 288v455h-104l10 -375
c4 -156 -58 -220 -184 -220c-127 0 -189 64 -186 220l10 375h-104z" />
    <glyph glyph-name="Utilde" unicode="&#x168;" horiz-adv-x="705" 
d="M323 1025l27 -27c24 -22 43 -30 68 -30c59 0 94 50 96 138h-62c0 -27 -3 -46 -9 -58s-15 -18 -28 -18c-8 0 -19 6 -33 19l-28 27c-24 22 -43 30 -68 30c-59 0 -93 -50 -95 -138h61c1 27 4 46 10 58s15 18 27 18c9 0 19 -6 34 -19zM73 729v-455c0 -190 95 -288 280 -288
c183 0 278 98 278 288v455h-104l10 -375c4 -156 -58 -220 -184 -220c-127 0 -189 64 -186 220l10 375h-104z" />
    <glyph glyph-name="Wacute" unicode="&#x1e82;" horiz-adv-x="1069" 
d="M575 978l177 204h-107l-153 -204h83zM390 0l145 394l134 -394h144l183 729h-95l-168 -533l-158 347h-86l-173 -337l-148 523h-95l163 -729h154z" />
    <glyph glyph-name="Wcircumflex" unicode="&#x174;" horiz-adv-x="1069" 
d="M444 781l88 120l88 -120h68l-120 184h-72l-120 -184h68zM390 0l145 394l134 -394h144l183 729h-95l-168 -533l-158 347h-86l-173 -337l-148 523h-95l163 -729h154z" />
    <glyph glyph-name="Wdieresis" unicode="&#x1e84;" horiz-adv-x="1069" 
d="M483 841v106h-107v-106h107zM687 841v106h-106v-106h106zM390 0l145 394l134 -394h144l183 729h-95l-168 -533l-158 347h-86l-173 -337l-148 523h-95l163 -729h154z" />
    <glyph glyph-name="Wgrave" unicode="&#x1e80;" horiz-adv-x="1069" 
d="M472 987h133l-138 183h-96zM390 0l145 394l134 -394h144l183 729h-95l-168 -533l-158 347h-86l-173 -337l-148 523h-95l163 -729h154z" />
    <glyph glyph-name="Ycircumflex" unicode="&#x176;" horiz-adv-x="761" 
d="M292 781l88 120l88 -120h68l-120 184h-72l-120 -184h68zM312 0h133v250l243 479h-106l-201 -373l-202 373h-106l239 -479v-250z" />
    <glyph glyph-name="Ydotbelow" unicode="&#x1ef4;" horiz-adv-x="761" 
d="M312 0h133v250l243 479h-106l-201 -373l-202 373h-106l239 -479v-250zM430 -146v108h-100v-108h100z" />
    <glyph glyph-name="Ygrave" unicode="&#x1ef2;" horiz-adv-x="761" 
d="M320 987h133l-138 183h-96zM312 0h133v250l243 479h-106l-201 -373l-202 373h-106l239 -479v-250z" />
    <glyph glyph-name="Yhookabove" unicode="&#x1ef6;" horiz-adv-x="761" 
d="M334 790v-21c16 8 30 13 45 13c23 0 32 -8 32 -14s-4 -12 -11 -17l-11 -9c-8 -6 -13 -10 -16 -15c-2 -4 -3 -10 -3 -16v-3h28c0 5 1 9 2 12c1 1 3 4 9 8l11 7c14 11 21 21 21 31s-6 19 -16 26c-10 6 -23 10 -40 10c-16 0 -33 -4 -51 -12zM312 0h133v250l243 479h-106
l-201 -373l-202 373h-106l239 -479v-250z" />
    <glyph glyph-name="Ytilde" unicode="&#x1ef8;" horiz-adv-x="761" 
d="M351 1025l27 -27c24 -22 43 -30 68 -30c59 0 94 50 96 138h-62c0 -27 -3 -46 -9 -58s-15 -18 -28 -18c-8 0 -19 6 -33 19l-28 27c-24 22 -43 30 -68 30c-59 0 -93 -50 -95 -138h61c1 27 4 46 10 58s15 18 27 18c9 0 19 -6 34 -19zM312 0h133v250l243 479h-106l-201 -373
l-202 373h-106l239 -479v-250z" />
    <glyph glyph-name="Zacute" unicode="&#x179;" horiz-adv-x="742" 
d="M436 978l177 204h-107l-153 -204h83zM534 646l-461 -507v-139h595v146h-472l461 508v75h-573v-83h450z" />
    <glyph glyph-name="Zdotaccent" unicode="&#x17b;" horiz-adv-x="742" 
d="M443 840v100h-100v-100h100zM534 646l-461 -507v-139h595v146h-472l461 508v75h-573v-83h450z" />
    <glyph glyph-name="Zdotbelow" unicode="&#x1e92;" horiz-adv-x="742" 
d="M534 646l-461 -507v-139h595v146h-472l461 508v75h-573v-83h450zM430 -146v108h-100v-108h100z" />
    <glyph glyph-name="abreve" unicode="&#x103;" horiz-adv-x="608" 
d="M223 758h-58c7 -93 59 -140 153 -140s147 47 153 140h-58c-8 -49 -39 -73 -95 -73c-57 0 -88 24 -95 73zM535 0v312c0 167 -77 248 -236 248c-58 0 -120 -13 -186 -38v-73c55 30 115 45 177 45c105 -7 155 -57 155 -140v-9h-126c-163 0 -246 -63 -246 -186
c0 -105 72 -173 183 -173c89 0 148 32 189 92v-78h90zM395 279v-20c0 -117 -35 -136 -125 -136c-65 0 -112 5 -122 61c1 67 35 95 166 95h81z" />
    <glyph glyph-name="abreveacute" unicode="&#x1eaf;" horiz-adv-x="608" 
d="M361 796l177 204h-107l-153 -204h83zM223 758h-58c7 -93 59 -140 153 -140s147 47 153 140h-58c-8 -49 -39 -73 -95 -73c-57 0 -88 24 -95 73zM535 0v312c0 167 -77 248 -236 248c-58 0 -120 -13 -186 -38v-73c55 30 115 45 177 45c105 -7 155 -57 155 -140v-9h-126
c-163 0 -246 -63 -246 -186c0 -105 72 -173 183 -173c89 0 148 32 189 92v-78h90zM395 279v-20c0 -117 -35 -136 -125 -136c-65 0 -112 5 -122 61c1 67 35 95 166 95h81z" />
    <glyph glyph-name="abrevedotbelow" unicode="&#x1eb7;" horiz-adv-x="608" 
d="M223 758h-58c7 -93 59 -140 153 -140s147 47 153 140h-58c-8 -49 -39 -73 -95 -73c-57 0 -88 24 -95 73zM535 0v312c0 167 -77 248 -236 248c-58 0 -120 -13 -186 -38v-73c55 30 115 45 177 45c105 -7 155 -57 155 -140v-9h-126c-163 0 -246 -63 -246 -186
c0 -105 72 -173 183 -173c89 0 148 32 189 92v-78h90zM395 279v-20c0 -117 -35 -136 -125 -136c-65 0 -112 5 -122 61c1 67 35 95 166 95h81zM337 -146v108h-100v-108h100z" />
    <glyph glyph-name="abrevegrave" unicode="&#x1eb1;" horiz-adv-x="608" 
d="M258 805h133l-138 183h-96zM223 758h-58c7 -93 59 -140 153 -140s147 47 153 140h-58c-8 -49 -39 -73 -95 -73c-57 0 -88 24 -95 73zM535 0v312c0 167 -77 248 -236 248c-58 0 -120 -13 -186 -38v-73c55 30 115 45 177 45c105 -7 155 -57 155 -140v-9h-126
c-163 0 -246 -63 -246 -186c0 -105 72 -173 183 -173c89 0 148 32 189 92v-78h90zM395 279v-20c0 -117 -35 -136 -125 -136c-65 0 -112 5 -122 61c1 67 35 95 166 95h81z" />
    <glyph glyph-name="abrevehookabove" unicode="&#x1eb3;" horiz-adv-x="608" 
d="M268 818v-21c16 8 30 13 45 13c23 0 32 -8 32 -14s-4 -12 -11 -17l-11 -9c-8 -6 -13 -10 -16 -15c-2 -4 -3 -10 -3 -16v-3h28c0 5 1 9 2 12c1 1 3 4 9 8l11 7c14 11 21 21 21 31s-6 19 -16 26c-10 6 -23 10 -40 10c-16 0 -33 -4 -51 -12zM223 758h-58
c7 -93 59 -140 153 -140s147 47 153 140h-58c-8 -49 -39 -73 -95 -73c-57 0 -88 24 -95 73zM535 0v312c0 167 -77 248 -236 248c-58 0 -120 -13 -186 -38v-73c55 30 115 45 177 45c105 -7 155 -57 155 -140v-9h-126c-163 0 -246 -63 -246 -186c0 -105 72 -173 183 -173
c89 0 148 32 189 92v-78h90zM395 279v-20c0 -117 -35 -136 -125 -136c-65 0 -112 5 -122 61c1 67 35 95 166 95h81z" />
    <glyph glyph-name="abrevetilde" unicode="&#x1eb5;" horiz-adv-x="608" 
d="M289 843l27 -27c24 -22 43 -30 68 -30c59 0 94 50 96 138h-62c0 -27 -3 -46 -9 -58s-15 -18 -28 -18c-8 0 -19 6 -33 19l-28 27c-24 22 -43 30 -68 30c-59 0 -93 -50 -95 -138h61c1 27 4 46 10 58s15 18 27 18c9 0 19 -6 34 -19zM223 758h-58c7 -93 59 -140 153 -140
s147 47 153 140h-58c-8 -49 -39 -73 -95 -73c-57 0 -88 24 -95 73zM535 0v312c0 167 -77 248 -236 248c-58 0 -120 -13 -186 -38v-73c55 30 115 45 177 45c105 -7 155 -57 155 -140v-9h-126c-163 0 -246 -63 -246 -186c0 -105 72 -173 183 -173c89 0 148 32 189 92v-78h90z
M395 279v-20c0 -117 -35 -136 -125 -136c-65 0 -112 5 -122 61c1 67 35 95 166 95h81z" />
    <glyph glyph-name="acaron" unicode="&#x1ce;" horiz-adv-x="608" 
d="M474 800h-68l-88 -120l-88 120h-68l120 -184h72zM535 0v312c0 167 -77 248 -236 248c-58 0 -120 -13 -186 -38v-73c55 30 115 45 177 45c105 -7 155 -57 155 -140v-9h-126c-163 0 -246 -63 -246 -186c0 -105 72 -173 183 -173c89 0 148 32 189 92v-78h90zM395 279v-20
c0 -117 -35 -136 -125 -136c-65 0 -112 5 -122 61c1 67 35 95 166 95h81z" />
    <glyph glyph-name="acircumflexacute" unicode="&#x1ea5;" horiz-adv-x="608" 
d="M361 796l177 204h-107l-153 -204h83zM230 599l88 120l88 -120h68l-120 184h-72l-120 -184h68zM535 0v312c0 167 -77 248 -236 248c-58 0 -120 -13 -186 -38v-73c55 30 115 45 177 45c105 -7 155 -57 155 -140v-9h-126c-163 0 -246 -63 -246 -186c0 -105 72 -173 183 -173
c89 0 148 32 189 92v-78h90zM395 279v-20c0 -117 -35 -136 -125 -136c-65 0 -112 5 -122 61c1 67 35 95 166 95h81z" />
    <glyph glyph-name="acircumflexdotbelow" unicode="&#x1ead;" horiz-adv-x="608" 
d="M230 599l88 120l88 -120h68l-120 184h-72l-120 -184h68zM535 0v312c0 167 -77 248 -236 248c-58 0 -120 -13 -186 -38v-73c55 30 115 45 177 45c105 -7 155 -57 155 -140v-9h-126c-163 0 -246 -63 -246 -186c0 -105 72 -173 183 -173c89 0 148 32 189 92v-78h90zM395 279
v-20c0 -117 -35 -136 -125 -136c-65 0 -112 5 -122 61c1 67 35 95 166 95h81zM303 -146v108h-100v-108h100z" />
    <glyph glyph-name="acircumflexgrave" unicode="&#x1ea7;" horiz-adv-x="608" 
d="M258 805h133l-138 183h-96zM230 599l88 120l88 -120h68l-120 184h-72l-120 -184h68zM535 0v312c0 167 -77 248 -236 248c-58 0 -120 -13 -186 -38v-73c55 30 115 45 177 45c105 -7 155 -57 155 -140v-9h-126c-163 0 -246 -63 -246 -186c0 -105 72 -173 183 -173
c89 0 148 32 189 92v-78h90zM395 279v-20c0 -117 -35 -136 -125 -136c-65 0 -112 5 -122 61c1 67 35 95 166 95h81z" />
    <glyph glyph-name="acircumflexhookabove" unicode="&#x1ea9;" horiz-adv-x="608" 
d="M230 599l88 120l88 -120h68l-120 184h-72l-120 -184h68zM443 760v-21c16 8 30 13 45 13c23 0 32 -8 32 -14s-4 -12 -11 -17l-11 -9c-8 -6 -13 -10 -16 -15c-2 -4 -3 -10 -3 -16v-3h28c0 5 1 9 2 12c1 1 3 4 9 8l11 7c14 11 21 21 21 31s-6 19 -16 26c-10 6 -23 10 -40 10
c-16 0 -33 -4 -51 -12zM535 0v312c0 167 -77 248 -236 248c-58 0 -120 -13 -186 -38v-73c55 30 115 45 177 45c105 -7 155 -57 155 -140v-9h-126c-163 0 -246 -63 -246 -186c0 -105 72 -173 183 -173c89 0 148 32 189 92v-78h90zM395 279v-20c0 -117 -35 -136 -125 -136
c-65 0 -112 5 -122 61c1 67 35 95 166 95h81z" />
    <glyph glyph-name="acircumflextilde" unicode="&#x1eab;" horiz-adv-x="608" 
d="M289 843l27 -27c24 -22 43 -30 68 -30c59 0 94 50 96 138h-62c0 -27 -3 -46 -9 -58s-15 -18 -28 -18c-8 0 -19 6 -33 19l-28 27c-24 22 -43 30 -68 30c-59 0 -93 -50 -95 -138h61c1 27 4 46 10 58s15 18 27 18c9 0 19 -6 34 -19zM230 599l88 120l88 -120h68l-120 184h-72
l-120 -184h68zM535 0v312c0 167 -77 248 -236 248c-58 0 -120 -13 -186 -38v-73c55 30 115 45 177 45c105 -7 155 -57 155 -140v-9h-126c-163 0 -246 -63 -246 -186c0 -105 72 -173 183 -173c89 0 148 32 189 92v-78h90zM395 279v-20c0 -117 -35 -136 -125 -136
c-65 0 -112 5 -122 61c1 67 35 95 166 95h81z" />
    <glyph glyph-name="adieresismacron" unicode="&#x1df;" horiz-adv-x="608" 
d="M172 659h-10v106h107v-59h98v59h106v-106h-9v-25h-292v25zM299 560c159 0 236 -81 236 -248v-312h-90v78c-41 -60 -100 -92 -189 -92c-111 0 -183 68 -183 173c0 123 83 186 246 186h126v9c0 83 -50 133 -155 140c-62 0 -122 -15 -177 -45v73c66 25 128 38 186 38z
M395 279h-81c-131 0 -165 -28 -166 -95c10 -56 57 -61 122 -61c90 0 125 19 125 136v20z" />
    <glyph glyph-name="adotbelow" unicode="&#x1ea1;" horiz-adv-x="608" 
d="M535 0v312c0 167 -77 248 -236 248c-58 0 -120 -13 -186 -38v-73c55 30 115 45 177 45c105 -7 155 -57 155 -140v-9h-126c-163 0 -246 -63 -246 -186c0 -105 72 -173 183 -173c89 0 148 32 189 92v-78h90zM395 279v-20c0 -117 -35 -136 -125 -136c-65 0 -112 5 -122 61
c1 67 35 95 166 95h81zM303 -146v108h-100v-108h100z" />
    <glyph glyph-name="ahookabove" unicode="&#x1ea3;" horiz-adv-x="608" 
d="M240 689v-21c16 8 30 13 45 13c23 0 32 -8 32 -14s-4 -12 -11 -17l-11 -9c-8 -6 -13 -10 -16 -15c-2 -4 -3 -10 -3 -16v-3h28c0 5 1 9 2 12c1 1 3 4 9 8l11 7c14 11 21 21 21 31s-6 19 -16 26c-10 6 -23 10 -40 10c-16 0 -33 -4 -51 -12zM535 0v312
c0 167 -77 248 -236 248c-58 0 -120 -13 -186 -38v-73c55 30 115 45 177 45c105 -7 155 -57 155 -140v-9h-126c-163 0 -246 -63 -246 -186c0 -105 72 -173 183 -173c89 0 148 32 189 92v-78h90zM395 279v-20c0 -117 -35 -136 -125 -136c-65 0 -112 5 -122 61
c1 67 35 95 166 95h81z" />
    <glyph glyph-name="amacron" unicode="&#x101;" horiz-adv-x="608" 
d="M464 634v72h-292v-72h292zM535 0v312c0 167 -77 248 -236 248c-58 0 -120 -13 -186 -38v-73c55 30 115 45 177 45c105 -7 155 -57 155 -140v-9h-126c-163 0 -246 -63 -246 -186c0 -105 72 -173 183 -173c89 0 148 32 189 92v-78h90zM395 279v-20
c0 -117 -35 -136 -125 -136c-65 0 -112 5 -122 61c1 67 35 95 166 95h81z" />
    <glyph glyph-name="aogonek" unicode="&#x105;" horiz-adv-x="608" 
d="M533 -104c21 0 41 5 61 15v-65c-25 -6 -47 -10 -66 -10c-80 0 -116 27 -116 88c0 25 11 50 33 80v74c-41 -60 -100 -92 -189 -92c-111 0 -183 68 -183 173c0 123 83 186 246 186h126v9c0 83 -50 133 -155 140c-62 0 -122 -15 -177 -45v73c66 25 128 38 186 38
c159 0 236 -81 236 -248v-312h-32c-15 -25 -23 -44 -23 -59c0 -30 18 -45 53 -45zM395 279h-81c-131 0 -165 -28 -166 -95c10 -56 57 -61 122 -61c90 0 125 19 125 136v20z" />
    <glyph glyph-name="bdotbelow" unicode="&#x1e05;" horiz-adv-x="636" 
d="M126 99c-20 42 -24 346 -43 661h90l-9 -286c37 65 94 86 174 86c133 0 225 -115 225 -287s-92 -287 -225 -287c-143 0 -186 41 -212 113zM505 293c-4 127 -50 203 -146 203c-95 0 -152 -75 -152 -207c13 -101 22 -143 152 -143c80 6 131 34 146 147zM281 -146h100v108
h-100v-108z" />
    <glyph glyph-name="cdotaccent" unicode="&#x10b;" horiz-adv-x="579" 
d="M360 658v100h-100v-100h100zM506 447v79c-49 23 -103 34 -158 34c-170 0 -275 -109 -275 -287c0 -176 105 -287 269 -287c61 0 114 12 164 35l-2 141c-51 -28 -104 -21 -156 -21c-117 6 -166 38 -175 132c0 133 62 216 179 216c52 0 103 -14 154 -42z" />
    <glyph glyph-name="dcaron" unicode="&#x10f;" horiz-adv-x="645" 
d="M607 583h76l98 189v90h-125v-90zM482 760l-10 -296c-37 65 -95 96 -175 96c-132 0 -224 -115 -224 -287s92 -287 224 -287c80 0 138 31 175 96v-82h90l10 760h-90zM138 283c0 132 57 212 153 212c95 0 138 -73 141 -205c-3 -121 -49 -141 -144 -141s-135 39 -150 134z
" />
    <glyph glyph-name="dcircumflexbelow" unicode="&#x1e13;" horiz-adv-x="645" 
d="M482 760l-10 -296c-37 65 -95 96 -175 96c-132 0 -224 -115 -224 -287s92 -287 224 -287c80 0 138 31 175 96v-82h90l10 760h-90zM138 283c0 132 57 212 153 212c95 0 138 -73 141 -205c-3 -121 -49 -141 -144 -141s-135 39 -150 134zM219 -220l88 120l88 -120h68
l-120 184h-72l-120 -184h68z" />
    <glyph glyph-name="ddotbelow" unicode="&#x1e0d;" horiz-adv-x="645" 
d="M482 760l-10 -296c-37 65 -95 96 -175 96c-132 0 -224 -115 -224 -287s92 -287 224 -287c80 0 138 31 175 96v-82h90l10 760h-90zM138 283c0 132 57 212 153 212c95 0 138 -73 141 -205c-3 -121 -49 -141 -144 -141s-135 39 -150 134zM342 -146v108h-100v-108h100z" />
    <glyph glyph-name="dlinebelow" unicode="&#x1e0f;" horiz-adv-x="645" 
d="M482 760l-10 -296c-37 65 -95 96 -175 96c-132 0 -224 -115 -224 -287s92 -287 224 -287c80 0 138 31 175 96v-82h90l10 760h-90zM138 283c0 132 57 212 153 212c95 0 138 -73 141 -205c-3 -121 -49 -141 -144 -141s-135 39 -150 134zM449 -125l4 81l-263 -5l-4 -80z" />
    <glyph glyph-name="ecaron" unicode="&#x11b;" horiz-adv-x="648" 
d="M485 800h-68l-88 -120l-88 120h-68l120 -184h72zM575 296v34c-12 156 -87 224 -233 230c-165 0 -262 -113 -269 -292c0 -173 110 -276 284 -282c70 0 138 14 203 42l-2 124c-64 -34 -129 -33 -198 -33c-119 6 -191 31 -193 177h408zM497 375l-320 -1c0 66 65 139 165 139
c89 0 145 -77 155 -138z" />
    <glyph glyph-name="uni0229" unicode="&#x229;" horiz-adv-x="648" 
d="M575 296h-408c2 -146 74 -171 193 -177c69 0 134 -1 198 33l2 -124c-55 -24 -113 -38 -172 -41c28 -35 42 -64 42 -92c0 -58 -39 -88 -116 -88c-30 0 -58 4 -86 12v64c22 -11 45 -16 76 -16c39 0 58 16 58 46c0 18 -11 41 -34 75c-157 16 -255 117 -255 280
c7 179 104 292 269 292c146 -6 221 -74 233 -230v-34zM177 374l320 1c-10 61 -66 138 -155 138c-100 0 -165 -73 -165 -139z" />
    <glyph glyph-name="ecircumflexacute" unicode="&#x1ebf;" horiz-adv-x="648" 
d="M372 796l177 204h-107l-153 -204h83zM241 599l88 120l88 -120h68l-120 184h-72l-120 -184h68zM575 296v34c-12 156 -87 224 -233 230c-165 0 -262 -113 -269 -292c0 -173 110 -276 284 -282c70 0 138 14 203 42l-2 124c-64 -34 -129 -33 -198 -33
c-119 6 -191 31 -193 177h408zM497 375l-320 -1c0 66 65 139 165 139c89 0 145 -77 155 -138z" />
    <glyph glyph-name="ecircumflexdotbelow" unicode="&#x1ec7;" horiz-adv-x="648" 
d="M241 599l88 120l88 -120h68l-120 184h-72l-120 -184h68zM575 296v34c-12 156 -87 224 -233 230c-165 0 -262 -113 -269 -292c0 -173 110 -276 284 -282c70 0 138 14 203 42l-2 124c-64 -34 -129 -33 -198 -33c-119 6 -191 31 -193 177h408zM497 375l-320 -1
c0 66 65 139 165 139c89 0 145 -77 155 -138zM406 -146v108h-100v-108h100z" />
    <glyph glyph-name="ecircumflexgrave" unicode="&#x1ec1;" horiz-adv-x="648" 
d="M269 805h133l-138 183h-96zM241 599l88 120l88 -120h68l-120 184h-72l-120 -184h68zM575 296v34c-12 156 -87 224 -233 230c-165 0 -262 -113 -269 -292c0 -173 110 -276 284 -282c70 0 138 14 203 42l-2 124c-64 -34 -129 -33 -198 -33c-119 6 -191 31 -193 177h408z
M497 375l-320 -1c0 66 65 139 165 139c89 0 145 -77 155 -138z" />
    <glyph glyph-name="ecircumflexhookabove" unicode="&#x1ec3;" horiz-adv-x="648" 
d="M241 599l88 120l88 -120h68l-120 184h-72l-120 -184h68zM496 681v-21c16 8 30 13 45 13c23 0 32 -8 32 -14s-4 -12 -11 -17l-11 -9c-8 -6 -13 -10 -16 -15c-2 -4 -3 -10 -3 -16v-3h28c0 5 1 9 2 12c1 1 3 4 9 8l11 7c14 11 21 21 21 31s-6 19 -16 26c-10 6 -23 10 -40 10
c-16 0 -33 -4 -51 -12zM575 296v34c-12 156 -87 224 -233 230c-165 0 -262 -113 -269 -292c0 -173 110 -276 284 -282c70 0 138 14 203 42l-2 124c-64 -34 -129 -33 -198 -33c-119 6 -191 31 -193 177h408zM497 375l-320 -1c0 66 65 139 165 139c89 0 145 -77 155 -138z" />
    <glyph glyph-name="ecircumflextilde" unicode="&#x1ec5;" horiz-adv-x="648" 
d="M300 843l27 -27c24 -22 43 -30 68 -30c59 0 94 50 96 138h-62c0 -27 -3 -46 -9 -58s-15 -18 -28 -18c-8 0 -19 6 -33 19l-28 27c-24 22 -43 30 -68 30c-59 0 -93 -50 -95 -138h61c1 27 4 46 10 58s15 18 27 18c9 0 19 -6 34 -19zM241 599l88 120l88 -120h68l-120 184h-72
l-120 -184h68zM575 296v34c-12 156 -87 224 -233 230c-165 0 -262 -113 -269 -292c0 -173 110 -276 284 -282c70 0 138 14 203 42l-2 124c-64 -34 -129 -33 -198 -33c-119 6 -191 31 -193 177h408zM497 375l-320 -1c0 66 65 139 165 139c89 0 145 -77 155 -138z" />
    <glyph glyph-name="edotaccent" unicode="&#x117;" horiz-adv-x="648" 
d="M379 658v100h-100v-100h100zM575 296v34c-12 156 -87 224 -233 230c-165 0 -262 -113 -269 -292c0 -173 110 -276 284 -282c70 0 138 14 203 42l-2 124c-64 -34 -129 -33 -198 -33c-119 6 -191 31 -193 177h408zM497 375l-320 -1c0 66 65 139 165 139
c89 0 145 -77 155 -138z" />
    <glyph glyph-name="edotbelow" unicode="&#x1eb9;" horiz-adv-x="648" 
d="M575 296v34c-12 156 -87 224 -233 230c-165 0 -262 -113 -269 -292c0 -173 110 -276 284 -282c70 0 138 14 203 42l-2 124c-64 -34 -129 -33 -198 -33c-119 6 -191 31 -193 177h408zM497 375l-320 -1c0 66 65 139 165 139c89 0 145 -77 155 -138zM406 -146v108h-100v-108
h100z" />
    <glyph glyph-name="ehookabove" unicode="&#x1ebb;" horiz-adv-x="648" 
d="M272 664v-21c16 8 30 13 45 13c23 0 32 -8 32 -14s-4 -12 -11 -17l-11 -9c-8 -6 -13 -10 -16 -15c-2 -4 -3 -10 -3 -16v-3h28c0 5 1 9 2 12c1 1 3 4 9 8l11 7c14 11 21 21 21 31s-6 19 -16 26c-10 6 -23 10 -40 10c-16 0 -33 -4 -51 -12zM575 296v34
c-12 156 -87 224 -233 230c-165 0 -262 -113 -269 -292c0 -173 110 -276 284 -282c70 0 138 14 203 42l-2 124c-64 -34 -129 -33 -198 -33c-119 6 -191 31 -193 177h408zM497 375l-320 -1c0 66 65 139 165 139c89 0 145 -77 155 -138z" />
    <glyph glyph-name="emacron" unicode="&#x113;" horiz-adv-x="648" 
d="M475 634v72h-292v-72h292zM575 296v34c-12 156 -87 224 -233 230c-165 0 -262 -113 -269 -292c0 -173 110 -276 284 -282c70 0 138 14 203 42l-2 124c-64 -34 -129 -33 -198 -33c-119 6 -191 31 -193 177h408zM497 375l-320 -1c0 66 65 139 165 139
c89 0 145 -77 155 -138z" />
    <glyph glyph-name="eogonek" unicode="&#x119;" horiz-adv-x="648" 
d="M575 296h-408c2 -146 74 -171 193 -177c69 0 134 -1 198 33l2 -124c-38 -17 -78 -28 -118 -35h18c-29 -40 -43 -68 -43 -88c0 -30 18 -45 53 -45c21 0 41 5 61 15v-65c-25 -6 -47 -10 -66 -10c-80 0 -116 27 -116 88c0 30 16 61 48 100c-13 -1 -26 -2 -40 -2
c-174 6 -284 109 -284 282c7 179 104 292 269 292c146 -6 221 -74 233 -230v-34zM177 374l320 1c-10 61 -66 138 -155 138c-100 0 -165 -73 -165 -139z" />
    <glyph glyph-name="etilde" unicode="&#x1ebd;" horiz-adv-x="648" 
d="M300 843l27 -27c24 -22 43 -30 68 -30c59 0 94 50 96 138h-62c0 -27 -3 -46 -9 -58s-15 -18 -28 -18c-8 0 -19 6 -33 19l-28 27c-24 22 -43 30 -68 30c-59 0 -93 -50 -95 -138h61c1 27 4 46 10 58s15 18 27 18c9 0 19 -6 34 -19zM575 296v34c-12 156 -87 224 -233 230
c-165 0 -262 -113 -269 -292c0 -173 110 -276 284 -282c70 0 138 14 203 42l-2 124c-64 -34 -129 -33 -198 -33c-119 6 -191 31 -193 177h408zM497 375l-320 -1c0 66 65 139 165 139c89 0 145 -77 155 -138z" />
    <glyph glyph-name="gcaron" unicode="&#x1e7;" horiz-adv-x="645" 
d="M489 800h-68l-88 -120l-88 120h-68l120 -184h72zM482 547l-10 -83c-37 64 -95 96 -175 96c-134 0 -224 -111 -224 -280s90 -280 224 -280c80 0 140 37 170 82v-30c-13 -65 -63 -167 -181 -167c-53 0 -104 13 -157 42v-160c53 -19 108 -29 171 -29c171 0 249 78 257 330
l15 479h-90zM433 285c0 -129 -63 -139 -160 -139c-96 0 -133 10 -146 139c0 131 57 205 153 205c97 0 153 -74 153 -205z" />
    <glyph glyph-name="gcommaaccent" unicode="&#x123;" horiz-adv-x="645" 
d="M482 547l-10 -83c-37 64 -95 96 -175 96c-134 0 -224 -111 -224 -280s90 -280 224 -280c80 0 140 37 170 82v-30c-13 -65 -63 -167 -181 -167c-53 0 -104 13 -157 42v-160c53 -19 108 -29 171 -29c171 0 249 78 257 330l15 479h-90zM433 285c0 -129 -63 -139 -160 -139
c-96 0 -133 10 -146 139c0 131 57 205 153 205c97 0 153 -74 153 -205zM187 -522h63l110 157v103h-123v-103z" />
    <glyph glyph-name="gdotaccent" unicode="&#x121;" horiz-adv-x="645" 
d="M383 658v100h-100v-100h100zM482 547l-10 -83c-37 64 -95 96 -175 96c-134 0 -224 -111 -224 -280s90 -280 224 -280c80 0 140 37 170 82v-30c-13 -65 -63 -167 -181 -167c-53 0 -104 13 -157 42v-160c53 -19 108 -29 171 -29c171 0 249 78 257 330l15 479h-90zM433 285
c0 -129 -63 -139 -160 -139c-96 0 -133 10 -146 139c0 131 57 205 153 205c97 0 153 -74 153 -205z" />
    <glyph glyph-name="hbar" unicode="&#x127;" horiz-adv-x="624" 
d="M437 0l14 327c6 125 -40 165 -121 165c-97 0 -157 -76 -157 -183l10 -309h-110l16 620h-68l15 60h55l2 80h90l-3 -80h176l10 -60h-188l-5 -158c43 66 101 98 177 98c126 0 191 -79 191 -230l10 -330h-114z" />
    <glyph glyph-name="hdotbelow" unicode="&#x1e25;" horiz-adv-x="624" 
d="M551 0l-10 330c0 151 -65 230 -191 230c-76 0 -134 -32 -177 -98l10 298h-90l-20 -760h110l-10 309c0 107 60 183 157 183c81 0 127 -40 121 -165l-14 -327h114zM365 -146v108h-100v-108h100z" />
    <glyph glyph-name="icaron" unicode="&#x1d0;" horiz-adv-x="261" 
d="M273 800h-68l-88 -120l-88 120h-68l120 -184h72zM73 0h115c-21 199 -26 383 -20 547h-80c1 -172 -2 -355 -15 -547z" />
    <glyph glyph-name="idieresisacute" unicode="&#x1e2f;" horiz-adv-x="261" 
d="M160 796l177 204h-107l-153 -204h83zM68 659v106h-107v-106h107zM272 659v106h-106v-106h106zM73 0h115c-21 199 -26 383 -20 547h-80c1 -172 -2 -355 -15 -547z" />
    <glyph glyph-name="idotbelow" unicode="&#x1ecb;" horiz-adv-x="261" 
d="M173 646l-5 114h-80l-5 -114h90zM73 0h115c-21 199 -26 383 -20 547h-80c1 -172 -2 -355 -15 -547zM180 -146v108h-100v-108h100z" />
    <glyph glyph-name="ihookabove" unicode="&#x1ec9;" horiz-adv-x="261" 
d="M80 665v-21c16 8 30 13 45 13c23 0 32 -8 32 -14s-4 -12 -11 -17l-11 -9c-8 -6 -13 -10 -16 -15c-2 -4 -3 -10 -3 -16v-3h28c0 5 1 9 2 12c1 1 3 4 9 8l11 7c14 11 21 21 21 31s-6 19 -16 26c-10 6 -23 10 -40 10c-16 0 -33 -4 -51 -12zM73 0h115
c-21 199 -26 383 -20 547h-80c1 -172 -2 -355 -15 -547z" />
    <glyph glyph-name="ij" unicode="&#x133;" horiz-adv-x="619" 
d="M173 646l-5 114h-80l-5 -114h90zM546 646l-5 114h-80l-5 -114h90zM73 0h115c-21 199 -26 383 -20 547h-80c1 -172 -2 -355 -15 -547zM440 544l-23 -498c-6 -114 -22 -129 -91 -134h-38l-3 -135l49 -1c118 5 169 71 172 210l19 557z" />
    <glyph glyph-name="imacron" unicode="&#x12b;" horiz-adv-x="261" 
d="M263 634v72h-292v-72h292zM73 0h115c-21 199 -26 383 -20 547h-80c1 -172 -2 -355 -15 -547z" />
    <glyph glyph-name="iogonek" unicode="&#x12f;" horiz-adv-x="261" 
d="M167 658h-100v100h100v-100zM175 -118c21 0 41 5 61 15v-65c-25 -6 -47 -10 -66 -10c-80 0 -116 27 -116 88c0 27 13 56 40 90h-21c13 192 16 375 15 547h80c-6 -164 -1 -348 20 -547h-34c-21 -32 -32 -56 -32 -73c0 -30 18 -45 53 -45z" />
    <glyph glyph-name="itilde" unicode="&#x129;" horiz-adv-x="261" 
d="M88 843l27 -27c24 -22 43 -30 68 -30c59 0 94 50 96 138h-62c0 -27 -3 -46 -9 -58s-15 -18 -28 -18c-8 0 -19 6 -33 19l-28 27c-24 22 -43 30 -68 30c-59 0 -93 -50 -95 -138h61c1 27 4 46 10 58s15 18 27 18c9 0 19 -6 34 -19zM73 0h115c-21 199 -26 383 -20 547h-80
c1 -172 -2 -355 -15 -547z" />
    <glyph glyph-name="kcommaaccent" unicode="&#x137;" horiz-adv-x="646" 
d="M193 0l-15 257l210 -257h185l-302 291l207 256h-115l-185 -216l5 429h-90l-20 -760h120zM169 -289h63l110 157v103h-123v-103z" />
    <glyph glyph-name="lacute" unicode="&#x13a;" horiz-adv-x="342" 
d="M184 934l177 204h-107l-153 -204h83zM269 0v111h-106c2 217 8 389 20 605h-85c-14 -254 -21 -463 -25 -716h196z" />
    <glyph glyph-name="lcaron" unicode="&#x13e;" horiz-adv-x="342" 
d="M218 585h76l98 189v90h-125v-90zM269 0v111h-106c2 217 8 389 20 605h-85c-14 -254 -21 -463 -25 -716h196z" />
    <glyph glyph-name="lcircumflexbelow" unicode="&#x1e3d;" horiz-adv-x="342" 
d="M269 0v111h-106c2 217 8 389 20 605h-85c-14 -254 -21 -463 -25 -716h196zM60 -220l88 120l88 -120h68l-120 184h-72l-120 -184h68z" />
    <glyph glyph-name="lcommaaccent" unicode="&#x13c;" horiz-adv-x="342" 
d="M269 0v111h-106c2 217 8 389 20 605h-85c-14 -254 -21 -463 -25 -716h196zM43 -297h63l110 157v103h-123v-103z" />
    <glyph glyph-name="ldot" unicode="&#x140;" horiz-adv-x="342" 
d="M269 0v111h-106c2 217 8 389 20 605h-85c-14 -254 -21 -463 -25 -716h196zM334 315v124h-103v-124h103z" />
    <glyph glyph-name="ldotbelow" unicode="&#x1e37;" horiz-adv-x="342" 
d="M269 0v111h-106c2 217 8 389 20 605h-85c-14 -254 -21 -463 -25 -716h196zM191 -146v108h-100v-108h100z" />
    <glyph glyph-name="macute" unicode="&#x1e3f;" horiz-adv-x="969" 
d="M156 645l177 204h-107l-153 -204h83zM527 442c-27 77 -93 118 -173 118c-79 0 -135 -31 -176 -98l10 85h-90l-25 -547h125l-10 309c0 106 63 192 155 192c77 0 114 -49 114 -154l-44 -347h124l15 309c5 107 52 188 146 188c76 0 98 -50 98 -155l-34 -342h134l-10 330
c0 147 -64 230 -178 230c-84 0 -136 -38 -181 -118z" />
    <glyph glyph-name="nacute" unicode="&#x144;" horiz-adv-x="639" 
d="M353 796l177 204h-107l-153 -204h83zM565 0l-14 330c-7 151 -71 230 -196 230c-76 0 -134 -40 -177 -74v66h-90l-15 -552h125l-15 314c0 107 52 173 162 173c80 0 111 -51 111 -155l-19 -332h128z" />
    <glyph glyph-name="ncaron" unicode="&#x148;" horiz-adv-x="639" 
d="M466 800h-68l-88 -120l-88 120h-68l120 -184h72zM565 0l-14 330c-7 151 -71 230 -196 230c-76 0 -134 -40 -177 -74v66h-90l-15 -552h125l-15 314c0 107 52 173 162 173c80 0 111 -51 111 -155l-19 -332h128z" />
    <glyph glyph-name="ncircumflexbelow" unicode="&#x1e4b;" horiz-adv-x="639" 
d="M565 0l-14 330c-7 151 -71 230 -196 230c-76 0 -134 -40 -177 -74v66h-90l-15 -552h125l-15 314c0 107 52 173 162 173c80 0 111 -51 111 -155l-19 -332h128zM60 -220l88 120l88 -120h68l-120 184h-72l-120 -184h68z" />
    <glyph glyph-name="ncommaaccent" unicode="&#x146;" horiz-adv-x="639" 
d="M565 0l-14 330c-7 151 -71 230 -196 230c-76 0 -134 -40 -177 -74v66h-90l-15 -552h125l-15 314c0 107 52 173 162 173c80 0 111 -51 111 -155l-19 -332h128zM185 -289h63l110 157v103h-123v-103z" />
    <glyph glyph-name="ndotaccent" unicode="&#x1e45;" horiz-adv-x="639" 
d="M360 658v100h-100v-100h100zM565 0l-14 330c-7 151 -71 230 -196 230c-76 0 -134 -40 -177 -74v66h-90l-15 -552h125l-15 314c0 107 52 173 162 173c80 0 111 -51 111 -155l-19 -332h128z" />
    <glyph glyph-name="ndotbelow" unicode="&#x1e47;" horiz-adv-x="639" 
d="M565 0l-14 330c-7 151 -71 230 -196 230c-76 0 -134 -40 -177 -74v66h-90l-15 -552h125l-15 314c0 107 52 173 162 173c80 0 111 -51 111 -155l-19 -332h128zM353 -146v108h-100v-108h100z" />
    <glyph glyph-name="eng" unicode="&#x14b;" horiz-adv-x="639" 
d="M551 330c0 90 -24 230 -196 230c-76 0 -134 -40 -177 -74v66h-90l-15 -552h125l-15 314c0 107 52 173 162 173c80 0 111 -51 111 -155l-9 -320c0 -22 -124 -43 -135 -66c-16 -29 37 -107 67 -107c2 0 144 47 164 102c9 24 15 38 15 130c0 54 -2 134 -7 259z" />
    <glyph glyph-name="ocaron" unicode="&#x1d2;" horiz-adv-x="648" 
d="M480 800h-68l-88 -120l-88 120h-68l120 -184h72zM324 560c-157 0 -251 -107 -251 -287c0 -179 94 -287 251 -287c156 0 251 108 251 287c0 180 -95 287 -251 287zM324 494c96 0 156 -80 156 -205c0 -127 -60 -148 -156 -148c-97 0 -156 20 -156 148c0 127 60 205 156 205
z" />
    <glyph glyph-name="ocircumflexacute" unicode="&#x1ed1;" horiz-adv-x="648" 
d="M367 796l177 204h-107l-153 -204h83zM236 599l88 120l88 -120h68l-120 184h-72l-120 -184h68zM324 560c-157 0 -251 -107 -251 -287c0 -179 94 -287 251 -287c156 0 251 108 251 287c0 180 -95 287 -251 287zM324 494c96 0 156 -80 156 -205c0 -127 -60 -148 -156 -148
c-97 0 -156 20 -156 148c0 127 60 205 156 205z" />
    <glyph glyph-name="ocircumflexdotbelow" unicode="&#x1ed9;" horiz-adv-x="648" 
d="M236 599l88 120l88 -120h68l-120 184h-72l-120 -184h68zM324 560c-157 0 -251 -107 -251 -287c0 -179 94 -287 251 -287c156 0 251 108 251 287c0 180 -95 287 -251 287zM324 494c96 0 156 -80 156 -205c0 -127 -60 -148 -156 -148c-97 0 -156 20 -156 148
c0 127 60 205 156 205zM337 -146v108h-100v-108h100z" />
    <glyph glyph-name="ocircumflexgrave" unicode="&#x1ed3;" horiz-adv-x="648" 
d="M264 805h133l-138 183h-96zM236 599l88 120l88 -120h68l-120 184h-72l-120 -184h68zM324 560c-157 0 -251 -107 -251 -287c0 -179 94 -287 251 -287c156 0 251 108 251 287c0 180 -95 287 -251 287zM324 494c96 0 156 -80 156 -205c0 -127 -60 -148 -156 -148
c-97 0 -156 20 -156 148c0 127 60 205 156 205z" />
    <glyph glyph-name="ocircumflexhookabove" unicode="&#x1ed5;" horiz-adv-x="648" 
d="M236 599l88 120l88 -120h68l-120 184h-72l-120 -184h68zM505 637v-21c16 8 30 13 45 13c23 0 32 -8 32 -14s-4 -12 -11 -17l-11 -9c-8 -6 -13 -10 -16 -15c-2 -4 -3 -10 -3 -16v-3h28c0 5 1 9 2 12c1 1 3 4 9 8l11 7c14 11 21 21 21 31s-6 19 -16 26c-10 6 -23 10 -40 10
c-16 0 -33 -4 -51 -12zM324 560c-157 0 -251 -107 -251 -287c0 -179 94 -287 251 -287c156 0 251 108 251 287c0 180 -95 287 -251 287zM324 494c96 0 156 -80 156 -205c0 -127 -60 -148 -156 -148c-97 0 -156 20 -156 148c0 127 60 205 156 205z" />
    <glyph glyph-name="ocircumflextilde" unicode="&#x1ed7;" horiz-adv-x="648" 
d="M295 843l27 -27c24 -22 43 -30 68 -30c59 0 94 50 96 138h-62c0 -27 -3 -46 -9 -58s-15 -18 -28 -18c-8 0 -19 6 -33 19l-28 27c-24 22 -43 30 -68 30c-59 0 -93 -50 -95 -138h61c1 27 4 46 10 58s15 18 27 18c9 0 19 -6 34 -19zM236 599l88 120l88 -120h68l-120 184h-72
l-120 -184h68zM324 560c-157 0 -251 -107 -251 -287c0 -179 94 -287 251 -287c156 0 251 108 251 287c0 180 -95 287 -251 287zM324 494c96 0 156 -80 156 -205c0 -127 -60 -148 -156 -148c-97 0 -156 20 -156 148c0 127 60 205 156 205z" />
    <glyph glyph-name="uni022B" unicode="&#x22b;" horiz-adv-x="648" 
d="M178 659h-10v106h107v-59h98v59h106v-106h-9v-25h-292v25zM324 560c156 0 251 -107 251 -287c0 -179 -95 -287 -251 -287c-157 0 -251 108 -251 287c0 180 94 287 251 287zM324 141c96 0 156 21 156 148c0 125 -60 205 -156 205s-156 -78 -156 -205
c0 -128 59 -148 156 -148z" />
    <glyph glyph-name="odotbelow" unicode="&#x1ecd;" horiz-adv-x="648" 
d="M324 560c-157 0 -251 -107 -251 -287c0 -179 94 -287 251 -287c156 0 251 108 251 287c0 180 -95 287 -251 287zM324 494c96 0 156 -80 156 -205c0 -127 -60 -148 -156 -148c-97 0 -156 20 -156 148c0 127 60 205 156 205zM367 -146v108h-100v-108h100z" />
    <glyph glyph-name="ohookabove" unicode="&#x1ecf;" horiz-adv-x="648" 
d="M276 675v-21c16 8 30 13 45 13c23 0 32 -8 32 -14s-4 -12 -11 -17l-11 -9c-8 -6 -13 -10 -16 -15c-2 -4 -3 -10 -3 -16v-3h28c0 5 1 9 2 12c1 1 3 4 9 8l11 7c14 11 21 21 21 31s-6 19 -16 26c-10 6 -23 10 -40 10c-16 0 -33 -4 -51 -12zM324 560
c-157 0 -251 -107 -251 -287c0 -179 94 -287 251 -287c156 0 251 108 251 287c0 180 -95 287 -251 287zM324 494c96 0 156 -80 156 -205c0 -127 -60 -148 -156 -148c-97 0 -156 20 -156 148c0 127 60 205 156 205z" />
    <glyph glyph-name="ohorn" unicode="&#x1a1;" horiz-adv-x="648" 
d="M572 532l48 -6c3 -12 5 -23 5 -32c0 -39 -11 -87 -41 -114l-18 -15c6 -28 9 -59 9 -92c0 -179 -95 -287 -251 -287c-157 0 -251 108 -251 287c0 180 94 287 251 287c110 0 189 -53 227 -147l8 6c22 20 20 66 20 83c0 11 -3 20 -7 30zM324 141c96 0 156 21 156 148
c0 125 -60 205 -156 205s-156 -78 -156 -205c0 -128 59 -148 156 -148z" />
    <glyph glyph-name="ohornacute" unicode="&#x1edb;" horiz-adv-x="648" 
d="M367 796h-83l153 204h107zM572 532l48 -6c3 -12 5 -23 5 -32c0 -39 -11 -87 -41 -114l-18 -15c6 -28 9 -59 9 -92c0 -179 -95 -287 -251 -287c-157 0 -251 108 -251 287c0 180 94 287 251 287c110 0 189 -53 227 -147l8 6c22 20 20 66 20 83c0 11 -3 20 -7 30zM324 141
c96 0 156 21 156 148c0 125 -60 205 -156 205s-156 -78 -156 -205c0 -128 59 -148 156 -148z" />
    <glyph glyph-name="ohorndotbelow" unicode="&#x1ee3;" horiz-adv-x="648" 
d="M572 532l48 -6c3 -12 5 -23 5 -32c0 -39 -11 -87 -41 -114l-18 -15c6 -28 9 -59 9 -92c0 -179 -95 -287 -251 -287c-157 0 -251 108 -251 287c0 180 94 287 251 287c110 0 189 -53 227 -147l8 6c22 20 20 66 20 83c0 11 -3 20 -7 30zM324 141c96 0 156 21 156 148
c0 125 -60 205 -156 205s-156 -78 -156 -205c0 -128 59 -148 156 -148zM267 -38h100v-108h-100v108z" />
    <glyph glyph-name="ohorngrave" unicode="&#x1edd;" horiz-adv-x="648" 
d="M264 805l-101 183h96l138 -183h-133zM572 532l48 -6c3 -12 5 -23 5 -32c0 -39 -11 -87 -41 -114l-18 -15c6 -28 9 -59 9 -92c0 -179 -95 -287 -251 -287c-157 0 -251 108 -251 287c0 180 94 287 251 287c110 0 189 -53 227 -147l8 6c22 20 20 66 20 83c0 11 -3 20 -7 30z
M324 141c96 0 156 21 156 148c0 125 -60 205 -156 205s-156 -78 -156 -205c0 -128 59 -148 156 -148z" />
    <glyph glyph-name="ohornhookabove" unicode="&#x1edf;" horiz-adv-x="648" 
d="M358 657c0 6 -9 14 -32 14c-15 0 -29 -5 -45 -13v21c18 8 35 12 51 12c17 0 30 -4 40 -10c10 -7 16 -16 16 -26s-7 -20 -21 -31l-11 -7c-6 -4 -8 -7 -9 -8c-1 -3 -2 -7 -2 -12h-28v3c0 6 1 12 3 16c3 5 8 9 16 15l11 9c7 5 11 11 11 17zM572 532l48 -6c3 -12 5 -23 5 -32
c0 -39 -11 -87 -41 -114l-18 -15c6 -28 9 -59 9 -92c0 -179 -95 -287 -251 -287c-157 0 -251 108 -251 287c0 180 94 287 251 287c110 0 189 -53 227 -147l8 6c22 20 20 66 20 83c0 11 -3 20 -7 30zM324 141c96 0 156 21 156 148c0 125 -60 205 -156 205s-156 -78 -156 -205
c0 -128 59 -148 156 -148z" />
    <glyph glyph-name="ohorntilde" unicode="&#x1ee1;" horiz-adv-x="648" 
d="M234 844c-6 -12 -9 -31 -10 -58h-61c2 88 36 138 95 138c25 0 44 -8 68 -30l28 -27c14 -13 25 -19 33 -19c13 0 22 6 28 18s9 31 9 58h62c-2 -88 -37 -138 -96 -138c-25 0 -44 8 -68 30l-27 27c-15 13 -25 19 -34 19c-12 0 -21 -6 -27 -18zM572 532l48 -6
c3 -12 5 -23 5 -32c0 -39 -11 -87 -41 -114l-18 -15c6 -28 9 -59 9 -92c0 -179 -95 -287 -251 -287c-157 0 -251 108 -251 287c0 180 94 287 251 287c110 0 189 -53 227 -147l8 6c22 20 20 66 20 83c0 11 -3 20 -7 30zM324 141c96 0 156 21 156 148c0 125 -60 205 -156 205
s-156 -78 -156 -205c0 -128 59 -148 156 -148z" />
    <glyph glyph-name="ohungarumlaut" unicode="&#x151;" horiz-adv-x="648" 
d="M219 616l109 184h-83l-93 -184h67zM374 616l121 184h-87l-100 -184h66zM324 560c-157 0 -251 -107 -251 -287c0 -179 94 -287 251 -287c156 0 251 108 251 287c0 180 -95 287 -251 287zM324 494c96 0 156 -80 156 -205c0 -127 -60 -148 -156 -148c-97 0 -156 20 -156 148
c0 127 60 205 156 205z" />
    <glyph glyph-name="omacron" unicode="&#x14d;" horiz-adv-x="648" 
d="M470 634v72h-292v-72h292zM324 560c-157 0 -251 -107 -251 -287c0 -179 94 -287 251 -287c156 0 251 108 251 287c0 180 -95 287 -251 287zM324 494c96 0 156 -80 156 -205c0 -127 -60 -148 -156 -148c-97 0 -156 20 -156 148c0 127 60 205 156 205z" />
    <glyph glyph-name="omacronacute" unicode="&#x1e53;" horiz-adv-x="648" 
d="M367 796l177 204h-107l-153 -204h83zM470 634v72h-292v-72h292zM324 560c-157 0 -251 -107 -251 -287c0 -179 94 -287 251 -287c156 0 251 108 251 287c0 180 -95 287 -251 287zM324 494c96 0 156 -80 156 -205c0 -127 -60 -148 -156 -148c-97 0 -156 20 -156 148
c0 127 60 205 156 205z" />
    <glyph glyph-name="omacrongrave" unicode="&#x1e51;" horiz-adv-x="648" 
d="M264 805h133l-138 183h-96zM470 634v72h-292v-72h292zM324 560c-157 0 -251 -107 -251 -287c0 -179 94 -287 251 -287c156 0 251 108 251 287c0 180 -95 287 -251 287zM324 494c96 0 156 -80 156 -205c0 -127 -60 -148 -156 -148c-97 0 -156 20 -156 148
c0 127 60 205 156 205z" />
    <glyph glyph-name="oslashacute" unicode="&#x1ff;" horiz-adv-x="688" 
d="M387 796l177 204h-107l-153 -204h83zM120 -46l68 82c41 -33 94 -50 156 -50c156 0 251 108 251 287c0 78 -17 143 -52 193l71 87l-46 39l-68 -82c-43 33 -95 50 -156 50c-156 0 -251 -107 -251 -287c0 -78 18 -142 53 -192l-73 -89zM445 444l-238 -289
c-13 30 -19 64 -19 111c0 137 58 218 156 218c41 0 74 -13 101 -40zM242 102l238 289c14 -30 20 -67 20 -118c0 -130 -60 -211 -156 -211c-42 0 -75 13 -102 40z" />
    <glyph glyph-name="otildeacute" unicode="&#x1e4d;" horiz-adv-x="648" 
d="M234 844c-6 -12 -9 -31 -10 -58h-61c2 88 36 138 95 138c25 0 44 -8 68 -30l18 -18l93 124h107l-66 -76h8c-2 -88 -37 -138 -96 -138c-15 0 -28 3 -41 10h-65l25 33l-14 14c-15 13 -25 19 -34 19c-12 0 -21 -6 -27 -18zM324 560c156 0 251 -107 251 -287
c0 -179 -95 -287 -251 -287c-157 0 -251 108 -251 287c0 180 94 287 251 287zM324 141c96 0 156 21 156 148c0 125 -60 205 -156 205s-156 -78 -156 -205c0 -128 59 -148 156 -148z" />
    <glyph glyph-name="racute" unicode="&#x155;" horiz-adv-x="478" 
d="M239 796l177 204h-107l-153 -204h83zM405 453l-1 92c-18 4 -28 5 -40 5c-87 0 -152 -50 -170 -64v56h-83c8 -234 3 -316 -38 -542h141l-20 273c0 118 42 192 143 192c29 0 48 0 68 -12z" />
    <glyph glyph-name="rcaron" unicode="&#x159;" horiz-adv-x="478" 
d="M352 800h-68l-88 -120l-88 120h-68l120 -184h72zM405 453l-1 92c-18 4 -28 5 -40 5c-87 0 -152 -50 -170 -64v56h-83c8 -234 3 -316 -38 -542h141l-20 273c0 118 42 192 143 192c29 0 48 0 68 -12z" />
    <glyph glyph-name="rcommaaccent" unicode="&#x157;" horiz-adv-x="478" 
d="M405 453l-1 92c-18 4 -28 5 -40 5c-87 0 -152 -50 -170 -64v56h-83c8 -234 3 -316 -38 -542h141l-20 273c0 118 42 192 143 192c29 0 48 0 68 -12zM22 -286h63l110 157v103h-123v-103z" />
    <glyph glyph-name="sacute" unicode="&#x15b;" horiz-adv-x="564" 
d="M317 796l177 204h-107l-153 -204h83zM462 456v75c-49 19 -108 29 -175 29c-134 0 -210 -58 -210 -161c0 -85 47 -121 158 -144l31 -7c56 -13 88 -23 95 -32c8 -9 17 -23 28 -43c0 -47 -37 -73 -122 -73c-63 0 -127 17 -194 52v-132c71 -23 134 -34 192 -34
c141 0 226 63 226 165c0 89 -49 130 -176 157l-31 7c-96 21 -125 44 -125 93c0 54 49 87 139 87c58 0 113 -14 164 -39z" />
    <glyph glyph-name="scommaaccent" unicode="&#x219;" horiz-adv-x="564" 
d="M462 456v75c-49 19 -108 29 -175 29c-134 0 -210 -58 -210 -161c0 -85 47 -121 158 -144l31 -7c56 -13 88 -23 95 -32c8 -9 17 -23 28 -43c0 -47 -37 -73 -122 -73c-63 0 -127 17 -194 52v-132c71 -23 134 -34 192 -34c141 0 226 63 226 165c0 89 -49 130 -176 157l-31 7
c-96 21 -125 44 -125 93c0 54 49 87 139 87c58 0 113 -14 164 -39zM145 -297h63l110 157v103h-123v-103z" />
    <glyph glyph-name="sdotbelow" unicode="&#x1e63;" horiz-adv-x="564" 
d="M462 456v75c-49 19 -108 29 -175 29c-134 0 -210 -58 -210 -161c0 -85 47 -121 158 -144l31 -7c56 -13 88 -23 95 -32c8 -9 17 -23 28 -43c0 -47 -37 -73 -122 -73c-63 0 -127 17 -194 52v-132c71 -23 134 -34 192 -34c141 0 226 63 226 165c0 89 -49 130 -176 157l-31 7
c-96 21 -125 44 -125 93c0 54 49 87 139 87c58 0 113 -14 164 -39zM313 -146v108h-100v-108h100z" />
    <glyph glyph-name="tbar" unicode="&#x167;" horiz-adv-x="488" 
d="M336 748v72h-292v-72h292zM139 547h-66v-70h66l-5 -297c0 -137 50 -180 188 -180h93v134h-93c-74 0 -93 15 -93 105l5 238h127v70h-127l5 136h-95z" />
    <glyph glyph-name="tcaron" unicode="&#x165;" horiz-adv-x="488" 
d="M273 645h76l98 189v90h-125v-90zM139 547h-66v-70h66l-5 -297c0 -137 50 -180 188 -180h93v134h-93c-74 0 -93 15 -93 105l5 238h127v70h-127l5 136h-95z" />
    <glyph glyph-name="tcedilla" unicode="&#x163;" horiz-adv-x="488" 
d="M415 0h-85c36 -41 53 -74 53 -105c0 -58 -39 -88 -116 -88c-30 0 -58 4 -86 12v64c22 -11 45 -16 76 -16c39 0 58 16 58 46c0 20 -14 47 -43 87h50c-138 0 -188 43 -188 180l5 297h-66v70h66l5 136h95l-5 -136h127v-70h-127l-5 -238c0 -90 19 -105 93 -105h93v-134z" />
    <glyph glyph-name="tcircumflexbelow" unicode="&#x1e71;" horiz-adv-x="488" 
d="M139 547h-66v-70h66l-5 -297c0 -137 50 -180 188 -180h93v134h-93c-74 0 -93 15 -93 105l5 238h127v70h-127l5 136h-95zM214 -245l88 120l88 -120h68l-120 184h-72l-120 -184h68z" />
    <glyph glyph-name="uni021B" unicode="&#x21b;" horiz-adv-x="488" 
d="M139 547h-66v-70h66l-5 -297c0 -137 50 -180 188 -180h93v134h-93c-74 0 -93 15 -93 105l5 238h127v70h-127l5 136h-95zM132 -277h63l110 157v103h-123v-103z" />
    <glyph glyph-name="tdotbelow" unicode="&#x1e6d;" horiz-adv-x="488" 
d="M139 547h-66v-70h66l-5 -297c0 -137 50 -180 188 -180h93v134h-93c-74 0 -93 15 -93 105l5 238h127v70h-127l5 136h-95zM318 -146v108h-100v-108h100z" />
    <glyph glyph-name="tlinebelow" unicode="&#x1e6f;" horiz-adv-x="488" 
d="M139 547h-66v-70h66l-5 -297c0 -137 50 -180 188 -180h93v134h-93c-74 0 -93 15 -93 105l5 238h127v70h-127l5 136h-95zM360 -125l4 81l-263 -5l-4 -80z" />
    <glyph glyph-name="ucaron" unicode="&#x1d4;" horiz-adv-x="609" 
d="M464 800h-68l-88 -120l-88 120h-68l120 -184h72zM73 547v-331c0 -151 67 -230 192 -230c76 0 133 32 176 98l-4 -84h89l10 547h-99l-10 -232c-7 -107 -60 -173 -157 -173c-81 0 -115 52 -122 155v250h-75z" />
    <glyph glyph-name="udieresisacute" unicode="&#x1d8;" horiz-adv-x="609" 
d="M351 796l177 204h-107l-153 -204h83zM259 659v106h-107v-106h107zM463 659v106h-106v-106h106zM73 547v-331c0 -151 67 -230 192 -230c76 0 133 32 176 98l-4 -84h89l10 547h-99l-10 -232c-7 -107 -60 -173 -157 -173c-81 0 -115 52 -122 155v250h-75z" />
    <glyph glyph-name="udieresiscaron" unicode="&#x1da;" horiz-adv-x="609" 
d="M244 659h-92v106h23l-23 35h68l26 -35h13v-18l49 -67l49 67v18h13l26 35h68l-23 -35h22v-106h-91l-28 -43h-72zM536 547l-10 -547h-89l4 84c-43 -66 -100 -98 -176 -98c-125 0 -192 79 -192 230v331h75v-250c7 -103 41 -155 122 -155c97 0 150 66 157 173l10 232h99z" />
    <glyph glyph-name="udieresisgrave" unicode="&#x1dc;" horiz-adv-x="609" 
d="M248 805h133l-138 183h-96zM259 659v106h-107v-106h107zM463 659v106h-106v-106h106zM73 547v-331c0 -151 67 -230 192 -230c76 0 133 32 176 98l-4 -84h89l10 547h-99l-10 -232c-7 -107 -60 -173 -157 -173c-81 0 -115 52 -122 155v250h-75z" />
    <glyph glyph-name="udieresismacron" unicode="&#x1d6;" horiz-adv-x="609" 
d="M162 659h-10v106h107v-59h98v59h106v-106h-9v-25h-292v25zM536 547l-10 -547h-89l4 84c-43 -66 -100 -98 -176 -98c-125 0 -192 79 -192 230v331h75v-250c7 -103 41 -155 122 -155c97 0 150 66 157 173l10 232h99z" />
    <glyph glyph-name="udotbelow" unicode="&#x1ee5;" horiz-adv-x="609" 
d="M73 547v-331c0 -151 67 -230 192 -230c76 0 133 32 176 98l-4 -84h89l10 547h-99l-10 -232c-7 -107 -60 -173 -157 -173c-81 0 -115 52 -122 155v250h-75zM308 -146v108h-100v-108h100z" />
    <glyph glyph-name="uhookabove" unicode="&#x1ee7;" horiz-adv-x="609" 
d="M223 615v-21c16 8 30 13 45 13c23 0 32 -8 32 -14s-4 -12 -11 -17l-11 -9c-8 -6 -13 -10 -16 -15c-2 -4 -3 -10 -3 -16v-3h28c0 5 1 9 2 12c1 1 3 4 9 8l11 7c14 11 21 21 21 31s-6 19 -16 26c-10 6 -23 10 -40 10c-16 0 -33 -4 -51 -12zM73 547v-331
c0 -151 67 -230 192 -230c76 0 133 32 176 98l-4 -84h89l10 547h-99l-10 -232c-7 -107 -60 -173 -157 -173c-81 0 -115 52 -122 155v250h-75z" />
    <glyph glyph-name="uhorn" unicode="&#x1b0;" horiz-adv-x="609" 
d="M570 586l48 -6c3 -12 5 -23 5 -32c0 -39 -11 -87 -41 -114c-22 -18 -24 -22 -49 -34l-7 -400h-89l4 84c-43 -66 -100 -98 -176 -98c-125 0 -192 79 -192 230v331h75v-250c7 -103 41 -155 122 -155c97 0 150 66 157 173l10 232h99l-2 -88c9 5 16 8 23 14
c22 20 20 66 20 83c0 11 -3 20 -7 30z" />
    <glyph glyph-name="uhornacute" unicode="&#x1ee9;" horiz-adv-x="609" 
d="M351 796h-83l153 204h107zM570 586l48 -6c3 -12 5 -23 5 -32c0 -39 -11 -87 -41 -114c-22 -18 -24 -22 -49 -34l-7 -400h-89l4 84c-43 -66 -100 -98 -176 -98c-125 0 -192 79 -192 230v331h75v-250c7 -103 41 -155 122 -155c97 0 150 66 157 173l10 232h99l-2 -88
c9 5 16 8 23 14c22 20 20 66 20 83c0 11 -3 20 -7 30z" />
    <glyph glyph-name="uhorndotbelow" unicode="&#x1ef1;" horiz-adv-x="609" 
d="M570 586l48 -6c3 -12 5 -23 5 -32c0 -39 -11 -87 -41 -114c-22 -18 -24 -22 -49 -34l-7 -400h-89l4 84c-43 -66 -100 -98 -176 -98c-125 0 -192 79 -192 230v331h75v-250c7 -103 41 -155 122 -155c97 0 150 66 157 173l10 232h99l-2 -88c9 5 16 8 23 14
c22 20 20 66 20 83c0 11 -3 20 -7 30zM208 -38h100v-108h-100v108z" />
    <glyph glyph-name="uhorngrave" unicode="&#x1eeb;" horiz-adv-x="609" 
d="M248 805l-101 183h96l138 -183h-133zM570 586l48 -6c3 -12 5 -23 5 -32c0 -39 -11 -87 -41 -114c-22 -18 -24 -22 -49 -34l-7 -400h-89l4 84c-43 -66 -100 -98 -176 -98c-125 0 -192 79 -192 230v331h75v-250c7 -103 41 -155 122 -155c97 0 150 66 157 173l10 232h99
l-2 -88c9 5 16 8 23 14c22 20 20 66 20 83c0 11 -3 20 -7 30z" />
    <glyph glyph-name="uhornhookabove" unicode="&#x1eed;" horiz-adv-x="609" 
d="M323 608c0 6 -9 14 -32 14c-15 0 -29 -5 -45 -13v21c18 8 35 12 51 12c17 0 30 -4 40 -10c10 -7 16 -16 16 -26s-7 -20 -21 -31l-11 -7c-6 -4 -8 -7 -9 -8c-1 -3 -2 -7 -2 -12h-28v3c0 6 1 12 3 16c3 5 8 9 16 15l11 9c7 5 11 11 11 17zM570 586l48 -6c3 -12 5 -23 5 -32
c0 -39 -11 -87 -41 -114c-22 -18 -24 -22 -49 -34l-7 -400h-89l4 84c-43 -66 -100 -98 -176 -98c-125 0 -192 79 -192 230v331h75v-250c7 -103 41 -155 122 -155c97 0 150 66 157 173l10 232h99l-2 -88c9 5 16 8 23 14c22 20 20 66 20 83c0 11 -3 20 -7 30z" />
    <glyph glyph-name="uhorntilde" unicode="&#x1eef;" horiz-adv-x="609" 
d="M218 844c-6 -12 -9 -31 -10 -58h-61c2 88 36 138 95 138c25 0 44 -8 68 -30l28 -27c14 -13 25 -19 33 -19c13 0 22 6 28 18s9 31 9 58h62c-2 -88 -37 -138 -96 -138c-25 0 -44 8 -68 30l-27 27c-15 13 -25 19 -34 19c-12 0 -21 -6 -27 -18zM570 586l48 -6
c3 -12 5 -23 5 -32c0 -39 -11 -87 -41 -114c-22 -18 -24 -22 -49 -34l-7 -400h-89l4 84c-43 -66 -100 -98 -176 -98c-125 0 -192 79 -192 230v331h75v-250c7 -103 41 -155 122 -155c97 0 150 66 157 173l10 232h99l-2 -88c9 5 16 8 23 14c22 20 20 66 20 83
c0 11 -3 20 -7 30z" />
    <glyph glyph-name="uhungarumlaut" unicode="&#x171;" horiz-adv-x="609" 
d="M203 616l109 184h-83l-93 -184h67zM358 616l121 184h-87l-100 -184h66zM73 547v-331c0 -151 67 -230 192 -230c76 0 133 32 176 98l-4 -84h89l10 547h-99l-10 -232c-7 -107 -60 -173 -157 -173c-81 0 -115 52 -122 155v250h-75z" />
    <glyph glyph-name="umacron" unicode="&#x16b;" horiz-adv-x="609" 
d="M454 634v72h-292v-72h292zM73 547v-331c0 -151 67 -230 192 -230c76 0 133 32 176 98l-4 -84h89l10 547h-99l-10 -232c-7 -107 -60 -173 -157 -173c-81 0 -115 52 -122 155v250h-75z" />
    <glyph glyph-name="uogonek" unicode="&#x173;" horiz-adv-x="609" 
d="M527 -128c21 0 41 5 61 15v-65c-25 -6 -47 -10 -66 -10c-80 0 -116 27 -116 88c0 30 16 61 49 100h-18l4 84c-43 -66 -100 -98 -176 -98c-125 0 -192 79 -192 230v331h75v-250c7 -103 41 -155 122 -155c97 0 150 66 157 173l10 232h99l-10 -547h-13
c-26 -37 -39 -64 -39 -83c0 -30 18 -45 53 -45z" />
    <glyph glyph-name="uring" unicode="&#x16f;" horiz-adv-x="609" 
d="M442 744c0 75 -59 134 -134 134s-134 -59 -134 -134s59 -134 134 -134s134 59 134 134zM382 744c0 -41 -32 -74 -74 -74s-74 32 -74 74s32 74 74 74s74 -33 74 -74zM73 547v-331c0 -151 67 -230 192 -230c76 0 133 32 176 98l-4 -84h89l10 547h-99l-10 -232
c-7 -107 -60 -173 -157 -173c-81 0 -115 52 -122 155v250h-75z" />
    <glyph glyph-name="utilde" unicode="&#x169;" horiz-adv-x="609" 
d="M279 843l27 -27c24 -22 43 -30 68 -30c59 0 94 50 96 138h-62c0 -27 -3 -46 -9 -58s-15 -18 -28 -18c-8 0 -19 6 -33 19l-28 27c-24 22 -43 30 -68 30c-59 0 -93 -50 -95 -138h61c1 27 4 46 10 58s15 18 27 18c9 0 19 -6 34 -19zM73 547v-331c0 -151 67 -230 192 -230
c76 0 133 32 176 98l-4 -84h89l10 547h-99l-10 -232c-7 -107 -60 -173 -157 -173c-81 0 -115 52 -122 155v250h-75z" />
    <glyph glyph-name="wacute" unicode="&#x1e83;" horiz-adv-x="880" 
d="M483 796l177 204h-107l-153 -204h83zM337 0l103 248l99 -248h125l143 547h-90l-112 -383l-102 202h-126l-102 -202l-112 383h-90l143 -547h121z" />
    <glyph glyph-name="wcircumflex" unicode="&#x175;" horiz-adv-x="880" 
d="M352 599l88 120l88 -120h68l-120 184h-72l-120 -184h68zM337 0l103 248l99 -248h125l143 547h-90l-112 -383l-102 202h-126l-102 -202l-112 383h-90l143 -547h121z" />
    <glyph glyph-name="wdieresis" unicode="&#x1e85;" horiz-adv-x="880" 
d="M391 659v106h-107v-106h107zM595 659v106h-106v-106h106zM337 0l103 248l99 -248h125l143 547h-90l-112 -383l-102 202h-126l-102 -202l-112 383h-90l143 -547h121z" />
    <glyph glyph-name="wgrave" unicode="&#x1e81;" horiz-adv-x="880" 
d="M380 805h133l-138 183h-96zM337 0l103 248l99 -248h125l143 547h-90l-112 -383l-102 202h-126l-102 -202l-112 383h-90l143 -547h121z" />
    <glyph glyph-name="ycircumflex" unicode="&#x177;" horiz-adv-x="679" 
d="M208 599l88 120l88 -120h68l-120 184h-72l-120 -184h68zM510 547l-148 -318l-194 318h-95l234 -502l-38 -77c-34 -42 -54 -67 -103 -67h-63v-119h82c80 0 126 24 190 167l230 598h-95z" />
    <glyph glyph-name="ydotbelow" unicode="&#x1ef5;" horiz-adv-x="679" 
d="M510 547l-148 -318l-194 318h-95l234 -502l-38 -77c-34 -42 -54 -67 -103 -67h-63v-119h82c80 0 126 24 190 167l230 598h-95zM479 -200v108h-100v-108h100z" />
    <glyph glyph-name="ygrave" unicode="&#x1ef3;" horiz-adv-x="679" 
d="M236 805h133l-138 183h-96zM510 547l-148 -318l-194 318h-95l234 -502l-38 -77c-34 -42 -54 -67 -103 -67h-63v-119h82c80 0 126 24 190 167l230 598h-95z" />
    <glyph glyph-name="yhookabove" unicode="&#x1ef7;" horiz-adv-x="679" 
d="M296 634v-21c16 8 30 13 45 13c23 0 32 -8 32 -14s-4 -12 -11 -17l-11 -9c-8 -6 -13 -10 -16 -15c-2 -4 -3 -10 -3 -16v-3h28c0 5 1 9 2 12c1 1 3 4 9 8l11 7c14 11 21 21 21 31s-6 19 -16 26c-10 6 -23 10 -40 10c-16 0 -33 -4 -51 -12zM510 547l-148 -318l-194 318h-95
l234 -502l-38 -77c-34 -42 -54 -67 -103 -67h-63v-119h82c80 0 126 24 190 167l230 598h-95z" />
    <glyph glyph-name="ytilde" unicode="&#x1ef9;" horiz-adv-x="679" 
d="M267 843l27 -27c24 -22 43 -30 68 -30c59 0 94 50 96 138h-62c0 -27 -3 -46 -9 -58s-15 -18 -28 -18c-8 0 -19 6 -33 19l-28 27c-24 22 -43 30 -68 30c-59 0 -93 -50 -95 -138h61c1 27 4 46 10 58s15 18 27 18c9 0 19 -6 34 -19zM510 547l-148 -318l-194 318h-95
l234 -502l-38 -77c-34 -42 -54 -67 -103 -67h-63v-119h82c80 0 126 24 190 167l230 598h-95z" />
    <glyph glyph-name="zacute" unicode="&#x17a;" horiz-adv-x="590" 
d="M361 796l177 204h-107l-153 -204h83zM421 480l-348 -349v-131h439v121h-304l309 344v82h-422v-67h326z" />
    <glyph glyph-name="zdotaccent" unicode="&#x17c;" horiz-adv-x="590" 
d="M368 658v100h-100v-100h100zM421 480l-348 -349v-131h439v121h-304l309 344v82h-422v-67h326z" />
    <glyph glyph-name="zdotbelow" unicode="&#x1e93;" horiz-adv-x="590" 
d="M421 480l-348 -349v-131h439v121h-304l309 344v82h-422v-67h326zM337 -146v108h-100v-108h100z" />
    <glyph glyph-name="y.001" horiz-adv-x="679" 
d="M315 -25h62c-13 -184 -151 -221 -314 -221v-155h81c332 0 349 391 450 948h-128c-28 -296 -56 -433 -128 -433c-239 0 -155 111 -174 433h-96c0 -319 -28 -572 247 -572z" />
    <glyph glyph-name="uni0410" unicode="&#x410;" horiz-adv-x="814" 
d="M207 0l37 119h328l28 -119h141l-287 729h-93l-288 -729h134zM273 235l134 404l135 -404h-269z" />
    <glyph glyph-name="uni0411" unicode="&#x411;" 
 />
    <glyph glyph-name="uni0412" unicode="&#x412;" horiz-adv-x="673" 
d="M73 0h262c164 0 265 74 265 204c0 99 -58 168 -187 189c80 13 123 66 123 156c0 115 -85 180 -235 180h-228v-729zM172 663h146c96 0 143 -51 143 -125s-47 -110 -143 -110h-146v235zM172 348h158c53 0 92 -11 118 -32c26 -22 38 -41 38 -57c0 -91 -50 -114 -156 -114
h-158v203z" />
    <glyph glyph-name="uni0413" unicode="&#x413;" 
 />
    <glyph glyph-name="uni0403" unicode="&#x403;" 
d="M156 645l177 204h-107l-153 -204h83z" />
    <glyph glyph-name="uni0490" unicode="&#x490;" 
 />
    <glyph glyph-name="uni0414" unicode="&#x414;" 
 />
    <glyph glyph-name="uni0415" unicode="&#x415;" horiz-adv-x="616" 
d="M543 0v151h-371v196h347v83h-347v216h362v83h-461v-729h470z" />
    <glyph glyph-name="uni0401" unicode="&#x401;" horiz-adv-x="616" 
d="M243 817v106h-107v-106h107zM447 817v106h-106v-106h106zM543 0v151h-371v196h347v83h-347v216h362v83h-461v-729h470z" />
    <glyph glyph-name="uni0416" unicode="&#x416;" 
 />
    <glyph glyph-name="uni0417" unicode="&#x417;" 
 />
    <glyph glyph-name="uni0418" unicode="&#x418;" 
 />
    <glyph glyph-name="uni0419" unicode="&#x419;" 
 />
    <glyph glyph-name="uni041A" unicode="&#x41a;" 
 />
    <glyph glyph-name="uni040C" unicode="&#x40c;" 
d="M156 645l177 204h-107l-153 -204h83z" />
    <glyph glyph-name="uni041B" unicode="&#x41b;" 
 />
    <glyph glyph-name="uni041C" unicode="&#x41c;" horiz-adv-x="833" 
d="M198 0l-19 640l178 -524h119l178 524l-20 -640h126l-15 729h-137l-192 -433l-181 433h-147l-15 -729h125z" />
    <glyph glyph-name="uni041D" unicode="&#x41d;" horiz-adv-x="712" 
d="M187 0v245h338v-245h114l-10 729h-104v-348h-338v348h-104l-10 -729h114z" />
    <glyph glyph-name="uni041E" unicode="&#x41e;" horiz-adv-x="821" 
d="M411 742c-205 0 -338 -148 -338 -378c0 -231 133 -378 338 -378s337 148 337 378s-132 378 -337 378zM411 662c143 0 233 -114 233 -298c0 -151 -90 -191 -233 -191s-234 40 -234 191c0 184 91 298 234 298z" />
    <glyph glyph-name="uni041F" unicode="&#x41f;" 
 />
    <glyph glyph-name="uni0420" unicode="&#x420;" horiz-adv-x="642" 
d="M191 0l10 283h119c164 0 248 84 248 228c0 143 -84 218 -248 218h-217l-30 -729h118zM206 687h124c98 0 154 -49 154 -137s-56 -137 -154 -137h-134z" />
    <glyph glyph-name="uni0421" unicode="&#x421;" horiz-adv-x="734" 
d="M661 569v104c-68 46 -144 69 -232 69c-221 0 -356 -144 -356 -378s135 -378 356 -378c86 0 163 23 232 70v172c-66 -62 -141 -93 -226 -93c-166 0 -255 58 -258 229c0 193 92 297 258 297c85 0 160 -30 226 -92z" />
    <glyph glyph-name="uni0422" unicode="&#x422;" horiz-adv-x="763" 
d="M332 656l-19 -656h138l-20 656l259 -10v83h-617v-83z" />
    <glyph glyph-name="uni0423" unicode="&#x423;" 
 />
    <glyph glyph-name="uni040E" unicode="&#x40e;" 
d="M131 785h-58c7 -93 59 -140 153 -140s147 47 153 140h-58c-8 -49 -39 -73 -95 -73c-57 0 -88 24 -95 73z" />
    <glyph glyph-name="uni0424" unicode="&#x424;" 
 />
    <glyph glyph-name="uni0425" unicode="&#x425;" horiz-adv-x="771" 
d="M73 0h160l153 261l152 -261h159l-240 340l225 389h-106l-182 -310l-182 310h-106l218 -389z" />
    <glyph glyph-name="uni0427" unicode="&#x427;" 
 />
    <glyph glyph-name="uni0426" unicode="&#x426;" 
 />
    <glyph glyph-name="uni0428" unicode="&#x428;" 
 />
    <glyph glyph-name="uni0429" unicode="&#x429;" 
 />
    <glyph glyph-name="uni040F" unicode="&#x40f;" 
 />
    <glyph glyph-name="uni042F" unicode="&#x42f;" 
 />
    <glyph glyph-name="uni042C" unicode="&#x42c;" 
 />
    <glyph glyph-name="uni042A" unicode="&#x42a;" 
 />
    <glyph glyph-name="uni042B" unicode="&#x42b;" 
 />
    <glyph glyph-name="uni0409" unicode="&#x409;" 
 />
    <glyph glyph-name="uni040A" unicode="&#x40a;" 
 />
    <glyph glyph-name="uni0405" unicode="&#x405;" horiz-adv-x="660" 
d="M542 609v96c-74 25 -145 37 -213 37c-160 0 -256 -79 -256 -208c0 -111 62 -170 209 -199l60 -12c100 -20 141 -66 141 -105c0 -43 -63 -98 -176 -98c-74 0 -151 23 -231 68v-156c84 -31 162 -46 231 -46c183 0 279 74 279 215c0 119 -68 188 -215 216l-59 12
c-108 20 -140 49 -140 113c0 77 61 120 168 120c62 0 128 -17 202 -53z" />
    <glyph glyph-name="uni0404" unicode="&#x404;" 
 />
    <glyph glyph-name="uni042D" unicode="&#x42d;" 
 />
    <glyph glyph-name="uni0406" unicode="&#x406;" horiz-adv-x="265" 
d="M73 0h118c-13 243 -11 486 -14 729h-84c-5 -243 -5 -486 -20 -729z" />
    <glyph glyph-name="uni0407" unicode="&#x407;" horiz-adv-x="265" 
d="M88 841v106h-107v-106h107zM292 841v106h-106v-106h106zM73 0h118c-13 243 -11 486 -14 729h-84c-5 -243 -5 -486 -20 -729z" />
    <glyph glyph-name="uni0408" unicode="&#x408;" horiz-adv-x="452" 
d="M275 730l-26 -693c-1 -41 -39 -88 -126 -92l-50 11l2 -161l57 -6c155 3 217 66 221 242l26 692z" />
    <glyph glyph-name="uni040B" unicode="&#x40b;" 
 />
    <glyph glyph-name="uni042E" unicode="&#x42e;" 
 />
    <glyph glyph-name="uni0402" unicode="&#x402;" 
 />
    <glyph glyph-name="uni0462" unicode="&#x462;" 
 />
    <glyph glyph-name="uni0472" unicode="&#x472;" 
 />
    <glyph glyph-name="uni0474" unicode="&#x474;" 
 />
    <glyph glyph-name="uni0492" unicode="&#x492;" 
 />
    <glyph glyph-name="uni0494" unicode="&#x494;" 
 />
    <glyph glyph-name="uni0496" unicode="&#x496;" 
 />
    <glyph glyph-name="uni0498" unicode="&#x498;" 
d="M222 0h-58c29 -40 43 -67 43 -87c0 -30 -19 -46 -58 -46c-31 0 -54 5 -76 16v-64c28 -8 56 -12 86 -12c77 0 116 30 116 88c0 31 -17 64 -53 105z" />
    <glyph glyph-name="uni049A" unicode="&#x49a;" 
 />
    <glyph glyph-name="uni049C" unicode="&#x49c;" 
 />
    <glyph glyph-name="uni049E" unicode="&#x49e;" 
 />
    <glyph glyph-name="uni04A0" unicode="&#x4a0;" 
 />
    <glyph glyph-name="uni04A2" unicode="&#x4a2;" 
 />
    <glyph glyph-name="uni04A6" unicode="&#x4a6;" 
 />
    <glyph glyph-name="uni04A8" unicode="&#x4a8;" 
 />
    <glyph glyph-name="uni04AA" unicode="&#x4aa;" 
 />
    <glyph glyph-name="uni04AC" unicode="&#x4ac;" 
 />
    <glyph glyph-name="uni04AE" unicode="&#x4ae;" 
 />
    <glyph glyph-name="uni04B0" unicode="&#x4b0;" 
 />
    <glyph glyph-name="uni04B2" unicode="&#x4b2;" 
 />
    <glyph glyph-name="uni04B6" unicode="&#x4b6;" 
 />
    <glyph glyph-name="uni04B8" unicode="&#x4b8;" 
 />
    <glyph glyph-name="uni04BA" unicode="&#x4ba;" 
 />
    <glyph glyph-name="uni04BC" unicode="&#x4bc;" 
 />
    <glyph glyph-name="uni04BE" unicode="&#x4be;" 
 />
    <glyph glyph-name="uni04C0" unicode="&#x4c0;" horiz-adv-x="265" 
d="M73 0h118c-13 243 -11 486 -14 729h-84c-5 -243 -5 -486 -20 -729z" />
    <glyph glyph-name="uni04C1" unicode="&#x4c1;" 
 />
    <glyph glyph-name="uni04C3" unicode="&#x4c3;" 
 />
    <glyph glyph-name="uni04C5" unicode="&#x4c5;" 
 />
    <glyph glyph-name="uni04C7" unicode="&#x4c7;" 
 />
    <glyph glyph-name="uni04C9" unicode="&#x4c9;" 
 />
    <glyph glyph-name="uni04CB" unicode="&#x4cb;" 
 />
    <glyph glyph-name="uni04CD" unicode="&#x4cd;" 
 />
    <glyph glyph-name="uni04D0" unicode="&#x4d0;" 
 />
    <glyph glyph-name="uni04D2" unicode="&#x4d2;" horiz-adv-x="814" 
d="M364 793v106h-107v-106h107zM568 793v106h-106v-106h106zM207 0l37 119h328l28 -119h141l-287 729h-93l-288 -729h134zM273 235l134 404l135 -404h-269z" />
    <glyph glyph-name="uni04D6" unicode="&#x4d6;" horiz-adv-x="616" 
d="M543 0v151h-371v196h347v83h-347v216h362v83h-461v-729h470z" />
    <glyph glyph-name="uni04D8" unicode="&#x4d8;" 
 />
    <glyph glyph-name="uni04DA" unicode="&#x4da;" 
d="M180 659v106h-107v-106h107zM384 659v106h-106v-106h106z" />
    <glyph glyph-name="uni04DC" unicode="&#x4dc;" 
d="M180 659v106h-107v-106h107zM384 659v106h-106v-106h106z" />
    <glyph glyph-name="uni04DE" unicode="&#x4de;" 
d="M180 659v106h-107v-106h107zM384 659v106h-106v-106h106z" />
    <glyph glyph-name="uni04E0" unicode="&#x4e0;" 
 />
    <glyph glyph-name="uni04E2" unicode="&#x4e2;" 
d="M365 673v72h-292v-72h292z" />
    <glyph glyph-name="uni04E4" unicode="&#x4e4;" 
d="M180 659v106h-107v-106h107zM384 659v106h-106v-106h106z" />
    <glyph glyph-name="uni04E6" unicode="&#x4e6;" horiz-adv-x="821" 
d="M362 841v106h-107v-106h107zM566 841v106h-106v-106h106zM411 742c-205 0 -338 -148 -338 -378c0 -231 133 -378 338 -378s337 148 337 378s-132 378 -337 378zM411 662c143 0 233 -114 233 -298c0 -151 -90 -191 -233 -191s-234 40 -234 191c0 184 91 298 234 298z" />
    <glyph glyph-name="uni04E8" unicode="&#x4e8;" 
 />
    <glyph glyph-name="uni04EA" unicode="&#x4ea;" 
d="M180 659v106h-107v-106h107zM384 659v106h-106v-106h106z" />
    <glyph glyph-name="uni04EC" unicode="&#x4ec;" 
d="M180 659v106h-107v-106h107zM384 659v106h-106v-106h106z" />
    <glyph glyph-name="uni04EE" unicode="&#x4ee;" 
d="M365 673v72h-292v-72h292z" />
    <glyph glyph-name="uni04F0" unicode="&#x4f0;" 
d="M180 659v106h-107v-106h107zM384 659v106h-106v-106h106z" />
    <glyph glyph-name="uni04F2" unicode="&#x4f2;" 
d="M140 616l109 184h-83l-93 -184h67zM295 616l121 184h-87l-100 -184h66z" />
    <glyph glyph-name="uni04F4" unicode="&#x4f4;" 
d="M180 659v106h-107v-106h107zM384 659v106h-106v-106h106z" />
    <glyph glyph-name="uni04F6" unicode="&#x4f6;" 
 />
    <glyph glyph-name="uni04F8" unicode="&#x4f8;" 
d="M180 659v106h-107v-106h107zM384 659v106h-106v-106h106z" />
    <glyph glyph-name="uni04FC" unicode="&#x4fc;" 
 />
    <glyph glyph-name="uni0510" unicode="&#x510;" 
 />
    <glyph glyph-name="uni0512" unicode="&#x512;" 
 />
    <glyph glyph-name="uni051C" unicode="&#x51c;" 
 />
    <glyph glyph-name="uni0524" unicode="&#x524;" 
 />
    <glyph glyph-name="uni0526" unicode="&#x526;" 
 />
    <glyph glyph-name="uni0430" unicode="&#x430;" horiz-adv-x="608" 
d="M535 0v312c0 167 -77 248 -236 248c-58 0 -120 -13 -186 -38v-73c55 30 115 45 177 45c105 -7 155 -57 155 -140v-9h-126c-163 0 -246 -63 -246 -186c0 -105 72 -173 183 -173c89 0 148 32 189 92v-78h90zM395 279v-20c0 -117 -35 -136 -125 -136c-65 0 -112 5 -122 61
c1 67 35 95 166 95h81z" />
    <glyph glyph-name="uni0431" unicode="&#x431;" 
 />
    <glyph glyph-name="uni0432" unicode="&#x432;" 
 />
    <glyph glyph-name="uni0433" unicode="&#x433;" 
 />
    <glyph glyph-name="uni0453" unicode="&#x453;" 
d="M156 645l177 204h-107l-153 -204h83z" />
    <glyph glyph-name="uni0491" unicode="&#x491;" 
 />
    <glyph glyph-name="uni0434" unicode="&#x434;" 
 />
    <glyph glyph-name="uni0435" unicode="&#x435;" horiz-adv-x="648" 
d="M575 296v34c-12 156 -87 224 -233 230c-165 0 -262 -113 -269 -292c0 -173 110 -276 284 -282c70 0 138 14 203 42l-2 124c-64 -34 -129 -33 -198 -33c-119 6 -191 31 -193 177h408zM497 375l-320 -1c0 66 65 139 165 139c89 0 145 -77 155 -138z" />
    <glyph glyph-name="uni0451" unicode="&#x451;" horiz-adv-x="648" 
d="M280 659v106h-107v-106h107zM484 659v106h-106v-106h106zM575 296v34c-12 156 -87 224 -233 230c-165 0 -262 -113 -269 -292c0 -173 110 -276 284 -282c70 0 138 14 203 42l-2 124c-64 -34 -129 -33 -198 -33c-119 6 -191 31 -193 177h408zM497 375l-320 -1
c0 66 65 139 165 139c89 0 145 -77 155 -138z" />
    <glyph glyph-name="uni0436" unicode="&#x436;" 
 />
    <glyph glyph-name="uni0437" unicode="&#x437;" 
 />
    <glyph glyph-name="uni0438" unicode="&#x438;" 
 />
    <glyph glyph-name="uni0439" unicode="&#x439;" 
d="M131 785h-58c7 -93 59 -140 153 -140s147 47 153 140h-58c-8 -49 -39 -73 -95 -73c-57 0 -88 24 -95 73z" />
    <glyph glyph-name="uni043A" unicode="&#x43a;" 
 />
    <glyph glyph-name="uni045C" unicode="&#x45c;" 
d="M156 645l177 204h-107l-153 -204h83z" />
    <glyph glyph-name="uni043B" unicode="&#x43b;" 
 />
    <glyph glyph-name="uni043C" unicode="&#x43c;" 
 />
    <glyph glyph-name="uni043D" unicode="&#x43d;" 
 />
    <glyph glyph-name="uni043E" unicode="&#x43e;" horiz-adv-x="648" 
d="M324 560c-157 0 -251 -107 -251 -287c0 -179 94 -287 251 -287c156 0 251 108 251 287c0 180 -95 287 -251 287zM324 494c96 0 156 -80 156 -205c0 -127 -60 -148 -156 -148c-97 0 -156 20 -156 148c0 127 60 205 156 205z" />
    <glyph glyph-name="uni043F" unicode="&#x43f;" 
 />
    <glyph glyph-name="uni0440" unicode="&#x440;" horiz-adv-x="664" 
d="M188 -208l4 290c37 -65 95 -96 175 -96c133 0 224 115 224 287s-91 287 -224 287c-80 0 -138 -31 -175 -96l15 75h-90v-412l-44 -335h115zM533 289c0 -133 -53 -155 -148 -155s-157 22 -157 155c0 132 57 211 152 211c96 0 153 -79 153 -211z" />
    <glyph glyph-name="uni0441" unicode="&#x441;" horiz-adv-x="579" 
d="M506 447v79c-49 23 -103 34 -158 34c-170 0 -275 -109 -275 -287c0 -176 105 -287 269 -287c61 0 114 12 164 35l-2 141c-51 -28 -104 -21 -156 -21c-117 6 -166 38 -175 132c0 133 62 216 179 216c52 0 103 -14 154 -42z" />
    <glyph glyph-name="uni0442" unicode="&#x442;" 
 />
    <glyph glyph-name="uni0443" unicode="&#x443;" horiz-adv-x="679" 
d="M510 547l-148 -318l-194 318h-95l234 -502l-38 -77c-34 -42 -54 -67 -103 -67h-63v-119h82c80 0 126 24 190 167l230 598h-95z" />
    <glyph glyph-name="uni045E" unicode="&#x45e;" horiz-adv-x="679" 
d="M201 758h-58c7 -93 59 -140 153 -140s147 47 153 140h-58c-8 -49 -39 -73 -95 -73c-57 0 -88 24 -95 73zM510 547l-148 -318l-194 318h-95l234 -502l-38 -77c-34 -42 -54 -67 -103 -67h-63v-119h82c80 0 126 24 190 167l230 598h-95z" />
    <glyph glyph-name="uni0444" unicode="&#x444;" 
 />
    <glyph glyph-name="uni0445" unicode="&#x445;" horiz-adv-x="696" 
d="M347 323l-150 224h-96l190 -285l-218 -262h145l135 190l125 -190h145l-213 256l193 291h-91z" />
    <glyph glyph-name="uni0447" unicode="&#x447;" 
 />
    <glyph glyph-name="uni0446" unicode="&#x446;" 
 />
    <glyph glyph-name="uni0448" unicode="&#x448;" 
 />
    <glyph glyph-name="uni0449" unicode="&#x449;" 
 />
    <glyph glyph-name="uni045F" unicode="&#x45f;" 
 />
    <glyph glyph-name="uni044F" unicode="&#x44f;" 
 />
    <glyph glyph-name="uni044C" unicode="&#x44c;" 
 />
    <glyph glyph-name="uni044A" unicode="&#x44a;" 
 />
    <glyph glyph-name="uni044B" unicode="&#x44b;" 
 />
    <glyph glyph-name="uni0459" unicode="&#x459;" 
 />
    <glyph glyph-name="uni045A" unicode="&#x45a;" 
 />
    <glyph glyph-name="uni0455" unicode="&#x455;" horiz-adv-x="564" 
d="M462 456v75c-49 19 -108 29 -175 29c-134 0 -210 -58 -210 -161c0 -85 47 -121 158 -144l31 -7c56 -13 88 -23 95 -32c8 -9 17 -23 28 -43c0 -47 -37 -73 -122 -73c-63 0 -127 17 -194 52v-132c71 -23 134 -34 192 -34c141 0 226 63 226 165c0 89 -49 130 -176 157l-31 7
c-96 21 -125 44 -125 93c0 54 49 87 139 87c58 0 113 -14 164 -39z" />
    <glyph glyph-name="uni0454" unicode="&#x454;" 
 />
    <glyph glyph-name="uni044D" unicode="&#x44d;" 
 />
    <glyph glyph-name="uni0456" unicode="&#x456;" horiz-adv-x="261" 
d="M173 646l-5 114h-80l-5 -114h90zM73 0h115c-21 199 -26 383 -20 547h-80c1 -172 -2 -355 -15 -547z" />
    <glyph glyph-name="uni0457" unicode="&#x457;" horiz-adv-x="261" 
d="M68 659v106h-107v-106h107zM272 659v106h-106v-106h106zM73 0h115c-21 199 -26 383 -20 547h-80c1 -172 -2 -355 -15 -547z" />
    <glyph glyph-name="uni0458" unicode="&#x458;" horiz-adv-x="358" 
d="M285 646l-5 114h-80l-5 -114h90zM179 544l-23 -498c-6 -114 -22 -129 -91 -134h-38l-3 -135l49 -1c118 5 169 71 172 210l19 557z" />
    <glyph glyph-name="uni045B" unicode="&#x45b;" 
 />
    <glyph glyph-name="uni044E" unicode="&#x44e;" 
 />
    <glyph glyph-name="uni0452" unicode="&#x452;" 
 />
    <glyph glyph-name="uni0463" unicode="&#x463;" 
 />
    <glyph glyph-name="uni0473" unicode="&#x473;" 
 />
    <glyph glyph-name="uni0475" unicode="&#x475;" 
 />
    <glyph glyph-name="uni0493" unicode="&#x493;" 
 />
    <glyph glyph-name="uni0495" unicode="&#x495;" 
 />
    <glyph glyph-name="uni0497" unicode="&#x497;" 
 />
    <glyph glyph-name="uni0499" unicode="&#x499;" 
d="M222 0h-58c29 -40 43 -67 43 -87c0 -30 -19 -46 -58 -46c-31 0 -54 5 -76 16v-64c28 -8 56 -12 86 -12c77 0 116 30 116 88c0 31 -17 64 -53 105z" />
    <glyph glyph-name="uni049B" unicode="&#x49b;" 
 />
    <glyph glyph-name="uni049D" unicode="&#x49d;" 
 />
    <glyph glyph-name="uni049F" unicode="&#x49f;" 
 />
    <glyph glyph-name="uni04A1" unicode="&#x4a1;" 
 />
    <glyph glyph-name="uni04A3" unicode="&#x4a3;" 
 />
    <glyph glyph-name="uni04A7" unicode="&#x4a7;" 
 />
    <glyph glyph-name="uni04A9" unicode="&#x4a9;" 
 />
    <glyph glyph-name="uni04AB" unicode="&#x4ab;" 
 />
    <glyph glyph-name="uni04AD" unicode="&#x4ad;" 
 />
    <glyph glyph-name="uni04AF" unicode="&#x4af;" 
 />
    <glyph glyph-name="uni04B1" unicode="&#x4b1;" 
 />
    <glyph glyph-name="uni04B3" unicode="&#x4b3;" 
 />
    <glyph glyph-name="uni04B7" unicode="&#x4b7;" 
 />
    <glyph glyph-name="uni04B9" unicode="&#x4b9;" 
 />
    <glyph glyph-name="uni04BB" unicode="&#x4bb;" 
 />
    <glyph glyph-name="uni04BD" unicode="&#x4bd;" 
 />
    <glyph glyph-name="uni04BF" unicode="&#x4bf;" 
 />
    <glyph glyph-name="uni04CF" unicode="&#x4cf;" 
 />
    <glyph glyph-name="uni04C2" unicode="&#x4c2;" 
 />
    <glyph glyph-name="uni04C4" unicode="&#x4c4;" 
 />
    <glyph glyph-name="uni04C6" unicode="&#x4c6;" 
 />
    <glyph glyph-name="uni04C8" unicode="&#x4c8;" 
 />
    <glyph glyph-name="uni04CA" unicode="&#x4ca;" 
 />
    <glyph glyph-name="uni04CC" unicode="&#x4cc;" 
 />
    <glyph glyph-name="uni04CE" unicode="&#x4ce;" 
 />
    <glyph glyph-name="uni04D1" unicode="&#x4d1;" 
 />
    <glyph glyph-name="uni04D3" unicode="&#x4d3;" horiz-adv-x="608" 
d="M269 659v106h-107v-106h107zM473 659v106h-106v-106h106zM535 0v312c0 167 -77 248 -236 248c-58 0 -120 -13 -186 -38v-73c55 30 115 45 177 45c105 -7 155 -57 155 -140v-9h-126c-163 0 -246 -63 -246 -186c0 -105 72 -173 183 -173c89 0 148 32 189 92v-78h90z
M395 279v-20c0 -117 -35 -136 -125 -136c-65 0 -112 5 -122 61c1 67 35 95 166 95h81z" />
    <glyph glyph-name="uni04D7" unicode="&#x4d7;" horiz-adv-x="648" 
d="M575 296v34c-12 156 -87 224 -233 230c-165 0 -262 -113 -269 -292c0 -173 110 -276 284 -282c70 0 138 14 203 42l-2 124c-64 -34 -129 -33 -198 -33c-119 6 -191 31 -193 177h408zM497 375l-320 -1c0 66 65 139 165 139c89 0 145 -77 155 -138z" />
    <glyph glyph-name="uni04D9" unicode="&#x4d9;" 
 />
    <glyph glyph-name="uni04DB" unicode="&#x4db;" 
d="M180 659v106h-107v-106h107zM384 659v106h-106v-106h106z" />
    <glyph glyph-name="uni04DD" unicode="&#x4dd;" 
d="M180 659v106h-107v-106h107zM384 659v106h-106v-106h106z" />
    <glyph glyph-name="uni04DF" unicode="&#x4df;" 
d="M180 659v106h-107v-106h107zM384 659v106h-106v-106h106z" />
    <glyph glyph-name="uni04E1" unicode="&#x4e1;" 
 />
    <glyph glyph-name="uni04E3" unicode="&#x4e3;" 
d="M365 673v72h-292v-72h292z" />
    <glyph glyph-name="uni04E5" unicode="&#x4e5;" 
d="M180 659v106h-107v-106h107zM384 659v106h-106v-106h106z" />
    <glyph glyph-name="uni04E7" unicode="&#x4e7;" horiz-adv-x="648" 
d="M275 659v106h-107v-106h107zM479 659v106h-106v-106h106zM324 560c-157 0 -251 -107 -251 -287c0 -179 94 -287 251 -287c156 0 251 108 251 287c0 180 -95 287 -251 287zM324 494c96 0 156 -80 156 -205c0 -127 -60 -148 -156 -148c-97 0 -156 20 -156 148
c0 127 60 205 156 205z" />
    <glyph glyph-name="uni04E9" unicode="&#x4e9;" 
 />
    <glyph glyph-name="uni04EB" unicode="&#x4eb;" 
d="M180 659v106h-107v-106h107zM384 659v106h-106v-106h106z" />
    <glyph glyph-name="uni04ED" unicode="&#x4ed;" 
d="M180 659v106h-107v-106h107zM384 659v106h-106v-106h106z" />
    <glyph glyph-name="uni04EF" unicode="&#x4ef;" horiz-adv-x="679" 
d="M442 634v72h-292v-72h292zM510 547l-148 -318l-194 318h-95l234 -502l-38 -77c-34 -42 -54 -67 -103 -67h-63v-119h82c80 0 126 24 190 167l230 598h-95z" />
    <glyph glyph-name="uni04F1" unicode="&#x4f1;" horiz-adv-x="679" 
d="M247 659v106h-107v-106h107zM451 659v106h-106v-106h106zM510 547l-148 -318l-194 318h-95l234 -502l-38 -77c-34 -42 -54 -67 -103 -67h-63v-119h82c80 0 126 24 190 167l230 598h-95z" />
    <glyph glyph-name="uni04F3" unicode="&#x4f3;" horiz-adv-x="679" 
d="M191 616l109 184h-83l-93 -184h67zM346 616l121 184h-87l-100 -184h66zM510 547l-148 -318l-194 318h-95l234 -502l-38 -77c-34 -42 -54 -67 -103 -67h-63v-119h82c80 0 126 24 190 167l230 598h-95z" />
    <glyph glyph-name="uni04F5" unicode="&#x4f5;" 
d="M180 659v106h-107v-106h107zM384 659v106h-106v-106h106z" />
    <glyph glyph-name="uni04F7" unicode="&#x4f7;" 
 />
    <glyph glyph-name="uni04F9" unicode="&#x4f9;" 
d="M180 659v106h-107v-106h107zM384 659v106h-106v-106h106z" />
    <glyph glyph-name="uni04FD" unicode="&#x4fd;" 
 />
    <glyph glyph-name="uni0511" unicode="&#x511;" 
 />
    <glyph glyph-name="uni0513" unicode="&#x513;" 
 />
    <glyph glyph-name="uni051D" unicode="&#x51d;" 
 />
    <glyph glyph-name="uni0525" unicode="&#x525;" 
 />
    <glyph glyph-name="uni0527" unicode="&#x527;" 
 />
    <glyph glyph-name="uni04A4" unicode="&#x4a4;" 
 />
    <glyph glyph-name="uni04A5" unicode="&#x4a5;" 
 />
    <glyph glyph-name="uni04B4" unicode="&#x4b4;" 
 />
    <glyph glyph-name="uni04B5" unicode="&#x4b5;" 
 />
    <glyph glyph-name="uni04D4" unicode="&#x4d4;" horiz-adv-x="1061" 
d="M50 0h183l-4 128h257v-128h471v127h-372v137h348v83h-348v299h362v83h-592zM486 210h-224l161 442h63v-442z" />
    <glyph glyph-name="uni04D5" unicode="&#x4d5;" horiz-adv-x="1083" 
d="M535 470c-35 57 -107 90 -200 90c-58 0 -120 -13 -186 -38v-64c55 30 115 45 177 45c98 0 155 -76 155 -120v-8h-126c-163 0 -246 -54 -246 -216c0 -109 72 -173 195 -173c93 0 164 39 211 117c50 -78 131 -117 240 -117c69 0 138 29 203 56v129
c-65 -34 -130 -51 -198 -51c-119 0 -187 76 -195 161h414v44c0 124 -93 235 -240 235c-86 0 -156 -31 -204 -90zM888 352l-320 -1c10 76 73 159 172 159c90 0 148 -88 148 -158zM481 304v-16c0 -125 -65 -178 -165 -178c-72 0 -117 32 -117 83c0 95 48 111 193 111h89z" />
    <glyph glyph-name="softhyphen" unicode="&#xad;" horiz-adv-x="413" 
d="M336 238l4 81l-263 -5l-4 -80z" />
    <glyph glyph-name="Euro" unicode="&#x20ac;" horiz-adv-x="716" 
d="M643 593v80c-57 46 -117 69 -181 69c-153 0 -260 -99 -286 -267h-76l-27 -60h95v-22c-1 -8 -1 -18 -1 -29c0 -10 0 -20 1 -27v-23h-68l-27 -80h108c20 -142 127 -248 281 -248c63 0 123 23 181 70v147c-66 -68 -115 -95 -182 -95c-102 0 -173 89 -181 126h178l27 80h-217
c-2 16 -2 29 -2 50c0 23 0 35 2 51h262l27 60h-282c21 122 89 213 191 213c67 0 118 -26 177 -95z" />
    <glyph glyph-name="brevecy" 
 />
    <glyph glyph-name="uni032D" unicode="&#x32d;" horiz-adv-x="0" 
d="M60 -220l88 120l88 -120h68l-120 184h-72l-120 -184h68z" />
    <glyph glyph-name="uni0326" unicode="&#x326;" horiz-adv-x="0" 
d="M73 -141h63l110 157v103h-123v-103z" />
    <glyph glyph-name="dotbelowcomb" unicode="&#x323;" horiz-adv-x="0" 
d="M191 0v108h-100v-108h100z" />
    <glyph glyph-name="hookabovecomb" unicode="&#x309;" horiz-adv-x="0" 
d="M98 579v-21c16 8 30 13 45 13c23 0 32 -8 32 -14s-4 -12 -11 -17l-11 -9c-8 -6 -13 -10 -16 -15c-2 -4 -3 -10 -3 -16v-3h28c0 5 1 9 2 12c1 1 3 4 9 8l11 7c14 11 21 21 21 31s-6 19 -16 26c-10 6 -23 10 -40 10c-16 0 -33 -4 -51 -12z" />
    <glyph glyph-name="uni031B" unicode="&#x31b;" horiz-adv-x="0" 
d="M66 481l22 -46c25 12 27 16 49 34c30 27 41 75 41 114c0 9 -2 20 -5 32l-48 6c4 -10 7 -19 7 -30c0 -17 2 -63 -20 -83c-12 -10 -22 -12 -46 -27z" />
    <glyph glyph-name="uni0331" unicode="&#x331;" horiz-adv-x="0" 
d="M277 -125l4 81l-263 -5l-4 -80z" />
    </font>
</defs>
</svg>
