<svg xmlns="http://www.w3.org/2000/svg" viewBox="0 0 283.46 283.46"><defs><style>.cls-1{fill:#1d1d1b;}.cls-2{fill:#fae929;}.cls-3{fill:#fae92b;}.cls-4{fill:#fae92c;}.cls-5{fill:#fae92d;}.cls-6{fill:#fae92e;}.cls-7{fill:#fae932;}.cls-8{fill:#fdfae8;}.cls-9{fill:#df9a24;}.cls-10{fill:#df9d2b;}.cls-11{fill:#df9b25;}.cls-12{fill:#df9b26;}.cls-13{fill:#df9c2a;}.cls-14{fill:#df9c29;}.cls-15{fill:#df9b27;}.cls-16{fill:#df9d2c;}.cls-17{fill:#df9c28;}.cls-18{fill:#df9e2d;}.cls-19{fill:#e09e2d;}.cls-20{fill:#df9c2b;}.cls-21{fill:#f8ebd2;}.cls-22{fill:#171213;}.cls-23{fill:#110a0c;}.cls-24{fill:#130d0e;}.cls-25{fill:#140e0f;}.cls-26{fill:#150f10;}.cls-27{fill:#10090b;}.cls-28{fill:#120c0d;}.cls-29{fill:#1a1516;}.cls-30{fill:#252020;}.cls-31{fill:#1d1819;}.cls-32{fill:#1c1617;}</style></defs><g><g><path class="cls-2" d="M114.42,184.08c-.19.15-.39.28-.57.43-.6.53-1.12,1.17-2,.3-.26-.26-.86-.17-1.42-.26-1-1.58-2.52-2.92-3.28-4.79a2.89,2.89,0,0,0-.56-.83,2.47,2.47,0,0,1-.41-3c1.22-.64,1.75.58,2.67,1,.29-1.68.55-3.29,2-4.57a52.4,52.4,0,0,0-2.07-5,41,41,0,0,0-5.28-7.17,10.79,10.79,0,0,1-1.86-3.69,11.43,11.43,0,0,1-.48-5,8.31,8.31,0,0,1,2.35-4.91c.45,1.85,1.33,3.32,1.2,5a5.27,5.27,0,0,0,1.23,3.48l1.14,1.65,1.38,2.07,2,.13a15.88,15.88,0,0,1,2,2.53,24.52,24.52,0,0,0,5.83,7l.5.45a12.34,12.34,0,0,1,2.35-.56,4.39,4.39,0,0,0,3.54-2.33c.31-.48.83-.84,1.06-1.35a6.66,6.66,0,0,0,.28-5.88,13.92,13.92,0,0,1-1.45-4.7,17.56,17.56,0,0,0-.85-3,11.64,11.64,0,0,0-2.33-1.91,8.7,8.7,0,0,1-2.67-2.79c-.84-1.26-1.25-2.78-2.37-3.91a4.81,4.81,0,0,1-.73-1.9,10.23,10.23,0,0,0-.75-2.48,3.94,3.94,0,0,1-.47-2.11,21,21,0,0,0-.41-4.44c-.31-1.12.1-2.45.2-3.68,0-.24.17-.48.17-.72a21.92,21.92,0,0,1,1.15-5.24c.42-1.67,1.19-3.18,1.68-4.8a9,9,0,0,1,.42-1.87c.68-1.14,1.54-2.17,2.3-3.22l1.43.15c.77,1.16-.2,2-.51,2.79a10.35,10.35,0,0,0-1,3.72c0,1.65,0,3.3.07,5a14.69,14.69,0,0,0,.57,2.38c.25,1,.47,2,.73,3a1.23,1.23,0,0,0,.3.66c1.8,1.24,2.86,3.29,4.9,4.31a26.23,26.23,0,0,1,3.05,2.39,14.64,14.64,0,0,0,2,1c2.61-2.55,4.66-5.38,7.58-7.41l1.21,1.05-.53,1.33.62.65c.22-.1.34-.12.38-.18.44-.63.84-1.29,1.31-1.9a1.07,1.07,0,0,1,1.45-.3c.53.27.58.7.49,1.24a16.88,16.88,0,0,1-2.39,6.66,2.87,2.87,0,0,0-.19.78,7.31,7.31,0,0,0,1.21-.57c1.15-.88,2.26-1.8,3.39-2.7.9-.71,1.79-1.45,2.72-2.13,1.32-1,2.73-1.81,4-2.85a1.9,1.9,0,0,1,1.85-.3l.17,1.28c1.29-.32,1.7-1.5,2.26-2.37,1.24-2,2.26-4.1,3.34-6.18a18.53,18.53,0,0,0,1.07-2.92c.79-2.46.44-4.91.47-7.37,0-.35.05-.83-.14-1-.85-.82-.11-1.3.3-1.86.93-.32,1.62,0,2.25,1a17.8,17.8,0,0,0,0,1.91,7.42,7.42,0,0,0,.37,1.36,3.45,3.45,0,0,1,.14.42c.19,2.07.73,4.19.47,6.2-.23,1.81.05,3.77-.92,5.47a.53.53,0,0,0,0,.44c1.07,1.76-.45,3-1,4.34a49.48,49.48,0,0,1-4.27,7.74,47.22,47.22,0,0,0-2.48,4.86,2.87,2.87,0,0,0-.12,1.18c0,1.75,0,3.5,0,5.26a14.22,14.22,0,0,1-.4,3.08,11,11,0,0,0,0,3.57,21.73,21.73,0,0,1-.5,5.74c-.41,2.35-1.87,4.2-2.71,6.34a2.54,2.54,0,0,1-2.2,1.62v-2.05l-1.75.74-.84-.71c.18-1.88.14-3.7-1.43-5.07L145.07,166h-1.51c-.74,1.4-1.46,2.7-2.11,4-.43.88-.75,1.8-1.15,2.7-.64,1.44-1.25,2.9-2,4.31a1.64,1.64,0,0,1-2.11.92l-.76-.93c.28-.64.56-1.3.86-1.94s.62-1.18.92-1.78c.7-1.43,1-3,1.77-4.42,1.07-2,1.94-4.09,2.87-6.15a4,4,0,0,0,.16-1l-1.47.09-1-.95c.2-.52.45-1,.6-1.56.45-1.54.93-3.08,1.27-4.65a33.71,33.71,0,0,1,2.71-8,8.9,8.9,0,0,0,.58-2.43c0-.17-.22-.4-.42-.73-.3.59-.54,1.06-.79,1.52-1.24,2.26-2.53,4.49-3.71,6.78a4.34,4.34,0,0,0-.27,1.85,25.36,25.36,0,0,1,0,3.14,4.12,4.12,0,0,1-1,2.33,5,5,0,0,0-1.94,4.62l-2.41,3.53a7.35,7.35,0,0,0,1.16-.15,7.52,7.52,0,0,0,1-.47c.51,1.07-.22,1.5-.76,1.73a14.9,14.9,0,0,0-4.14,3.08,23.67,23.67,0,0,0-3.17,4.12c-.3.43-.56.89-.82,1.35a2.58,2.58,0,0,0-.46,1,6.26,6.26,0,0,1-2.14,4.35,16,16,0,0,0-3.14,5.49,2.09,2.09,0,0,0-.08.75c0,4.65,0,9.3,0,13.91a7.08,7.08,0,0,1,1.9,4c.65-.29.73-.3.44-2.13a8.57,8.57,0,0,0-1-2.12c.35-1.57.64-3.11,1.06-4.62.53-1.91.69-3.91,1.52-5.75a18,18,0,0,1,4.06-5.25,22.11,22.11,0,0,1,2.69-2.23,10.35,10.35,0,0,1,2.17-1.12,10.33,10.33,0,0,0,4-3.09c1-.57,1.8.2,2.68-.22,2.4-1.13,4.87-2.09,7.29-3.17.42-.19.69-.68,1.06-1a40.84,40.84,0,0,1,4.37-3.55,7.43,7.43,0,0,0,2.69-2.56,3.84,3.84,0,0,0,.44-1.2,6.7,6.7,0,0,0,0-1.19c.07-4.09.86-8.13.63-12.23.68-2.15.78-4.47,2.11-6.44a21.48,21.48,0,0,0,1.48-3.27A8.54,8.54,0,0,1,162,144c1.41-2,2.79-4,4.29-5.94.92-1.18,2-2.21,3.05-3.32a3.87,3.87,0,0,0,.95.46,1.88,1.88,0,0,0,1.16-.07c.6-.39,1.06-1,1.64-1.42s1.21-.75,1.95-1.2a5.84,5.84,0,0,1,3.4.62c-.24.42-.35.91-.62,1a18,18,0,0,0-5.53,4.38c-1.72,1.77-3.37,3.62-4.94,5.53a6,6,0,0,0-1.2,2.59c-.35,1.8-.5,3.63-.67,5.46a22.1,22.1,0,0,0,0,2.7c0,.63-.12,1.28.43,1.82.17.16.13.56.14.86,0,.85,0,1.7.05,2.55.07,1.17-.21,2.37.47,3.48.19.3,0,.78.1,1.18.18,1.65.38,3.29.57,4.93l.41.06a5.52,5.52,0,0,1,.35-.94c.69-1.1,1.37-2.2,2.12-3.25a5.61,5.61,0,0,0,.93-1.78c.43-1.55,1.57-2.73,2.32-4.12A1.12,1.12,0,0,1,175,159a4.83,4.83,0,0,1-.41,3.06,17.82,17.82,0,0,0-2.05,6c-.17,1.39-.92,2.71-.74,4.19,0,.19.05.39.09.69.23-.13.51-.18.54-.3.38-1.77,1.75-3.09,2.18-4.89a4.05,4.05,0,0,1,2.65-3,10.66,10.66,0,0,0,2.35-1.67c-.13,0,0,0,.15,0,1.86.28,3.35-.7,4.94-1.4s3.11-1.23,4.67-1.85l.26.23a7.56,7.56,0,0,0,.42-1.49c.11-1.64,0-3.31.93-5,.54-.42.78.25,1.15.73a3.12,3.12,0,0,0,.17-2.61c-.06-.22-.32-.41-.33-.62a14.31,14.31,0,0,0-1.16-4,4.06,4.06,0,0,1,0-1.11l.81-.87c.27.22.66.37.77.64.49,1.2.86,2.44,1.34,3.64.32.79.8,1.52,1.14,2.31a29.81,29.81,0,0,0,1.64,3.58,4.75,4.75,0,0,0,.2-.89c0-1.9,0-3.8,0-5.7,0-.54.06-1.07.1-1.85l2.26.45c.63-.26.84-1,.74-2l.95-.33a1,1,0,0,0,.05-.31,6.63,6.63,0,0,1-.44-1.51,43.52,43.52,0,0,1,0-6.15,15.66,15.66,0,0,1,1-4.65,1.6,1.6,0,0,0,.11-.43c.22-1.67.32-3.36.7-5a19.23,19.23,0,0,1,1.45-3.6c.31-.69.74-1.32,1.12-2,1,.37.72,1.19.65,1.8-.29,2.28-.76,4.53-1,6.83a62.33,62.33,0,0,0-.39,9.36,25.54,25.54,0,0,0,1,6.81c.36,1.15.41,2.4.74,3.57a32.16,32.16,0,0,0,1.39,3.93,50.94,50.94,0,0,0,2.91,6.1,42.86,42.86,0,0,0,3.53,4.52c1.26-.61,1.26-.61,2.22.33a30.39,30.39,0,0,0,2.26,7c.9,2,1.68,4,2.5,6a1.07,1.07,0,0,1,.08.58,10,10,0,0,0,.56,4.94,3.28,3.28,0,0,1,.07.89c0,1.27-.1,2.54,0,3.82.17,1.66-.73,3.1-1.38,4.54-1,2.25-2.23,4.42-3.41,6.61-.5.92-1.11,1.8-1.7,2.67s-1.33,1.88-2,2.83a4,4,0,0,0-.31.77,3.09,3.09,0,0,0,.74.19c2.23-.09,4.47-.18,6.7-.31a31.3,31.3,0,0,0,6.08-.45,22.91,22.91,0,0,1,5.38-.17c4.15,0,8.31,0,12.46,0,1.41,0,2.53.25,3.19,1.56.18.8-.2,1.69.53,2.4.19.18.09.67.09,1,0,1.6,0,3.21,0,4.81,0,.85.28,1.78-.48,2.53-.16.16-.07.58-.07.88,0,1,0,2,0,3s.26,2-.47,2.85c-.15.19-.07.59-.06.89a19.76,19.76,0,0,1-1.16,6.27c-.46,1.4-.81,2.84-1.27,4.24s-1.25,2.53-1.33,4c0,.33-.38.67-.65.94-1.44,1.41-2.73,3.06-5,3.18-1.25,1-2.77.64-4,.32a16,16,0,0,0-2.59-.39,7.27,7.27,0,0,0-.9,3.73,14,14,0,0,1-.71,3.24c-.44,1.32-1.05,2.59-1.58,3.88s-.9,2.33-1.38,3.48c-.55,1.35-1.21,2.65-1.64,4a3.35,3.35,0,0,1-1.72,2c-1.38.7-2.84,1.24-4.27,1.83s-2.67,1.07-4.11,1.65c-1.55-1.15-3.56-1.17-5.43-1.67-1.12-.3-2.24-.64-3.36-1a1.56,1.56,0,0,0-.56-.17c-1.84.22-3.18-1.08-4.79-1.53s-3.09-1.6-4.64-2.36c-1.23-.6-2.54-1-3.79-1.56a16.28,16.28,0,0,1-5.66,5.59,13.46,13.46,0,0,0-3.13,2.54,13.85,13.85,0,0,1-4.87,3.27c-1.17.52-2.46.78-3.65,1.26-2.36.95-4.88,1.21-7.32,1.81a22.47,22.47,0,0,0-2.61,1l-1.06-.48a1.7,1.7,0,0,1-2.68-.21l-.12-1.35a5,5,0,0,1-.42-.33,23.51,23.51,0,0,1-3.77-5.58,8.41,8.41,0,0,0-1.46-1.59,13.94,13.94,0,0,1-2.48-3,27,27,0,0,0-1.88-2.55l-2.11-2.86a17.2,17.2,0,0,1-5.32-1,5.34,5.34,0,0,1-3.19-2c-.61.24-1.23.46-1.83.73-2.21,1-4.42,2-6.61,3-1.68.8-3.33,1.67-5,2.51l-5.46,2.82c-.43.22-.82.5-1.24.74a1.88,1.88,0,0,1-.74.36,13.52,13.52,0,0,0-4.37,1.38c-1.68.67-3.32,1.48-5,2.28a53.27,53.27,0,0,0-5,2.64c-1.65,1-3.15,2.32-4.73,3.47s-3.46,2.39-5.13,3.66c-1.11.85-2.27.58-3.39.27a23,23,0,0,1-2.82-1.18c-.66-.28-1.34-.49-2-.82-1.07-.55-2.1-1.18-3.16-1.75s-1.48-1.75-2.21-2.63a5.18,5.18,0,0,0-.5-.7c-1.57-1.31-2-3.35-3.23-4.86-1.71-2.2-2.44-4.85-3.89-7.16a56.32,56.32,0,0,1-2.59-5.29,7,7,0,0,0-.7-1l-8.46.69c-8,.65-16.09.19-24.13.32a8,8,0,0,1-.83-.1c0-1.72-.84-3.27-.71-5a54.1,54.1,0,0,0,0-5.55,13.45,13.45,0,0,1,1.5-6.42c1-2,1.78-4.14,2.7-6.2.57-1.27,1.24-2.48,1.83-3.74.31-.64.52-1.33.89-2.28.72-.63,1.73-1.45,2.66-2.36.53-.52.84-1.29,1.4-1.76a29.86,29.86,0,0,1,4.37-3.28,7.69,7.69,0,0,0,1.55-1.4A13,13,0,0,0,56,213.32a2.69,2.69,0,0,1,1.66-.41c3.55,0,7.11-.1,10.65,0,2,.07,4-.11,5.94-.05,1.14,0,1.14,0,2.23-.76-1.27-2.57-3.52-4.32-5.36-6.41-1.28-1.45-2.44-3-3.64-4.5-1-1.24-1.9-2.55-3-3.73a11.87,11.87,0,0,1-2.35-4.4c-.49-1.5-1.11-3-1.6-4.45-.31-1-.5-2-.73-2.95-.15-.62-.3-1.24-.5-2.11L61,182c0-2.81,0-5.81,0-8.81a11.62,11.62,0,0,1,1-4.79,22.54,22.54,0,0,0,.83-3.38c.31-1.26.67-2.5,1-3.75a17.72,17.72,0,0,0,.74-3.31,53.94,53.94,0,0,0,0-7.94,12.2,12.2,0,0,0-1.87-6.08,26.37,26.37,0,0,1-1.61-3,7.45,7.45,0,0,0-.6-1,4.35,4.35,0,0,1-1.15-3.64c1.14-1.12,1.49-1.12,2.86.17,1.07,1,2,2.1,3.14,3.07.65.57,1.07,1.57,2.22,1.46.14,0,.34.21.45.37,1.27,2,2.83,3.76,3.3,6.17.19,1,.66,1.91,1,2.88A5.19,5.19,0,0,1,72,154a3.06,3.06,0,0,0-.24,1,18.39,18.39,0,0,0,0,2.1c.12,2-.68,3.85-1,5.77a13.92,13.92,0,0,0-.21,1.92q-.06,1.72,0,3.45a3.44,3.44,0,0,0,.46,2.42c.14.16.08.49.08.73-.1,2.78.79,5.42,1,8.26,1.09-.53,1-1.58,1.36-2.35a2.24,2.24,0,0,0,0-.9,14.79,14.79,0,0,1,1.12-5.83,22.39,22.39,0,0,0,.71-3c.51-2,.76-4.08,1.86-5.84a13.42,13.42,0,0,1,2.22-2.24,3.92,3.92,0,0,0,.7-.64c.52-.82,1-1.64,2.08-1.85a1.53,1.53,0,0,0,.74-.65c.75-1.12,1.47-2.26,2.21-3.38a1.45,1.45,0,0,1,.49-.52c1.92-1,2.75-3.11,4.33-4.47a7.89,7.89,0,0,0,1.19-1.7h3.22c-.67,2.45-3.13,3.49-4,5.86a1.57,1.57,0,0,1,.31.6,2.11,2.11,0,0,1,0,1.2,19.53,19.53,0,0,1-1.77,2.95,10.29,10.29,0,0,0-1.63,4.15,18.09,18.09,0,0,1-1.36,3.84c-1.13,2.36-1,4.83-.91,7.31.89,1.39.32,3.08,1,4.58.56,1.24.39,2.8.8,4.15.5,1.7.46,3.54,1.52,5.13a19,19,0,0,1,1.45,3.49,1.59,1.59,0,0,0,.37.59,18.18,18.18,0,0,1,3.39,4.62A11.19,11.19,0,0,0,96,197.25c2.11,1.91,4.19,3.87,6.43,5.63a16.59,16.59,0,0,0,3.25,2.34,10.94,10.94,0,0,1,2.19,1.88,7.08,7.08,0,0,0,.95.58,3,3,0,0,0,0-2.12,7.44,7.44,0,0,1,.08-5.47.78.78,0,0,0,.05-.14c.22-1.55.41-3.11.69-4.66.36-2,.68-4.06,2-5.82a42.18,42.18,0,0,0,2.73-4.53c.13-.23,0-.58,0-.88.53-.15.53-.15.12-.58Zm117.05,47.43c.2-1.12.45-2.23.59-3.35a19.27,19.27,0,0,1,.57-4.09c.61-1.78.63-3.76,1.29-5.56a28,28,0,0,1,1.45-3.73c.81-1.54,1.62-3,1-4.85a1.34,1.34,0,0,0-1.42.49c-1,1.2-2.07,2.33-3.13,3.48-1.54,1.68-3.11,3.34-4.62,5a4.12,4.12,0,0,0-1.32,3.58l-1.54.67a3.47,3.47,0,0,1-.29-1.15c.25-1.49.57-3,.88-4.44,0-.17.24-.31.27-.49.2-.93,1-1.72.73-2.91-.52.42-1.14.67-1.32,1.11a14,14,0,0,1-2.17,3c-1.24,1.63-2.61,3.16-4,4.88a3,3,0,0,1-.12-.81c.17-.91.36-1.81.58-2.7.3-1.17.63-2.33,1-3.48.25-.84.53-1.68.8-2.52l-.32-.14a42.76,42.76,0,0,0-4.61,7.17l-1.77-.15c.33-2.89,1.5-5.34,2.57-7.89l-1.43.25c-1.19,2.15-2.29,4.23-3.5,6.24-.3.5-.76,1.25-1.46.84L209,218.5c.46-1.35,1-2.79,1.45-4.27a2.9,2.9,0,0,0-.14-2.31c-.95,1.47-1.75,2.87-2.72,4.15s-1.24,3-2.92,4.06c-.26-.55-.51-1-.73-1.54a4.49,4.49,0,0,1,.36-3.72,3,3,0,0,0,.1-2.05,13.32,13.32,0,0,0-3.54,6.68l-1.1-.08a29.39,29.39,0,0,0,0-3.4c-.13-1.08,1.17-1.93.39-3.1l-.67,0c-1.21,2.21-2.4,4.37-3.62,6.58l-.94-.13-.79-2.92-3.42,4.68,1.67.1c.55,0,1.23-.13,1.62.14,1,.67,2,.43,3,.55.2,0,.45-.06.59,0,1.43.95,3.15.49,4.71,1a24.63,24.63,0,0,0,4.91.7c.2,0,.45,0,.57.13.63.58,1.4.44,2.14.47.3,0,.7-.1.88.06,1.08.94,2.36.43,3.55.57.49.06,1.14-.08,1.43.19a1.83,1.83,0,0,0,1.37.36c1.95.09,3.89.15,5.83.27a3.68,3.68,0,0,1,2.47,1.06c.92.93,1.8,1.91,2.77,2.79a7.84,7.84,0,0,1,2.19,4.29v6.54h1.88c-.12-1.48-.21-2.85-.35-4.22-.06-.63-.29-1.25-.34-1.88C231.46,233.41,231.49,232.46,231.47,231.51ZM125.83,243.38c-2.14-5-4.17-9.81-7.73-14.09-.35,1.86.54,3.24.74,4.74s.91,3,.93,4.57c0,1.4.11,2.8.18,4.19,0,1.05.14,2.09.14,3.13,0,.24-.29.48-.62,1-.51-1.94-1.36-3.39-1.55-5.1a8.28,8.28,0,0,0-1-2.49,44.18,44.18,0,0,0-2.06-4,6.37,6.37,0,0,0-2.37-2.73,8.32,8.32,0,0,0,.17,2.24,27.1,27.1,0,0,1,1.15,5.33c.12.73.28,1.45.44,2.16.22,1,.5,1.9.67,2.86a5.66,5.66,0,0,1,0,1.79c0,.3-.37.56-.77,1.11-1-1.85-2-3.34-2.69-4.95a29.23,29.23,0,0,0-6.15-9c-.15-.15-.48-.12-1-.23a40.17,40.17,0,0,1,4.1,15.14c-.52-.13-1-.11-1.19-.32A7.44,7.44,0,0,1,106,247.1a20.91,20.91,0,0,0-1-2.25,26.17,26.17,0,0,0-4.83-5.56c-.38-.31-.81-.55-1.4-.94a7.49,7.49,0,0,0,.11,1.58c.55,1.73,1.12,3.47,1.77,5.16.47,1.22.88,2.47,1.36,3.67a7.85,7.85,0,0,1,.28,3.37c-1-1.31-1.87-2.31-2.61-3.41a33.54,33.54,0,0,0-5-5.85,12.66,12.66,0,0,0-1.2-.86,19.47,19.47,0,0,0,1.34,6c.54,1.21,1.11,2.42,1.58,3.66a4.3,4.3,0,0,1,0,1.39l-.36.24c-3.39-4.28-8.06-6.92-12.3-10.22-.43.82,0,1.2.37,1.6,1.09,1.25,2.23,2.45,3.27,3.73,1.75,2.17,3.45,4.39,5.16,6.6a2,2,0,0,1,.29.66c.62,2,1.17,3.95,1.87,5.88a17.11,17.11,0,0,1,1.1,6.75c-.06,1.4,0,2.8,0,4.2a8.18,8.18,0,0,0,.14,1.06c.85-.61,1.58-1.12,2.3-1.65,1.22-.93,2.35-2,3.54-2.95a24.91,24.91,0,0,1,7-3.66,19.36,19.36,0,0,0,2.9-1.22,17.39,17.39,0,0,1,2.72-1.3c1.71-.67,3.53-1.11,5.17-1.93,3.75-1.87,7.43-3.89,11.32-5.51,2.59-1.07,5.05-2.47,7.64-3.76a3.1,3.1,0,0,0-.3-.81c-.26-.34-.66-.58-.88-.94a16.9,16.9,0,0,1-2.52-7.31,5.82,5.82,0,0,0-.24-1c-.49-1.69-1.16-3.35-1-5.17,0-.29,0-.6,0-.9.09-1.78-1.05-2.84-2.3-4.17a10.26,10.26,0,0,0,.24,3.66,7.77,7.77,0,0,1,0,4.53c-.1.33-.25.64-.37,1a20.77,20.77,0,0,1-1.76-3.8c-.33-.91-.66-1.82-.93-2.74-.6-2.08-2.39-3.33-3.48-5.07-.17-.26-.61-.34-1-.52-.33,1.6.43,2.88.78,4.24.55,2.13,1.24,4.25,1,6.51a12.16,12.16,0,0,0,0,1.35ZM58,219.44c-.37.36-.54.44-.57.55-.45,1.85-.86,3.71-1.35,5.54a20.56,20.56,0,0,1-1,2.5c-.44,1-1,2-1.35,3a15.06,15.06,0,0,1-2.44,4.38,4.8,4.8,0,0,0-1.23,2.84c-.65,1-1.53,1.75-1.69,2.66a8.1,8.1,0,0,1-2,3.46c-1.54,2-3.27,3.81-4.91,5.71a5.08,5.08,0,0,0-.49.89l.16.43c.52-.66.92-.41,1.43-.27a7.57,7.57,0,0,0,2.51,0c.62-.06,1.21-.35,1.82-.38,1.85-.07,3.72.09,5.55-.12a54.91,54.91,0,0,1,7.13-.53,2.69,2.69,0,0,0,1.18-.13c1.2-.62,2.44-.32,3.67-.32,2.18,0,4.36-.06,6.43-.09l-.54-8.92,3-2.58h1.34A11.27,11.27,0,0,1,76.5,237c1.18-.47,2.42-.8,3.63-1.22.44-.15.86-.54,1.29-.53a5.73,5.73,0,0,0,2.5-.71c.7-.32,1.65-.48,2-1,.8-1.15,2.08-1.33,3.14-1.84,1.75-.84,3.65-1.38,5.56-2.07a2.4,2.4,0,0,1-.44-2.74,5.09,5.09,0,0,0-.57-5.06,9.93,9.93,0,0,1-.42,1.79c-.7,1.47-1.45,2.93-2.24,4.35a26.57,26.57,0,0,1-1.57,2.39,1.41,1.41,0,0,1-2,.48c-.11-2.53.14-5-.3-7.57a33.71,33.71,0,0,1-5,10.71l-1.27-.06c0-1.35-.24-2.54.37-3.68a2,2,0,0,0,.1-.88c0-1.5,0-3,0-4.5a8.39,8.39,0,0,0-.15-1.07,4.13,4.13,0,0,0-.38.58c-.42,1.39-.78,2.81-1.27,4.19a23,23,0,0,1-1.25,2.72c-.83,1.68-1.62,3.38-3.32,4.41a3,3,0,0,1-.58-2.6,8.44,8.44,0,0,0,.34-1.87c.14-2.08.22-4.18.35-6.26,0-.55.14-1.1.22-1.64l-.35-.06a6.44,6.44,0,0,1-.29,1c-1,2.09-2,4.17-3,6.26-.59,1.26-1.15,2.54-1.76,3.79A34.82,34.82,0,0,1,68,238a17.08,17.08,0,0,1-2.17,2.26,6.38,6.38,0,0,1,0-1.22c.08-.27.37-.48.43-.74.26-1.27.48-2.56.71-3.84a2.73,2.73,0,0,1,.14-.58c.79-1.79.28-3.65.49-5.82-.52.49-.85.68-1,1-.72,1.4-1.45,2.8-2.06,4.25-.7,1.65-1.21,3.4-2,5a6.58,6.58,0,0,1-2.24,3.09c-.41-2.68.84-5,1.39-7.34.14-.64.23-1.31.39-2a12.22,12.22,0,0,0,.51-1.93c.09-1.39.08-2.8.07-4.2a6.84,6.84,0,0,0-.23-1.11,66,66,0,0,1-7.38,15.25,2.58,2.58,0,0,1-.12-2.28,9.92,9.92,0,0,0,.54-3.21,16.68,16.68,0,0,1,.7-3.4,13.48,13.48,0,0,0,1.12-4.68c0-.88.26-1.76.34-2.65C57.85,222.47,57.93,221.1,58,219.44Zm105.52,51.69a6.85,6.85,0,0,0,2.68-.23,26.41,26.41,0,0,1,3.41-.93c.7-.16,1.41,0,2.11-.5a5.43,5.43,0,0,1,2.17-.69A14.24,14.24,0,0,0,181,265a22.23,22.23,0,0,1,2.12-1.76c1.24-.9,2.5-1.77,3.77-2.63a12.13,12.13,0,0,0,2.81-3.29c1.64-2.29,3.75-4.24,4.72-7s1.19-4.49-1-6.22a5,5,0,0,1-3.46-1,1.65,1.65,0,0,0-1.26,0,24.26,24.26,0,0,0-2.51,1.11c-.87.41-1.76.81-2.59,1.3-1.84,1.11-3.62,2.33-5.48,3.41a10.14,10.14,0,0,0-3,2.87c-1,1.26-1.83,2.6-2.89,3.78a19,19,0,0,0-3.08,4q-2.41,4.62-4.75,9.3A19.94,19.94,0,0,0,163.56,271.13ZM186,235.06c-.51-2.4.11-4.69.32-7.06a3.75,3.75,0,0,0-1,1.28c-.32.61-.54,1.27-.89,1.85-.13.23-.49.32-.84.52l-.83-5c-1.44.25-.71,2.14-2,2.36-1.4-1.47-.5-3.56-1.53-5.18l-1.11.8c.15,1.12-.29,2.2.37,3.32a14.86,14.86,0,0,0,3.16,4.26c.55.46.7,1.39,1.22,1.91s1.42.79,2,1.32a29.85,29.85,0,0,0,5.42,3.93,11.71,11.71,0,0,0,1.59,1,31.89,31.89,0,0,1,3.87,1.84,3.69,3.69,0,0,1,2.16,3.46c.15,2.16-.84,4.05-1.4,6-.4,1.41-1.59,2.6-2.42,3.89a7.38,7.38,0,0,0-.42.91,12.33,12.33,0,0,0,2.25.82,10.16,10.16,0,0,1,4,1.81,7.44,7.44,0,0,0,1.77.63c.23.07.56,0,.72.14,1.46,1.22,3.39,1,5,1.66,1.13.43,2.32.69,3.54,1.05,0-.49.16-1,0-1.26-.93-1.47-.54-3.2-1-4.79-.51-1.89-.14-4-.65-6-.61-2.4.51-4.81.59-7.24a.32.32,0,0,1,0-.14l1.09-2.64c.69-1.71.69-3.65,1.75-5.25.17-.24,0-.68,0-1.31-.55.63-.84,1-1.16,1.31-.93,1-2,1.9-2.78,3a18.26,18.26,0,0,0-2.51,4,4.11,4.11,0,0,1-1.79,1.91c-.07-.23-.13-.32-.12-.41.15-1.65-.2-3.3.49-5a14.9,14.9,0,0,0,.68-4.09,2.36,2.36,0,0,0-.31-1.87l-4.76,9-.9-.21c0-1.57,0-3.07,0-4.56a12.14,12.14,0,0,1,.37-1.5,5.6,5.6,0,0,0,0-3.24c-.32.45-.55.74-.75,1.05-1.09,1.7-2.15,3.43-3.29,5.1-.34.49-.78,1.19-1.6.72-.59-2.63.43-5,1-7.75-2.09,2-3.13,4.42-5,6.22a7.12,7.12,0,0,1-.66-1.36,2.61,2.61,0,0,1,0-1.56c.72-1.31.24-2.64.52-4.19-1.74,1.34-2.31,3.1-3.32,4.61ZM80.43,264.69l-.07.17c1.15,1.72,2.27,3.45,3.45,5.14A3.72,3.72,0,0,0,85,271.14c1.27.65,2.61,1.16,3.89,1.79s2.37,1.28,3.78,2.05c.24-1,.48-1.84.63-2.69a15.73,15.73,0,0,1,.24-2.21,3.94,3.94,0,0,0,0-3.29,26.43,26.43,0,0,1-.75-3.1c-.26-1.11-.47-2.22-.78-3.31a23.12,23.12,0,0,0-3.07-6c-.64-1-1.44-1.9-2.12-2.88a44.45,44.45,0,0,0-3.06-4.5,75.54,75.54,0,0,0-5.94-5.93c-1.13-1-2.39-2.08-4.11-1.66l-1.27,1.46a14.21,14.21,0,0,0,.09,4,22.19,22.19,0,0,1,.45,3.17,17.24,17.24,0,0,0,.9,3.7,41,41,0,0,0,2.14,4c1,1.78,2,3.55,2.92,5.36C79.51,262.28,79.94,263.5,80.43,264.69ZM214.36,264a57.76,57.76,0,0,0,7.16-3c.54-1.3.88-2.24,1.32-3.14a30.48,30.48,0,0,0,2-4c.48-1.57,1.12-3.07,1.72-4.59a7.74,7.74,0,0,0,.68-2.64c.07-4.54,0-9.09,0-13.64a2.54,2.54,0,0,0-1-2c-1.11-.88-2.32-1.64-3.55-2.48-1.06,1.28-1.81,2.88-3.43,3.64a.77.77,0,0,0-.27.32c-.54.86-1,1.77-1.61,2.57a16.7,16.7,0,0,0-3,7.44c-.55,3.15-.28,6.33-.69,9.51-.48,3.63-.11,7.38-.11,11.24ZM145.85,229c-.67,1.17-1.28,2.18-1.85,3.22a16.83,16.83,0,0,0-2,6.1,9.31,9.31,0,0,1-.29,1.45,3.86,3.86,0,0,0,.5,3.88c.65.79,1.3,1.62,1.05,2.63.62.72,1.18,1.32,1.69,2a57.94,57.94,0,0,0,3.69,4.68c1.38,1.44,2.51,3.07,3.8,4.57.72.83,1.25,1.82,1.9,2.71a7.52,7.52,0,0,0,1.52,1.9,9.58,9.58,0,0,1,3.08,3.71,8.38,8.38,0,0,0,2.63,3.53c1-2,2-4,3-5.94.74-1.44,1.54-2.86,2.31-4.29a16.65,16.65,0,0,1,2.56-4.18,5,5,0,0,0,.61-1.51c-2.32.85-5.07,4-6.7,7.58l-.73-.93,3.11-8-.35-.26a10.68,10.68,0,0,0-2.61,2.14,22.79,22.79,0,0,1-2.67,3,7.64,7.64,0,0,1-.75.61c0-.46.1-.77,0-.89a2.21,2.21,0,0,1-.15-2.52c.84-2,1-4.28,2-6.25.14-.27,0-.69,0-1.34-.89,1.05-1.6,1.77-2.19,2.58-.47.66-1.07,1.19-1.5,1.92s-.79,1.83-2.1,1.48L154.7,251a3.54,3.54,0,0,0,.48-1.52c.07-.7-.18-1.6.17-2.06.77-1,.21-2.15.69-3.13.05-.09-.26-.35-.51-.66-.82.81-1.55,1.58-2.34,2.27s-.79,2-2,2.35c-.7-1.69.26-3.13.59-4.61a18.47,18.47,0,0,1,1.47-3.25,7.45,7.45,0,0,0,.31-1.39c-2.42.72-4.16,2.3-6.51,3.46a17.62,17.62,0,0,1,.37-2.1c.38-1.22.83-2.42,1.26-3.63.26-.72.53-1.43.9-2.46-1.13.61-1.9,1.09-2.72,1.44s-1.14,1.61-2.46,1c.61-1,1.13-2,1.76-3s1.47-1.89,2.17-2.86a4.26,4.26,0,0,0,.36-1ZM242,206.26c-1.63,2.58-3.26,5.05-3.91,8a8.1,8.1,0,0,1-.82,2.13,5.45,5.45,0,0,0-.94,3.29,8.58,8.58,0,0,1-.79,4,15.68,15.68,0,0,0-1,5.8,5.45,5.45,0,0,1-.18,1.32,9.16,9.16,0,0,0-.38,1.5c0,1.55,0,3.1,0,4.65a5.34,5.34,0,0,0,1.38,3.47,3,3,0,0,0,2.82-.74,14.17,14.17,0,0,1,2.3-1.3c.2-.75.44-1.68.7-2.6a3.76,3.76,0,0,1,.25-.54,29.26,29.26,0,0,0,1.61-4.34,13.6,13.6,0,0,1,.7-2.81,8.53,8.53,0,0,0,.42-2.29,13.87,13.87,0,0,0,.5-2.22c0-4.2,0-8.4,0-12.6,0-.3.09-.69-.06-.88-.64-.8-.42-1.71-.48-2.58a11.43,11.43,0,0,0-.2-1.13ZM55.41,216c-.33,0-.69-.18-.89-.06a30.27,30.27,0,0,0-9.77,8.88l-.08,1.7a28.33,28.33,0,0,0-2.31,3.82c-.82,1.58-1.24,3.33-2.28,4.83a21.39,21.39,0,0,0-1.4,3.24c-.29.65-.68,1.25-.9,1.65a11,11,0,0,1,.31,1.71c0,1.65,0,3.31,0,5,0,.93.08,1.85.12,2.86.42-.05.74,0,.88-.12a21.39,21.39,0,0,0,3.1-3.22,19.76,19.76,0,0,1,2.41-2.89,5.57,5.57,0,0,0,1.42-2A27.46,27.46,0,0,1,47.93,238c.54-1,1.1-2,1.56-3a38,38,0,0,1,2-4.51,26.35,26.35,0,0,0,1.63-3.8,20.78,20.78,0,0,0,1-3.48c.31-1.2.59-2.4.8-3.61.17-1-.18-2.08.55-3C55.55,216.49,55.44,216.23,55.41,216Zm143.51-39.62-.29-.1c-.34.6-.71,1.2-1,1.82a10.54,10.54,0,0,0-1.51,5.67c.08.89,0,1.8,0,2.7a2,2,0,0,0,.06.89c.83,1.46.47,3.17,1,4.7a28.24,28.24,0,0,1,.81,3.91,2.69,2.69,0,0,0,.49.77c1.57-2,1.91-4.28,2.26-6.53a19.11,19.11,0,0,0,.1-3.3c0-1.7.16-3.39-.54-5.09A41,41,0,0,1,198.92,176.35Zm-34.1.05a22,22,0,0,1-2.53,3.33,17.18,17.18,0,0,0-3.83,5.43c-1,1.94-2.06,3.85-3.15,5.74a38.94,38.94,0,0,0-2.71,5.91c-.08.22,0,.5.09.95,1.45-1,2.16-2.32,3.09-3.46.71-.89,1.2-2,1.92-2.85a12.77,12.77,0,0,1,2.88-3.08c.28-.17.44-.53.68-.78.93-1,1.84-2,2.82-2.86a23.48,23.48,0,0,1,2.17-1.58l-1.52-.46c.14-1.64.3-3.21.39-4.78A7,7,0,0,0,164.82,176.4Zm10.38,21.95h2.62l.75-2.27a44.6,44.6,0,0,1-2.36-6.18,6.15,6.15,0,0,0-.74-2.53c-1.14-1.33-1-3-1.5-4.5a30.85,30.85,0,0,1-.79-5.22l-1-.76c-.22,1.81-.54,3.47-.6,5.13a23.65,23.65,0,0,0,.39,5.85,34.93,34.93,0,0,0,2.26,6.35c.45,1.08,1.11,2.05.93,3.3A3.94,3.94,0,0,0,175.2,198.35Zm-74.7,28.83c.26-2.28.09-3.27-.68-4.21-1.24,1.79-2.49,3.58-3.85,5.56C97.8,228.65,99,227.5,100.5,227.18Z"/><path class="cls-2" d="M90.29,91H87.74l-3.29-3.21c-.14-.13-.27-.33-.42-.35-1.5-.23-1.7-1.45-2-2.58-.16-.53-.38-1-.52-1.44l-2.36-.29-.24-1.69c-.32,0-.76-.14-.92,0-.36.34-.77.7-1.14.4a6.19,6.19,0,0,1-1.34-1.66A2.89,2.89,0,0,1,75.39,79a6,6,0,0,0-1.5-4.26c-.85.06-1.87,1.37-2.72-.22,0-.6,0-1.19,0-1.79a4.22,4.22,0,0,0-.73-2.92,3.06,3.06,0,0,1-.4-2,5.68,5.68,0,0,0-1.47-4.44,1.46,1.46,0,0,1-.27-1.5,17.85,17.85,0,0,1,.72-2l.83.51A3.86,3.86,0,0,0,69.7,58a3.25,3.25,0,0,1-.15-1.68A15,15,0,0,1,70,54.55c.24-1,.45-2,.7-3.1.24,0,.62-.12.77,0,1,.92,1.94,1.9,2.87,2.88a1.29,1.29,0,0,1,.36.76,10,10,0,0,0,3,6.08c.81.89,1.52,1.87,2.25,2.82a1.43,1.43,0,0,1,.21.68,1.92,1.92,0,0,0,1.22,1.58A2.21,2.21,0,0,1,82.59,68c.53,2.09,1.22,4.14,1.83,6.16a8.85,8.85,0,0,0,.93,0c1-.11,1.57.09,1.94.89.51,1.08.94,2.21,1.4,3.31l3.47.88a13.7,13.7,0,0,1,1.12,2.71,28.8,28.8,0,0,0,2.86,7.44,13.13,13.13,0,0,1,.76,2c.46,1.52.81,3.08,1.33,4.58a33.8,33.8,0,0,1,1.27,5,2.09,2.09,0,0,1-1.08,2.51l-1.21-.61L95.6,99.53c-.66.39-1.53.6-1.84,1.14-1,1.67-3,1.87-4.2,3.33-.93,1.16-2.6,1.74-4,2.56-.45.27-1,.41-1.41.7a2.18,2.18,0,0,0-.89.92c-.34,1-.53,2-.74,2.83l1.64,2.16.24-1.62c.37-.83,1.14-.81,2.06-.62l.65,1.17-.46,3.17,1.57,1.64a18.73,18.73,0,0,0,2.48-.8c.5-.25.89-.59,1.48-.31a3.11,3.11,0,0,1,1.65,1.38,7.27,7.27,0,0,1,.23.87c.41-.13.75-.26,1.1-.34.75-.17,1.5-.32,2.25-.47a2.86,2.86,0,0,0,.67-.08c1.17-.54,1.27-.53,2.26.26h2a8.63,8.63,0,0,0,.54,1.55c.9,1.59,1.13,3.59,2.9,4.65a2.67,2.67,0,0,1,.59.65c.23,1.56.49,3,.66,4.47a4.89,4.89,0,0,1-.19,1.46c-.06.34-.2.67-.25,1a17.62,17.62,0,0,1-1.21,4.61c-.65,1.59-1.08,1.72-2.46.47.11-.52.23-1.13.38-1.74.25-1,.62-2-.18-3a.93.93,0,0,1-.11-.42c-.26-1.7-.52-3.39-.78-5.14-1.65-1.66-2.39-2.05-3.83-2-2.26,2-4.54,4.18-6.88,6.23-1,.91-2.21,1.68-3.55,2.68l-1.63.09a10.06,10.06,0,0,1-3.56,2.46c-.87.29-1.43,1.48-2.1,2.29-.27.33-.41.77-.7,1.09-.73.79-1,.79-2.15.08l-1,2.29c-1.83.55-2.18.36-3-1.83a7,7,0,0,0-1.52.77c-1.38,1.24-2.44,1-3-.73a4.4,4.4,0,0,0-.18-.42L67.69,139l-2.52-2.76v-1.79c-.58-.54-1.19-1-1.7-1.6A4.78,4.78,0,0,1,62.14,130c-.06-.74-.25-1.47-.3-2.22-.08-1.38-.17-2.78-.12-4.16a31.11,31.11,0,0,1,.46-3.85,9.28,9.28,0,0,1,.68-2.25,1.29,1.29,0,0,1,.89-.67,2,2,0,0,0,1.46-1.06c1-1.41,2-2.82,2.93-4.24a10.76,10.76,0,0,1,.92-1.29q2.26-2.35,4.59-4.65c1-1,1.36-1,2.47-.39,1.72-1,3.26-2.27,5-2.64a37.6,37.6,0,0,0,4.55-1.32,34.49,34.49,0,0,0,4.25-1.69A35.72,35.72,0,0,1,94.57,98c.45-1-.76-1.67-.65-2.71-1.76-.18-2.16-1.65-2.86-2.83C90.77,92,90.54,91.44,90.29,91Z"/><path class="cls-3" d="M184,115.25l-1.43-1.3c-.33.09-.91.45-1.25.29s-.65-.8-.85-1.28c-.39-1-.71-2-1.05-3a4.29,4.29,0,0,1-.14-.73,32.54,32.54,0,0,0-1.67-6.63c-.39-1-.82-2-1.23-3a3.21,3.21,0,0,0-1-1.38,2.39,2.39,0,0,1-1-1.73,5.29,5.29,0,0,0-.55-1.32,32.87,32.87,0,0,0-2.21-5,1.1,1.1,0,0,1-.14-.42c-.21-1.81-.89-3.54-.7-5.4a27,27,0,0,0,0-2.7,8.42,8.42,0,0,1,1.64-5.24,7.93,7.93,0,0,0,.78-2c.62-1.59.84-3.34,2.19-4.62a8.07,8.07,0,0,0,1.13-2.2h1.85c.63,1.42.08,2.58-.45,3.74a11.72,11.72,0,0,0-1.06,2.49c-.25,1.29-.87,2.49-.75,3.88a27.37,27.37,0,0,1,0,4,7.26,7.26,0,0,0,1.53,4.31c1.31,2.12,2.84,4.1,4.23,6.18a17.24,17.24,0,0,1,1.09,2.24,4.22,4.22,0,0,0,2.2-3.35,17.77,17.77,0,0,1,.54-2.36l1.06-.53a19.39,19.39,0,0,0,.75-2.47c.29-1.65.46-3.33.7-5,.17-1.2.46-2.4.52-3.61a11.71,11.71,0,0,0-.37-2.47c0-.2-.08-.39-.11-.59a37.36,37.36,0,0,0-.74-4.62,33,33,0,0,0-2-4.94c-.84-1.71-1.8-3.38-2.79-5-.59-1-1.34-1.87-2-2.81a31.79,31.79,0,0,0-3.66-4.29,6.65,6.65,0,0,0-1.72-1.28,5.8,5.8,0,0,1-2-1.84,50.56,50.56,0,0,1-2.81-4.69c-.82-1.52-1.52-3.1-2.22-4.68a2.19,2.19,0,0,1,0-1.14,1,1,0,0,1,1.58-.71,5.14,5.14,0,0,1,2.14,2.67,6.71,6.71,0,0,0,.8,2,35.09,35.09,0,0,0,2.2,2.86c.8,1,1.7,1.88,2.41,2.91,1.16,1.71,3.13,2.4,4.53,3.8.33.34,1.13.22,1.84.34a14.22,14.22,0,0,1,2.7,3.74,3.29,3.29,0,0,0,1.93,1.47,6,6,0,0,1,1.37.77,17.93,17.93,0,0,1,1.85,1.64,11.75,11.75,0,0,1,2.62,4.59,5.7,5.7,0,0,0,.25.56l1.93,1a18.87,18.87,0,0,0,1,3.3,4,4,0,0,1,.39,1.82,9.29,9.29,0,0,0,.47,3.37,7.9,7.9,0,0,1,.17,2.68c0,.9,0,1.8,0,2.7,0,.66-.15,1.28.43,1.93.31.35.17,1.27,0,1.86a26.28,26.28,0,0,0-1.09,4.32,30.18,30.18,0,0,1-.93,4c-.25.94-.55,1.86-.77,2.8-.45,1.85-.76,3.74-1.33,5.54-.51,1.61-1.28,3.14-1.93,4.7a3.46,3.46,0,0,0-.35.79,37.56,37.56,0,0,1-1.13,4.32c-.31,1-.07,2.2-1.19,2.81-.85,4.55-2.71,8.69-4.49,13l-2,.12c-.24-1-.46-1.82-.62-2.64a2.19,2.19,0,0,1,0-1c.49-1.51,1-3,1.53-4.51.08-.23.13-.62,0-.72C183.84,116.94,184.23,116,184,115.25Z"/><path class="cls-4" d="M93.7,47.12l.57,0,1-1.76h1.37a5.61,5.61,0,0,1,.89,3.81l1.63.86c.39,1.62.44,3.07,1.09,4.15a10.31,10.31,0,0,0,2.54,2.27c-.67,5.72-.26,10.86-.46,16-.1,2.32-.37,4.64-.6,7-.08.77-1.58,2-2.33,1.87a2.82,2.82,0,0,1-1.22-.9c-.32-.35-.51-.82-.8-1.21s-.62-.75-.9-1.09c0-.2,0-.35,0-.5-.19-2.77-.34-5.55-.6-8.32a27.58,27.58,0,0,0-.77-3.4,1.79,1.79,0,0,1-1.69-2.2l-3.48-1.3-.22-2.51c-1.7-.46-2.2-1.09-2.2-2.79V54.92L85.7,53l-.14-2.8-.89.42c-.47-1.32-1-2.6-1.36-3.93a2.78,2.78,0,0,1,0-1.76,8.61,8.61,0,0,0,.36-3.69c0-2.14,0-4.28,0-6.43l.89-.75a1.26,1.26,0,0,1,.28.11,1.8,1.8,0,0,0,2.09.22c1.24-.55,1.23-.58,2,.44.22.57.49,1.13.66,1.72a4.87,4.87,0,0,1,.15,1.32c0,1.6,0,3.2,0,4.65l1.64,2.11c.3,0,1.1-.42,1.46.48C93.09,45.71,93.34,46.27,93.7,47.12Z"/><path class="cls-5" d="M147.55,97.76c.14.9.32,1.86.42,2.83a6.3,6.3,0,0,0,.53,2.83c.44.75.32,1.83.48,3a1.74,1.74,0,0,0-.29.61c-.25,1.41-.38,2.85-.71,4.24a27.28,27.28,0,0,1-1.13,3.09c-.61,1.66-1.25,3.32-1.81,5a1.71,1.71,0,0,1-1.38,1.19c-.67.14-1.06-.41-1.4-.87a.87.87,0,0,1-.12-.7c.27-.76.7-1.47.91-2.24a8.18,8.18,0,0,0,.06-4.47,6.38,6.38,0,0,1-.42-2,5.52,5.52,0,0,0-1.35-3.6,62.35,62.35,0,0,1-4.18-6.37c-1-1.79-2.23-3.47-3.23-5.27a11.37,11.37,0,0,0-2.22-3.18c-1.41-1.27-2.85-2.5-4.14-3.88-1.11-1.19-2-2.55-3-3.84s-2-2.37-2.84-3.62a24,24,0,0,1-1.79-3.1c-1.31-2.66-2.57-5.35-3.86-8-.12-.26-.35-.5-.36-.76,0-1.29,0-2.58,0-4l2.25-.21c.27,1.41.41,2.64.76,3.81a9,9,0,0,0,1.15,2.29c.86,1.33,1.51,2.82,2.81,3.84a2,2,0,0,1,.65.77c.55,1.33,1.78,1.87,2.86,2.59a15.36,15.36,0,0,1,1.42,1,5.41,5.41,0,0,0,2.89,1.51c.2,0,.46,0,.56.17.93,1.17,2.42,1.66,3.34,2.93.56.78,1.74,1.11,2.64,1.64a5.25,5.25,0,0,1,1.32.79c.95,1,1.78,2.15,2.71,3.19a2.38,2.38,0,0,0,1.13.6,2.32,2.32,0,0,1,1.7,1.79c.4,1.34,1,2.62,1.48,3.92.09.23.21.44.28.67C146,97.05,146,97.05,147.55,97.76Z"/><path class="cls-6" d="M209.85,129.14l1.05-.42.83-2.51a12.54,12.54,0,0,1,.57-1.83c.79-1.63,1.62-3.26,2.52-4.84a9.21,9.21,0,0,1,1.32-1.46L218,118,219,119l-.45,1.39a2,2,0,0,0-.16.4c-.22,1.9-.48,3.8-.61,5.71a6.28,6.28,0,0,0,.38,2.71,5.63,5.63,0,0,1,0,3.4,22.44,22.44,0,0,0-.47,4.29,17.86,17.86,0,0,1-1.84,7.1c-.24.42-.81.63-1.2,1a4.21,4.21,0,0,0-1.06,1.09,15,15,0,0,0-1.07,2.82,18,18,0,0,0-.27,2.67l-1.61,1.21h-1.67l-.91-1.14c.17-1.11.37-2.42.56-3.73,0-.25.13-.57,0-.73-.9-1.27-.48-2.7-.5-4a7.72,7.72,0,0,1,.49-3.93c.27-.51.05-1.27.09-1.92s-.24-1.49.52-2.05c.14-.1.11-.46.13-.7C209.52,132.74,209.68,130.92,209.85,129.14Z"/><path class="cls-7" d="M185,32.45c-.51,2.81-2.33,5.65-4.24,8.59l-1.17.09-1.41-1.48a2.57,2.57,0,0,1,.42-2.3c.21-.23.11-.76.12-1.16a21.65,21.65,0,0,1,.55-4.87,10.12,10.12,0,0,0,0-2.35c-1.92-.53-2.23-2.41-2.8-3.89a18.65,18.65,0,0,1-1.36-6.59,5.69,5.69,0,0,1,1.55-3.89l1.36.86c0,.72.08,1.32.12,2,2,1.79,2.85,4.42,4.08,6.78S185,28.91,185,32.45Z"/><path class="cls-8" d="M230.34,233.91c.19-.17.5-.32.54-.52.09-.43,0-.9.07-1.33,0-.21.34-.37.52-.55,0,1,0,1.9.06,2.84.05.63.28,1.25.34,1.88.14,1.37.23,2.74.35,4.22h-1.88Z"/><path class="cls-9" d="M175.06,133.32l-2,.2,0-.17a12.58,12.58,0,0,0-2.89,1.36,20.56,20.56,0,0,0-3.38,3.47c-1,1.24-1.05,1.38-2.56.52-.22.28-.48.56-.69.87-.38.52-.7,1.08-1.1,1.59-.9,1.13-1.26,1.11-2.35-.17.88-1.42,1.88-2.84,2.66-4.37a41.28,41.28,0,0,0,1.54-4c.46-1.2.94-2.39,1.39-3.58.13-.36.4-.86.27-1.08-.82-1.33-.3-2.71-.3-4.07s-.07-3-.11-4.49c0-1.15,0-2.3-.13-3.45,0-.57-.31-1.12-.37-1.7a26.72,26.72,0,0,1-.19-2.83,2.3,2.3,0,0,0-.93-1.91,1.66,1.66,0,0,0-2.63.53,7.05,7.05,0,0,0-.6,2.29,28.3,28.3,0,0,1-.56,5.8,2.44,2.44,0,0,0,.13,1.46,5.28,5.28,0,0,1-.5,4.87l-1.48.16a21.09,21.09,0,0,1-1.24,2.71c-.82,1.34-1.77,2.61-2.67,3.9a1.14,1.14,0,0,1-.56.47c-2.54.65-4.34,2.48-6.35,4-2.35,1.73-4.63,3.54-6.94,5.31a2.18,2.18,0,0,1-1.1.4c1-2.13,2.35-4.07,2.67-6.68-1.61,1-2.25,2.52-3.33,3.66a31.11,31.11,0,0,1-3.61,3.43,3.13,3.13,0,0,1,.1-.88c.7-1.64,1.45-3.27,2.15-4.91.23-.52.38-1.08.57-1.62l-.28-.26a17.22,17.22,0,0,0-1.66,1c-1.19.88-2.31,1.85-3.51,2.72-.66.47-1.39,1.08-2.17.08-.09-.11-.45,0-.88,0,.11-.78.21-1.49.32-2.21a6.82,6.82,0,0,0,.23-1.46c-.25-3.78-.23-7.6-1.26-11.28-.49-1.75-1.51-3.37-1.91-5.13-.74-3.2-3.31-4.87-5.35-7a30.46,30.46,0,0,0-7.7-5.68c-1.36-.73-2.1-2.05-3-3.24a7.45,7.45,0,0,0-1.38-1.24c-.49-.4-1.16-.65-1.49-1.13a27.22,27.22,0,0,1-3.81-9.31,27.92,27.92,0,0,1-.48-8.2,23,23,0,0,1,1.9-8.24c1.86-3.93,4-7.73,6-11.59,1-1.84,1.89-3.7,2.85-5.54a11,11,0,0,1,.77-1.09l1,.65c.15,0,.22,0,.24,0a34.66,34.66,0,0,1,5.4-6.91,2.45,2.45,0,0,1,1-2.43c1.61-1.44,3.2-2.92,4.88-4.29.42-.34,1.16-.29,2-.48,3.51-2.78,7.27-5.73,11-8.74A5.81,5.81,0,0,0,142,31.6c.52-.94.94-1.93,1.38-2.92.9-2,.38-4-.41-5.93a15.37,15.37,0,0,0-1.56-2.51,1.39,1.39,0,0,0-.52-.53c-2.11-.83-2.94-3.15-4.89-4.19a16.9,16.9,0,0,1-2.74-2,9.12,9.12,0,0,1-1.21-1.45c.33-1.18,1.07-1.18,1.72-.84,2.64,1.36,5.63,1.89,8.14,3.51,2,1.28,4.21,2.22,5.73,4.13a12,12,0,0,1,2.89,5.73,19.11,19.11,0,0,1,.09,3.21,15.85,15.85,0,0,1-1.81,6.53,35.66,35.66,0,0,1-4.67,6.67c-2.29,2.78-4.73,5.45-7,8.25a29,29,0,0,0-3.6,6.11A27.9,27.9,0,0,0,132,61a3.4,3.4,0,0,0-.1,1.34c.49,2.82.34,5.76,1.6,8.46a8.15,8.15,0,0,1,.66,3.35c0,2.36,1.34,3.94,2.73,5.64l1.83-1c-.11-.47-.25-1-.35-1.51a5.73,5.73,0,0,1-.17-1.47,65,65,0,0,1,.67-7c.7-3.68,1.93-7.22,4.67-9.93a18,18,0,0,1,4.08-2.95,4.47,4.47,0,0,1,3.72-.34,16.71,16.71,0,0,1,3.94,2,56.14,56.14,0,0,0,5.21,3.13,3.89,3.89,0,0,0,1.75.27c1.6,0,3.2-.09,4.8,0a23.29,23.29,0,0,1,2.7.4c1.58-.26,3-1.4,4.51-2.34a1.74,1.74,0,0,1,1.79-.35c.52,1.33.33,2.09-.71,2.82-.73.51-1.46,1-2.18,1.53A11.27,11.27,0,0,1,167,65.1a21.6,21.6,0,0,1-2.36.27c-1.39-.08-2.75-.36-4.14-.48a47.28,47.28,0,0,0-5.94-.31,2.91,2.91,0,0,0-2.52,2,11.68,11.68,0,0,0-.94,6.27,8.23,8.23,0,0,1,1.78,4.33,2.87,2.87,0,0,0,.83,1.34,9.5,9.5,0,0,0,1.53,1.38,1.88,1.88,0,0,0,1.16.38,1.9,1.9,0,0,1,1.85,1,3.34,3.34,0,0,1,.46.77c1.12,2.95,3.32,4.93,5.84,6.68a26.07,26.07,0,0,1,3.39,3.1,4.14,4.14,0,0,1,.6,1.32l-1.21,1c.34,1.15,1.29,1,2.1,1.14a11.29,11.29,0,0,0,.77,1.1,10.06,10.06,0,0,0,1.31,1.3,20.68,20.68,0,0,1,1.72,1.16,3.15,3.15,0,0,1,1.08,1.68c.16,2.21,1,4.26,1.38,6.41,0,1.6.69,2.49,2.07,2.73h0a2.66,2.66,0,0,1,0,2.29,32.94,32.94,0,0,0-.9,3.45c-.24,1-.44,1.95-.68,3a5.42,5.42,0,0,0,2.34-3.67c.31-1.71.48-3.45.71-5.17.11-.79.23-1.59.35-2.38l.36-.09.51.7h0a5.1,5.1,0,0,0,1.33,2.84c.2-2,.37-3.73.55-5.49l.53.21a34.88,34.88,0,0,1,2,8.44h.35l1.53-9.41.33,0c1.08,3.42.47,7,.87,10.5,1.21-4.22,2-8.56,3.47-12.69h.34a13.79,13.79,0,0,1,.61,2.83,53.88,53.88,0,0,1-.29,5.82,50.48,50.48,0,0,1-.87,5.75c-.32,1.44-.36,3-1.27,4.25-.19.26-.42.5-.76.89l-.4-1.29c-.15.14-.32.21-.35.33-.43,1.63-.86,3.26-1.23,4.91a5.32,5.32,0,0,0-.11,1.64c.2,2.79.33,5.59.7,8.35.42,3.05,1.1,6.07,1.6,9.11.31,1.9.5,3.83.75,5.69.27.12.4.22.53.22,1.18,0,1.4.21,1.45,1.34s.06,2.47.1,4.05c-.08.36-.19,1.09-.38,1.8a10.63,10.63,0,0,1-.71,2.08c-.42.84-1,.89-1.81.27l-.64-.54c-.43.53-.83,1.05-1.21,1.53a3.42,3.42,0,0,1-.86,0,1.71,1.71,0,0,0-2.11.51c-.3.36-1.14.26-1.82.17a20.1,20.1,0,0,0-1.55,1.36,27.69,27.69,0,0,1-3.4,3.27c-1.34,1-1.93,2.61-2.69,4-.36.69-.7,1.38-1.1,2.15a2.23,2.23,0,0,1-1.3-2,6.21,6.21,0,0,1,.51-3.5,1.59,1.59,0,0,0,.2-1c-.42-1.88.06-3.76,0-5.64a3.42,3.42,0,0,0-.12-.49c-.75.23-.9.9-1.1,1.47-.45,1.25-.85,2.53-1.21,3.81a3.08,3.08,0,0,1-2.4,2.19,21.55,21.55,0,0,1-2.35.34v-1.69c0-3,.19-6-.55-9a10,10,0,0,1-.07-1.35c-.14-1.23-.38-2.46-.45-3.69-.08-1.44,0-2.89,0-4.52l1.3-.88c1.83-3.17,3.55-6.28,5.42-9.3a27.48,27.48,0,0,1,2.5-2.7c.34-.41,1.06-.7.79-1.46l.46-.11-.12-.21Zm-32.41-16.9c1.3,1.35,1.9,1.24,2.57-.38a1.66,1.66,0,0,0,.1-.29c.71-2.42,1.45-4.84,2.1-7.29a5.59,5.59,0,0,0,0-2c-.11-1-.62-2-.46-2.9a13.6,13.6,0,0,0-.41-5.32,11.28,11.28,0,0,0-.85-1.87c.34-.81-.2-1.64-.93-2.4-.34-.36-.67-.73-1-1.08-1-1-2-2-3.06-3-2.23-2-4.49-4-6.75-6a5,5,0,0,0-.8-.4,20.29,20.29,0,0,1-1.91-1.12c-1.77-1.26-3.53-2.53-5.26-3.86a21.19,21.19,0,0,1-2.37-2.18,27.27,27.27,0,0,1-2-2.38,15,15,0,0,1-1.3-2c-.82-1.45-1.6-2.93-2.32-4.27-2.1-.23-2.74.57-2.12,2.32.28.79.61,1.56.91,2.34l2.5,6.64c1-.31,1.39.24,1.8,1a18.92,18.92,0,0,0,1.58,2.13c1.29,1.69,2.55,3.39,3.88,5,.72.88,1.52,1.7,2.32,2.5s1.65,1.41,2.36,2.22c1.08,1.21,2,2.53,3.09,3.77a1.81,1.81,0,0,0,1,.72,1.63,1.63,0,0,1,1.36,1l3.52,6a6.65,6.65,0,0,0,.34.65,10.19,10.19,0,0,1,2.1,6.22C142.65,112.29,142.65,114.39,142.65,116.42Zm-4.38,17.34a1.23,1.23,0,0,0-.25,0s-.06.07-.09.11.14.11.21.12S138.22,133.82,138.27,133.76Z"/><path class="cls-10" d="M69.91,249.66a2.1,2.1,0,0,0,.64-1.86c-.08-1.24-.11-2.48-.23-3.72a6.21,6.21,0,0,1,1.46-5.26,12.59,12.59,0,0,1,1.18-1c1.24.76,1.44,1.09.82,1.9a4.53,4.53,0,0,0-.83,3.36c.14,1.69.29,3.38.36,5.07a12.71,12.71,0,0,0,1.86,5.57c1.52,2.82,3.11,5.6,4.72,8.37q2.27,3.92,4.62,7.79a4,4,0,0,0,1.93,1.53c2,.91,3.85,2,5.8,3a19.6,19.6,0,0,0,2.17.81c2-1.9,4-3.89,6.2-5.69a23.83,23.83,0,0,1,6.33-3.73c3.52-1.43,7-2.87,10.52-4.39a15.35,15.35,0,0,0,2.74-1.72c2.2-1.58,4.77-2.36,7.2-3.43,2.22-1,4.5-1.82,6.74-2.76,1.17-.49,2.31-1.06,3.56-1.64-.23-.36-.29-.56-.43-.66a11.24,11.24,0,0,1-3.34-4.65c-.91-2-1.94-3.88-2.84-5.86a16.91,16.91,0,0,1-.8-2.53,50.82,50.82,0,0,1-1.18-7.36c-.39-3.17.31-6.27.47-9.4a39.69,39.69,0,0,1,.91-5.13c.25-1.32.42-2.66.78-3.95a58.61,58.61,0,0,1,1.9-5.94,43.09,43.09,0,0,1,2.29-4.49,2.78,2.78,0,0,1,.89-1,70.63,70.63,0,0,0-2.26,13.4c.4-.29.61-.36.66-.49.87-2.33,1.63-4.69,2.59-7s2.16-4.64,3.27-6.95c.23-.47.41-1.07,1.26-.91a34.38,34.38,0,0,0-1.62,12.82c.88-2.45,1.5-4.71,2.48-6.81a42.81,42.81,0,0,1,3.15-6.23l.33.1a5.62,5.62,0,0,1,0,1.08c-.31,2.12-.65,4.24-1,6.36-.39,2.54-1.12,5-.82,8a95.23,95.23,0,0,1,11.14-15.5l.32.19c-1,2.22-2,4.44-3,6.67s-2.15,4.58-3,6.95-2.06,4.41-2.58,6.93c1.74-1.12,3.28-2.15,4.87-3.1a12.17,12.17,0,0,1,2.06-.7,7.92,7.92,0,0,1-.52,1,49.05,49.05,0,0,0-4.83,7.6c-1,1.87-1.88,3.81-2.81,5.72a13.57,13.57,0,0,0-1.08,4.93c-.13,1.59-.05,3.2-.08,4.8a18.49,18.49,0,0,0,1,5.56,36.81,36.81,0,0,0,1.41,4.69,8.78,8.78,0,0,0,3.72,4.5,20,20,0,0,0,1.22,1.88c2,2.45,4,4.87,6,7.32,1.83,2.27,3.61,4.57,5.32,6.73,2.83.42,5.3-.38,7.83-.87a24.53,24.53,0,0,0,6.38-2.77,22.21,22.21,0,0,0,2.61-2.2,53.21,53.21,0,0,1,6.56-4.24,1.89,1.89,0,0,0,.57-.44c.81-.94,1.63-1.87,2.38-2.85,1.15-1.48,2.24-3,3.34-4.52a12.74,12.74,0,0,0,1.85-4.32,4.47,4.47,0,0,0-.08-1.62c-.07-.54-.19-1.07-.26-1.5l1.48-2.06c1.26-.16,1.48,0,1.55,1.06a12.65,12.65,0,0,1-1.19,6.68c-.86,1.66-1.59,3.38-2.46,5.24.44.22.93.5,1.46.71,2.39.94,4.78,1.9,7.2,2.78,1.49.54,3,.91,4.55,1.41.89.29,1.73.69,2.61,1a28.1,28.1,0,0,0,4.79,1.54,5.25,5.25,0,0,0,2.76-.92c.82-.41,1.52-1.05,2.31-1.55a8.26,8.26,0,0,1,1.37-.5c.29-.67.66-1.52,1-2.38q2-4.85,4-9.7a4.46,4.46,0,0,0,.4-1.4c.08-1.55.06-3.1.14-4.65.06-1.39.24-2.77.3-4.17a30.4,30.4,0,0,0,0-4.16,7,7,0,0,0-4-5.15,1.88,1.88,0,0,1,.19-2.22,1.16,1.16,0,0,1,1.33-.61,31.53,31.53,0,0,0,2.83,2.7c2.61,1.91,3.13,4.56,3,7.53,0,1.22,0,2.45.08,3.86l1.48-.17a5.2,5.2,0,0,0,0-1,25.77,25.77,0,0,1,0-10.71c.27-1.31.26-2.69.52-4,.42-2.09.9-4.17,1.47-6.22.51-1.86,1.12-3.69,1.8-5.49.3-.8.6-1.71,1.57-2,1.47.64,1.74,1,1.36,2.45s-1,3-1.44,4.53c-.62,2.24-1.11,4.52-1.74,6.77a28.93,28.93,0,0,0-.71,8,68.22,68.22,0,0,0,.73,7.28c1.4.77,1.67.74,2.54,0a15,15,0,0,0,3.17-4.57c1.24-2.35,1.31-4.85,1.71-7.33a46.72,46.72,0,0,0,.93-5.58c.16-3.84.1-7.69.1-11.54,0-1.09-.12-2.19-.14-3.29a3.74,3.74,0,0,1,1.75-2.19A1.17,1.17,0,0,1,247,206a5.66,5.66,0,0,1,.3,1.46c2.21,2.66,2.35,6.9,2.2,10.49a97.34,97.34,0,0,1-1,9.91,32.57,32.57,0,0,1-1.25,3.68,28.38,28.38,0,0,0-1,3.62c-.32,1.79-.62,4-1.59,5.4a32.32,32.32,0,0,1-3,3.47c-.44.41-1.79,1.63-2.36,1.67-2.48.14-4.64,1.15-7.09.39-.25,1.53.14-1.51,0,0-.19,2.21-1.45,5.4-1.88,7.52-.53,2.61-2.32,5-3.08,7.5-.47,1.54-1.16,4.35-2.59,5-2.17.93-4.58,2-6.67,3.09-1.39.72-4.93.39-5.75-.35-.55-.51.65.07,0,0s-3-.91-3.75-1.07a55.58,55.58,0,0,1-6.79-2c-1.17-.41-2.12-1.2-3.34-1.41a14.84,14.84,0,0,1-4.5-1.38c-.83-.51,1,.56,0,0-1.1,2.14-1.63,1.31-3.24,2.75s-3.13,2.52-4.92,4a13.09,13.09,0,0,1-3.59,1.78c-.69.22-5.93,2.57-6.62,2.8-1.45.49,1.47-.44,0,0-2.09.63-5.51,1-7.5,1.83s-6.31-.4-8.25.09c-.54-2.15-2.4-2.64-3.54-4.17-.85-1.13-2.29-3.43-3-4.62h0c-1.89-2.29-4.39-5.69-6.29-8-.35-.42.38.41,0,0-3.2-.27-3.3-2.06-5.81-4.39-2.85,1.53-5.21,3.12-8,4.6-1.6.83-5.1,2.4-6.75,3.16-3.13,1.44-6.39,2.89-9.54,4.29-2.07.93-4.87,2.31-7,3.21-4.16,1.8-5,2.52-8.72,5.1a23,23,0,0,0-2.7,2.53c-.65.72-3.1,1.11-4.09,1.12-2.3,0-4.42-2.51-6.52-3.41-1.54-.66-2.93-1.59-4.51-2.16a3.92,3.92,0,0,1-2-1.84c-.51-.9-1.16-1.72-1.74-2.57a13.29,13.29,0,0,1-.91-1.35c-.88-1.66-1.75-3.32-2.58-5-.68-1.37-1.27-2.78-1.95-4.16-.78-1.6-1.6-3.18-2.4-4.76-.29-.56-3.55.81-3.78.35-3.14.21-5.24,1-8.32,1.29-2.08.17-2,.17-4,.41-.2,0-5.63.37-5.83.38-4,.14-3.92.09-7.92.21-1.28,0-4.16-1.27-5.43-1.38-.48,0-2.56-2.07-2.9-2.41-1.07-1.08.09,1.58,0,0-.05-.74-.66-3.91-.63-4.63.11-2.44-.4-4.19,0-6.58a40.61,40.61,0,0,1,1.21-6,37.43,37.43,0,0,1,1.19-3.81,57.57,57.57,0,0,1,2.94-5.88c.71-1.21,1.86-4.34,2.91-5.29,1.9-1.73,5.71-3.88,7.71-5.49a24.48,24.48,0,0,0,4.87-1.62l2,1.29c-.76.75-1.34,1.33-1.93,1.9l-7.31,6.92a6.11,6.11,0,0,0-1.52,2.5,25.3,25.3,0,0,1-1.6,3.32,89.13,89.13,0,0,0-4.62,10.89,9.08,9.08,0,0,0-.43,4.5c.24,2,.27,3.94.39,6,1.89,0,3.62,0,5.35,0q7-.24,13.92-.58c2.54-.12,5.08-.33,7.62-.45C67,249.61,68.35,249.66,69.91,249.66Z"/><path class="cls-11" d="M80.47,133.07,81,133a10.94,10.94,0,0,0,1.62,0c.19,0,.35-.35.52-.54l1.28-.47c-2.81-.56-5.46-.49-7.95-1.55.2-.88.81-.9,1.39-1a37.23,37.23,0,0,1,7.3-.61.8.8,0,0,0,.63-.33c-.94-.49-1.86-1-2.8-1.46-.58-.29-1.18-.53-1.75-.82s-.8-.73-.25-1.49c2.81.16,5.43,1.65,8.58,2.07-2-1.82-4.41-2.7-5.91-5a8.83,8.83,0,0,1,4.5.21,6.79,6.79,0,0,0,1.08.47,8.52,8.52,0,0,0,1.57-.09c-1.22-1.51-2.77-2.33-3.45-3.88a1.2,1.2,0,0,1,1.73-.45c.93.47,1.84,1,2.76,1.44a6.17,6.17,0,0,0,1.4.64c-.81-1.82-2.57-2.92-3.48-5.1,1.66.57,3,1,4.32,1.5.92.37,1.72.65,2.56-.19.45-.46,1-.25,1.51.09.67.51,1.3,1.07,2,1.66a5.18,5.18,0,0,1,1.14-.6,4,4,0,0,1,1.09,0c1,1.27,1.94,2.41,2.79,3.63a8.56,8.56,0,0,1,.79,1.89c.31.78.57,1.57.89,2.35a16,16,0,0,1,1.39,8.28,6.21,6.21,0,0,1-.79,2.23c-.44.76-1,1.55-2,1.43l-1.1,1.62-1.49.33c-.93,2.32-2,4.7-2.84,7.17s-1.4,5.27-2,7.92c-.43,1.78-.73,3.6-1.23,5.37a10.31,10.31,0,0,0,.26,4.88,18.73,18.73,0,0,0,5.25,9.63c1.75,1.78,3.87,3.2,5.74,4.89a20.63,20.63,0,0,1,4.29,5.06,7,7,0,0,1,.4,1.15c-.29.36-.58.69-.83,1a2.23,2.23,0,0,0-.5.88,40,40,0,0,1-2.25,6.56c-.71,1.95-1.34,3.94-1.95,5.92a1.59,1.59,0,0,0,0,1.18c.82,1.36.31,3,.8,4.36,0,.07,0,.19-.07.28-1.13.4-1.56.37-1.93-.57a5.34,5.34,0,0,0-2.5-2.61c-.75-.46-1.44-1-2.21-1.45a17.3,17.3,0,0,0-2.74-1.24,6.82,6.82,0,0,1-3.76-3.17,56.22,56.22,0,0,1-4.1-7.35c-.5-1.18-.85-2.42-1.31-3.61-.71-1.84-1.46-3.67-2.18-5.48l-.87-.16a15.34,15.34,0,0,1-.73-2.13,25,25,0,0,1-.64-8c.21-1.71.64-3.4,1-5.1.24-1.21.53-2.42.71-3.65a16.25,16.25,0,0,1,1.68-4.74A16.8,16.8,0,0,0,89.68,153a8.16,8.16,0,0,1,2.67-4.35c1.42-1.26,1.74-3,2.1-4.65a8.08,8.08,0,0,0-.59-3.65c-.43-1.47-1.06-2.88-1.57-4.23l-1.61-.75c-.32-.18-.67-.56-1-.52a10.05,10.05,0,0,1-3,0,15.27,15.27,0,0,0-3.28.23,13,13,0,0,1-1.65,0c-.88-.07-1.76-.21-2.64-.26s-1.6,0-2.4,0a4,4,0,0,1-1-.4c1.59-.31,2.84-.53,4.07-.81C80.05,133.54,80.25,133.25,80.47,133.07Z"/><path class="cls-12" d="M197,161.41a7.62,7.62,0,0,1-.27-1c-.15-3.81-1.57-7.24-3.14-10.62a4.74,4.74,0,0,0-1.09-1.36,2.39,2.39,0,0,1-.83-1.84v-3.09l-.92-1.13.13-1.66-1.1-.72a10.87,10.87,0,0,1,.45-1.87c1.52-3.38,3.05-6.75,4.65-10.09,1.21-2.53,2.57-5,3.79-7.52.63-1.29,1.09-2.65,1.62-4l.45-1.09a7,7,0,0,0,.58-4c-.47-3-.62-6-.89-8.94-.07-.84-.13-1.71.78-2.22-1-1.21-2.5-1.86-3-3.41.3-.78.84-1,1.52-.54a12.57,12.57,0,0,1,2.39,2,10.52,10.52,0,0,0,2.12,2,4,4,0,0,1,2.22,3.12c0,.63.91,1.18,1.5,1.88.21,1.86.43,3.94.69,6,.12.88.4,1.74.46,2.63s-.09,1.76-.12,2.64c-.08,2-1.77,3.51-1.94,5.52a2.07,2.07,0,0,0,.16,1.53,1.9,1.9,0,0,1-.22,1.63,5,5,0,0,0-.83,2.16c-.21,1.52-.51,3-.85,4.53-.24,1.06-.56,2.1-.9,3.13a19.81,19.81,0,0,0-.55,5.79c0,1.14-.18,2.28-.29,3.42-.08.79-.18,1.58-.27,2.37-.13,1.08-.33,2.16-.38,3.25a11.29,11.29,0,0,0,.13,2.79,8.55,8.55,0,0,1,.06,3.11c-.86,0-.87-.55-1-1.11a10.45,10.45,0,0,0-1.39-4.17c-.19,3.07-.36,6-.55,9.05l-.9-.19c-.35-1.77-.68-3.47-1-5.17l-.27,0a2.78,2.78,0,0,0-.18.67c0,1-.07,2.1,0,3.15A6.94,6.94,0,0,1,197,161.41Z"/><path class="cls-13" d="M147.77,163.32c1.09-3.46,1.58-6.73,2.93-9.75a43.15,43.15,0,0,1,.7,10.27,35.59,35.59,0,0,0,2.22-7.28c.56-2.55.26-5.14.66-7.75,1.11.84.7,2.06,1.14,2.95s1.26,1.66,1.08,2.82a1.78,1.78,0,0,0,0,.49l1,.93c1,7.91-2.87,13.24-9.4,17.09-.57.13-1.15.23-1.72.38s-1,.34-1.69.58l-1.68,1.54h-1.47a7.12,7.12,0,0,1-1.06,1c-.51.31-.9.94-1.71.62-.24-.1-.72.23-1,.48-.72.67-1.36,1.43-2.09,2.09s-1.45,1.15-2.19,1.72c-.12.09-.29.11-.39.22a37.71,37.71,0,0,0-4.1,4.4,37.78,37.78,0,0,0-2.65,5.42c-.16.34-.31.7-.5,1-.44.79-1,.86-1.7.29a7.14,7.14,0,0,1,.56-4.38c.83-2.06,1.89-4,2.84-6,.52-1.11,1-2.26,1.55-3.34s1.44-2.35,2.13-3.54a52.1,52.1,0,0,1,3-5.08,30.15,30.15,0,0,0,2.76-5c1.09-2.2,2.31-4.33,3.43-6.51.4-.79.64-1.65,1-2.46.7-1.68,1.4-3.35,2.13-5a2.46,2.46,0,0,1,.77-.93c.13,3.78-.25,7.54.23,11.27l.32,0c.27-1.47.58-2.94.8-4.41s.15-2.93,1.08-4.12l.32.06C147.29,156.59,147.52,159.78,147.77,163.32Z"/><path class="cls-14" d="M105.62,226.33a4.37,4.37,0,0,1-1.12-.8c-2.56-3.19-5.41-6.16-7.67-9.59a42.65,42.65,0,0,1-4.27-7.06c-.41-1-.85-2-1.28-3,.36-.3.66-.24,1,.1,1.78,1.8,3.51,3.65,5.39,5.34s3.9,3.16,5.86,4.72c.13.11.34.11.77.24-1.36-2.85-3.71-4.84-4.77-8a4.45,4.45,0,0,1,1.15.38c1,.78,2,1.58,3,2.4,1.45,1.2,2.84,2.45,4.31,3.61,1,.79,2.06,1.48,3.09,2.22l.32-.19-.75-2.68a5.44,5.44,0,0,1,1.22.33c1.15.75,2.26,1.56,3.43,2.28.26.16.68,0,1.16.07-.8-2-1.41-3.81-2.23-5.52a17.68,17.68,0,0,1-1.5-5.55,22.45,22.45,0,0,1,1.15-10,1.56,1.56,0,0,1,.74-.84,7.31,7.31,0,0,1,0,1.48,10.84,10.84,0,0,0,.74,6.55c.76,1.87,1.37,3.8,2.09,5.69a2.53,2.53,0,0,0,.94,1.09c-.22-3.07-1.58-6-.52-9.2a7.28,7.28,0,0,1,.51,1.06c1.08,4,3.33,7.37,5.51,10.78a15.28,15.28,0,0,0,2.61,2.79,5.16,5.16,0,0,1,1.88,3.23c-.95.41-1.81.87-2.72,1.17-1.83.62-3.7,1.13-5.53,1.74-2.39.81-4.78,1.65-7.16,2.5Z"/><path class="cls-15" d="M165.31,201.15c1.08-2.46,2.79-4.43,4.22-6.55,0,1.56.1,3.14,0,4.71-.12,1.42-.56,2.82-.72,4.24a31,31,0,0,0-.11,5.11c1.05-2.49,1.41-5.18,2.36-7.67l.38,0c0,.71.07,1.42,0,2.13a30.84,30.84,0,0,0,.92,8c.61,2.81,1.34,5.6,2.12,8.37.38,1.32,1,2.59,1.47,3.88a9.41,9.41,0,0,1,.84,4.68c-2-1.53-3.85-3.09-5.82-4.55s-3.88-2.71-5.82-4.08c-.72-.51-1.41-1.07-2.11-1.61a9.86,9.86,0,0,0-1.62-1.29c-1.71-.84-2.29-2.34-2.58-4.06a17.43,17.43,0,0,1-.53-3.39,38.36,38.36,0,0,1,.74-5.74c.42-2,1-4,1.6-6,.9-3,1.75-6,3.68-8.54.62-.82,1.1-1.75,1.68-2.6a3.31,3.31,0,0,1,1.29-1.1,11.45,11.45,0,0,1-.14,1.56c-.52,2.38-1.08,4.74-1.63,7.11a.8.8,0,0,0,0,.15q-.16,3.42-.32,6.84A1.17,1.17,0,0,0,165.31,201.15Z"/><path class="cls-14" d="M57.69,166.72c1.26,0,1.66.33,1.23,1.37a25.45,25.45,0,0,0-1.12,5.22,34.74,34.74,0,0,0-.41,8.07,33.75,33.75,0,0,0,.86,4.83,21,21,0,0,0,.57,2.17,67.9,67.9,0,0,0,6.25,14.05,18.88,18.88,0,0,0,2.72,4,.93.93,0,0,1,.26.37c.45,1.9,2,3,3.11,4.45.47.6,1.17,1.09,1.14,2.12H62.85a17.65,17.65,0,0,1-2.4-4.39c-1.43-3.42-2.82-6.84-4.07-10.32A53.11,53.11,0,0,1,55,193c-.25-1.06-.42-2.14-.7-3.2a25.39,25.39,0,0,1-.68-8.32c.17-2.32,0-4.69.81-7,.62-1.81,1.14-3.66,1.83-5.45A15.75,15.75,0,0,1,57.69,166.72Z"/><path class="cls-16" d="M117.31,159.69a2.5,2.5,0,0,1-2.42-1.31c-.74-1.28-1.57-2.51-2.41-3.73-.49-.72-1.07-1.39-1.6-2.09a15.1,15.1,0,0,1-1.55-2.14c-1.2-2.41-2.31-4.87-3.47-7.31a1.26,1.26,0,0,1,.16-1.6c1.06,1,1.06,1,1.82,1.22l2.21,3a2.45,2.45,0,0,0,0-2.17,5,5,0,0,1-.36-3.18,4.73,4.73,0,0,0-.28-1.89c-.11-.52-.29-1-.44-1.53l.78-.81c.85-.08,1.49-.17,2.14-.19.87,0,1.35.3,1.23,1.1a7,7,0,0,0,.73,3.57c1.34,3.73,2.68,7.46,4.09,11.16.64,1.7,1.48,3.33,2.14,5a30.45,30.45,0,0,1,.89,3c.38,1.38.74,2.77,1.11,4.16-2.55.67-2.6.65-3.6-1.64C118.09,161.51,117.73,160.66,117.31,159.69Z"/><path class="cls-11" d="M75,161.89h-.11l-.09-.07a1.21,1.21,0,0,0-1.55-1.14h0l-.26-.35a.26.26,0,0,1,0-.28v-.95a.24.24,0,0,1,0-.27,1.51,1.51,0,0,0,.07-2.4l-.08-.31v-5.67l0,0c.19-.17.51-.33.54-.52a17,17,0,0,0,0-1.89l0-.31.57-.84.6,0c0,.42.18.62.61.59h0l.12,1.15.35,0,.13-1.09h0c.75,0,.58-.55.56-1a.15.15,0,0,1,0-.2c.77,0,.55-.58.54-1a.12.12,0,0,1,.05-.18c.8,0,.56-.6.54-1a.13.13,0,0,1,0-.16c.72,0,.6-.49.57-.94v0a2.15,2.15,0,0,0,1.26-2.06v0c.43,0,.61-.21.56-.63h0c.46,0,.66-.17.6-.62h0c.46,0,.66-.15.62-.61h0q.65.08.63-.57h0a5.15,5.15,0,0,0,1.08-.67c.58-.6,1.08-1.28,1.4-1.66h4.82l-.71,1.73-.1.06-.11,0c-.55-.06-1.08-.09-1.27.61h-.85l-.06.88h0c-.46,0-.65.18-.58.64l0,0c-.66.15-.67.66-.65,1.18h0c-.64.24-.64.75-.57,1.3a.14.14,0,0,1,0,.2c-.79,0-.55.61-.53,1.06a.1.1,0,0,1,0,.14c-.42,0-.64.18-.62.62s0,1,0,1.47h0a4.26,4.26,0,0,0-.58.78,8.75,8.75,0,0,0-.44,1.34c-.27,1.09-.52,2.19-.78,3.28h0c-.88.38-.52,1.17-.59,1.81l0,.29c-.7,0-.56.51-.54.94v0c-1,.31-.53,1.13-.65,1.76v0a3.75,3.75,0,0,0-1.16,2.43h0c-.64.2-.65.7-.6,1.24a.23.23,0,0,1,0,.25c-.9.08-.5.76-.57,1.23h0C76.31,160.94,75.76,161.83,75,161.89Z"/><path class="cls-17" d="M166.73,28.23a6.41,6.41,0,0,1-.53,1.31,45.15,45.15,0,0,0-4.68,8.22c-.74,1.73-1.42,3.49-2.12,5.23-.9,2.22-.59,4.52-.39,6.8.14,1.68.4,3.35.59,4.89-1.22,1-1.23,1-2.22.4a11,11,0,0,1-4.74-12.28,15.15,15.15,0,0,1,5.2-7.74c1.17-1,2.26-2.08,3.38-3.12s2.26-2.19,3.45-3.2C165.15,28.34,165.6,27.58,166.73,28.23Z"/><path class="cls-18" d="M96.09,111.54l2.68-.49a16.49,16.49,0,0,1-1-2.27c-.08-.24.36-.64.48-.84,1.21-.43,2,.18,2.78.69a12.17,12.17,0,0,1,1.29,1,5.25,5.25,0,0,0,4.26,1.22l-.32,2.11,2,1.35.11,1.06c2.34,2.24,3.48,5.12,4.3,8.22a21.23,21.23,0,0,1,.49,5.2c0,1.77-.2,2-2.08,1.74-1.21-1.41-1.57-3.23-2-5-.78-3-1.49-6-3.77-8.22a3.52,3.52,0,0,0-2-1.15,10.63,10.63,0,0,1-2.56-.77,9.73,9.73,0,0,0-3.36-1.12,2.48,2.48,0,0,1-.71-.24C95,113.4,94.87,112.75,96.09,111.54Z"/><path class="cls-19" d="M222.13,175.31a6.66,6.66,0,0,0,.42,1.42,17.28,17.28,0,0,1,2.39,7,8.32,8.32,0,0,0,.52,1.68,28.18,28.18,0,0,1-.39,17.55c-.31.71-.13,1.63-1.12,2.16l-6.72.28a2.85,2.85,0,0,1,.57-2.49,18.53,18.53,0,0,0,3.52-7.09,8,8,0,0,1,.35-1,12.85,12.85,0,0,0,.93-3.58,42.77,42.77,0,0,0,.55-7.74,16.59,16.59,0,0,0-.46-2.61c-.34-1.49-.78-3-1.09-4.46C221.51,176,221.4,175.36,222.13,175.31Z"/><path class="cls-20" d="M197.21,204.32c-.91,2.73-2.87,4.5-3.51,6.93a30.69,30.69,0,0,1,8.84-5.86,2.49,2.49,0,0,1-1.12,1.62,32.44,32.44,0,0,0-5.44,6.63c-.42.62-.61,1.43-1.48,1.77-.35.14-.52.79-.72,1.23-.69,1.52-1.36,3.06-2.09,4.69l-8.06-.85a3.29,3.29,0,0,1,.76-2.29c2-3.37,4.79-6.06,7.46-8.85,1.4-1.47,2.84-2.9,4.29-4.33A7.17,7.17,0,0,1,197.21,204.32Z"/><path class="cls-17" d="M88.58,137.83l.71-1.73H84.47c-.32.38-.82,1.06-1.4,1.66a5.15,5.15,0,0,1-1.08.67l2.4-2.7-4.93-.31c-1.58-.12-3.23.15-5-.76a5.62,5.62,0,0,1,1.08-.56c1.63-.36,3.28-.69,4.92-1-.22.18-.42.47-.67.53-1.23.28-2.48.5-4.07.81a4,4,0,0,0,1,.4c.8,0,1.6,0,2.4,0s1.76.19,2.64.26a13,13,0,0,0,1.65,0,15.27,15.27,0,0,1,3.28-.23,10.05,10.05,0,0,0,3,0c.29,0,.64.34,1,.52l-.94.16v2.13Z"/><path class="cls-17" d="M81.37,151.33c.26-1.09.51-2.19.78-3.28a8.75,8.75,0,0,1,.44-1.34,4.26,4.26,0,0,1,.58-.78C82.87,147.83,82.61,149.74,81.37,151.33Z"/><path class="cls-17" d="M73,150.47v5.67c-.07-.38-.17-.75-.21-1.12-.1-1-.21-2.05-.24-3.08C72.5,151.43,72.09,150.73,73,150.47Z"/><path class="cls-17" d="M75,161.89c.79-.06,1.34-.95,2.23-.62l-.89,2.09A1.78,1.78,0,0,0,75,161.89Z"/><path class="cls-21" d="M177.75,109.63c-1.38-.24-2.06-1.13-2.07-2.73.08,0,.22.08.24.14A6.36,6.36,0,0,0,177.75,109.63Z"/><path class="cls-17" d="M73.05,156.45a1.51,1.51,0,0,1-.07,2.4Z"/><path class="cls-17" d="M79.59,140.86a2.15,2.15,0,0,1-1.26,2.06A3.09,3.09,0,0,1,79.59,140.86Z"/><path class="cls-17" d="M83.18,132.45c-.17.19-.33.51-.52.54A10.94,10.94,0,0,1,81,133C81.63,132.33,82.43,132.5,83.18,132.45Z"/><path class="cls-17" d="M78.39,158.57a3.75,3.75,0,0,1,1.16-2.43A3.43,3.43,0,0,1,78.39,158.57Z"/><path class="cls-17" d="M73.57,148a17,17,0,0,1,0,1.89c0,.19-.35.35-.54.52Z"/><path class="cls-17" d="M73.22,160.69a1.21,1.21,0,0,1,1.55,1.14Z"/><path class="cls-17" d="M83.17,145.92c0-.49,0-1,0-1.47s.2-.62.62-.62Z"/><path class="cls-17" d="M80.78,153.15c.07-.64-.29-1.43.59-1.81C81.34,152,81.4,152.68,80.78,153.15Z"/><path class="cls-17" d="M79.56,156.12c.12-.63-.31-1.45.65-1.76Z"/><path class="cls-17" d="M76,147.45l-.13,1.09-.35,0-.12-1.15Z"/><path class="cls-17" d="M77.19,161.28c.07-.47-.33-1.15.57-1.23C77.71,160.52,77.89,161.1,77.19,161.28Z"/><path class="cls-17" d="M86.19,139.34l.06-.88h.87Z"/><path class="cls-17" d="M84.41,142.43c-.07-.55-.07-1.06.57-1.3C85,141.64,85,142.17,84.41,142.43Z"/><path class="cls-17" d="M87.1,138.47c.19-.7.72-.67,1.27-.61Z"/><path class="cls-17" d="M77.72,144c0,.45.26,1-.54,1Z"/><path class="cls-17" d="M83.83,143.69c0-.45-.26-1,.53-1.06Z"/><path class="cls-17" d="M77.79,159.8c-.05-.54,0-1,.6-1.24Z"/><path class="cls-17" d="M85,141.13c0-.52,0-1,.65-1.18Z"/><path class="cls-17" d="M78.34,142.89c0,.45.15,1-.57.94Z"/><path class="cls-17" d="M77.13,145.22c0,.44.23,1-.54,1Z"/><path class="cls-17" d="M76.54,146.44c0,.45.19,1-.56,1Z"/><path class="cls-17" d="M74.17,146.89l-.57.84C73.6,147.32,73.57,146.89,74.17,146.89Z"/><path class="cls-17" d="M80.2,154.38c0-.43-.16-.92.54-.94Z"/><path class="cls-17" d="M82,138.44q0,.65-.63.57Z"/><path class="cls-17" d="M81.36,139c0,.46-.16.66-.62.61Z"/><path class="cls-17" d="M75.38,147.43c-.43,0-.63-.17-.61-.59C75.22,146.78,75.41,147,75.38,147.43Z"/><path class="cls-17" d="M80.16,140.21c0,.42-.13.63-.56.63Z"/><path class="cls-17" d="M80.75,139.6c.06.45-.14.66-.6.62Z"/><path class="cls-17" d="M85.61,140c-.07-.46.12-.67.58-.64Z"/><path class="cls-17" d="M73,159.12v0Z"/><path class="cls-17" d="M73,160.35l.26.35Z"/><path class="cls-22" d="M174.75,43.23c.1.72.7,1.06,1.16,1.47a30.75,30.75,0,0,0,4.75,3.79,55.53,55.53,0,0,1,6.4,4.41q3.39,2.7,6.7,5.51a34.73,34.73,0,0,1,5.05,5.52,5.37,5.37,0,0,1,.64,1c1.22,2.67,2.71,5.22,3.51,8.07a24.8,24.8,0,0,1,.72,7.43,44.28,44.28,0,0,1-2.3,13.65c8.19,7.6,11.44,16.72,8.2,27.7.7.29.89-.2,1.17-.52a26.94,26.94,0,0,1,4.45-4.22,6,6,0,0,1,3.28-1.37,52.36,52.36,0,0,1,.84,12.63,86.06,86.06,0,0,1-1.62,11.55c-.69,3.38-2.33,6.36-3.67,9.46a34.84,34.84,0,0,1-1.71,3.33,2.56,2.56,0,0,0-.16,2.3,20.85,20.85,0,0,0,1.35,2.82c1.45,2.56,2.86,5.14,4.3,7.7a46.06,46.06,0,0,1,4,10.8,43.27,43.27,0,0,1,1.35,12.92c-.21,5.85-2.48,10.89-5.8,15.56a4.58,4.58,0,0,1-.67.64h-5.13a26.55,26.55,0,0,0,2.52-3.47c1.82-3.21,3.7-6.39,5.46-9.63a8.85,8.85,0,0,0,1-3.43,31.31,31.31,0,0,0-1.42-12.26c-1.74-5.65-4.81-10.52-8.23-15.24a47.87,47.87,0,0,1-4.9-7.89,29.4,29.4,0,0,1-1.85-19.35c1-4.64,2.23-9.23,3.27-13.86a22.62,22.62,0,0,0-4-20.44,6.55,6.55,0,0,0,.4,2.54,25,25,0,0,1-3.37,19.42c-1.93,3-3.9,5.92-5.61,9.05a25.52,25.52,0,0,0-2.92,10.29A32.25,32.25,0,0,0,193,153a7.2,7.2,0,0,1-1.62,7.24,5.38,5.38,0,0,1-2.74,1.73,42,42,0,0,0-4.55,1.9,12.46,12.46,0,0,1-1.56.53,9.46,9.46,0,0,0-7.41,7.76c-.29,1.31-.42,2.66-.62,4a8.38,8.38,0,0,0,.4,3.41,26.43,26.43,0,0,0,1.47,4.4,39.26,39.26,0,0,1,2.57,7.81,19.28,19.28,0,0,1-.51,10.64c-.46,1.37-1,2.73-1.43,4.1a2.29,2.29,0,0,1-1.43,1.53,3.91,3.91,0,0,1-.36-2.4,16.7,16.7,0,0,0-1-8.25A54.68,54.68,0,0,1,171,184.17a63.46,63.46,0,0,1-.21-11.69,31.49,31.49,0,0,1,1.49-7.91,3.67,3.67,0,0,0,.31-2.18,11,11,0,0,0-1.7,2.33,35.84,35.84,0,0,0-4.72,15.64c-.08,1.12-.64,2.23-.13,3.31a2.65,2.65,0,0,1-1.29,1.12,8.89,8.89,0,0,0-3.42,2.84c-1.84,2.3-3.66,4.63-5.5,6.93a20,20,0,0,0-3.24,6.06,3.91,3.91,0,0,1-1.67,2.47,3.87,3.87,0,0,1-.62-3.12c1.06-4.21,2.34-8.35,4.84-12a7.27,7.27,0,0,0,.77-1.46,18.72,18.72,0,0,1,3.55-5.51,69.69,69.69,0,0,0,4.37-6.28,11.33,11.33,0,0,0,1.42-4.23,29.91,29.91,0,0,0-.23-11.62c-.64-3.64-1.1-7.31-.22-11a14.94,14.94,0,0,1,2.74-6.25c.85-1,1.6-2.17,2.4-3.26a14.94,14.94,0,0,1,2.41-2.2,1.41,1.41,0,0,0-1.68.21c-2.86,2.1-5.71,4.22-7.69,7.25a14.6,14.6,0,0,0-2.53,9.37,26.83,26.83,0,0,1-.33,9.11,24.53,24.53,0,0,1-8.47,13,66.92,66.92,0,0,1-9.66,6.59,53.13,53.13,0,0,0-10.4,7.07,19.42,19.42,0,0,0-5.7,9,11.58,11.58,0,0,0-.5,3.69c.13,2.71.53,5.38.85,8.06a35,35,0,0,1,.13,3.66,6.62,6.62,0,0,1-2.57-2.73c-4.66-8.27-4.67-16.87-1.69-25.63a41.6,41.6,0,0,1,6-11.23c1-1.37,2.34-2.45,3.32-3.86a27.17,27.17,0,0,0,3.15-5.42c.15-.39.77-.57.53-1.13-.37-.23-.6,0-.7.29a6.45,6.45,0,0,1-1.88,2.29c-1.27,1.08-2.15,2.5-3.3,3.69-2.63,2.74-5.5,5.23-8.32,7.76a11.79,11.79,0,0,0-1.69,1.91,8.58,8.58,0,0,1-.72,1c-3,3.13-4.79,6.94-6.73,10.73-2.17,4.25-2.38,8.71-2.28,13.27a33.63,33.63,0,0,0,.43,5.5c-.54.2-.83-.13-1.14-.34a72.63,72.63,0,0,1-7.91-6.41,70,70,0,0,1-8.14-8.19c-2.47-3.14-4.83-6.35-6.19-10.19a29.23,29.23,0,0,1-1.19-5.69c-.48-3.46-1.1-6.93-.6-10.45.29-2,.33-4.08,1.16-6a5.4,5.4,0,0,1,.52-1,1.69,1.69,0,0,1,.08,1.14c-.42,2-.27,4-.51,6-.39,3.19.41,6.26,1.26,9.3a49.93,49.93,0,0,0,1.8,5.38,61.31,61.31,0,0,0,4.31,8.71c.25.42.6.41.92.57.21-.39,0-.64-.14-1-1.74-4.37-3.78-8.62-4.81-13.25a4.1,4.1,0,0,1,0-2c1.85,3.13,3.41,6.43,5.23,9.58a59.57,59.57,0,0,0,6.45,8.86c.37-.71-.08-1-.32-1.35A49.9,49.9,0,0,1,94.52,181a1.35,1.35,0,0,1,0-1.22c3.18,4.19,6.09,8.48,9.89,12.2a2.39,2.39,0,0,0-.5-1.85c-1-1.73-2-3.42-3-5.15a4.55,4.55,0,0,1-.83-2.74c2.92,2.32,5.4,4.89,8.13,7.19.43-.47.13-.76-.1-1.08a41.33,41.33,0,0,1-2.86-4.55,4.38,4.38,0,0,1-.68-1.79c2,1.22,3.33,3.25,5.57,4.21.17-.87-.38-1.25-.69-1.7a62.37,62.37,0,0,0-5.85-6.83A27.37,27.37,0,0,1,96,160.83a22.81,22.81,0,0,1,1-10.05,76.25,76.25,0,0,1,7.58-15.07c2.58-4,2.65-8.16.91-12.45a17.19,17.19,0,0,0-.92-1.88,4.93,4.93,0,0,0-3.31-2.53,28.66,28.66,0,0,0-6.51-.76,21.51,21.51,0,0,1-9.26-2.1c-1.93-1-4.46-4-3.29-7.14A6.54,6.54,0,0,1,85,105a19.6,19.6,0,0,0,2.79-2c.69-.56,1.3-1.21,1.93-1.82-.21-.36-.47-.24-.68-.2a31.36,31.36,0,0,0-14.29,6.5,30.88,30.88,0,0,0-9.17,11.32,11.23,11.23,0,0,0,.85,11.52,7.32,7.32,0,0,0,3.22,2.8,20,20,0,0,0,5.41,1.62,5.21,5.21,0,0,0,2-.3,35.11,35.11,0,0,1,12.63-.77c3.07.3,6.11,3.35,5.85,6-.15,1.58-.55,3.14-.86,4.71a12,12,0,0,1-.37,1.3,3.68,3.68,0,0,1-1.48,2,28.37,28.37,0,0,0-6.14,5.44c-1.22,1.5-2.66,2.83-4,4.23a28.3,28.3,0,0,0-5.61,9,38.82,38.82,0,0,0-2.42,10.16,39.49,39.49,0,0,0,.72,11.17,7,7,0,0,1,.19,2.08c-.12,1,.44,1.94.3,3-.11,0-.25,0-.27-.07-1.18-2.9-3-5.53-3.84-8.55a38.93,38.93,0,0,1-1.47-8.09c-.1-1.74-.32-3.48-.27-5.24.1-2.9.41-5.78.58-8.67.27-4.42.76-8.9-.75-13.23a24.14,24.14,0,0,0-6.46-9.43c-.24-.24-.26-.22-1.11-.2a18.75,18.75,0,0,1,1.87,3.75,20,20,0,0,1,.89,4.39,32.13,32.13,0,0,1,0,7.9,59,59,0,0,1-1.43,6.43,71.22,71.22,0,0,0-2.52,12.75c-.47,5.21.33,10.28,1.11,15.34a23.89,23.89,0,0,0,4.77,10.89,80.09,80.09,0,0,0,6.35,6.94C74.76,209,76,210.51,77.2,212a1,1,0,0,1,.17,1.05c-.09.27-.48.41-1,.47a11.7,11.7,0,0,1-3.87-.16,4.78,4.78,0,0,1-2.88-1.69,55.19,55.19,0,0,1-4.75-6.73c-.59-1-1.15-2-1.82-2.93A64.55,64.55,0,0,1,59,194.55c-1-1.82-1.24-4-1.8-6a26.66,26.66,0,0,1-.76-4.88c-.14-1.67-.57-3.33-.69-5a8.76,8.76,0,0,1,.23-4.13,4.8,4.8,0,0,0,.19-1.33,34.28,34.28,0,0,1,2.25-9.75,70.05,70.05,0,0,0,3-10.94c1.37-6-.32-11.14-4.35-15.64a32.76,32.76,0,0,0-3.26-3.3,1.08,1.08,0,0,1-.57-1c1.71-.25,3.37.35,5.05.52a26.27,26.27,0,0,1,4.81.94c.28-.1.31-.19.24-.3-3.23-5-3.25-10.4-1.25-15.81,2.61-7.07,7.49-12.32,13.8-16.29,3.56-2.24,6.24-3.26,11.86-4.74a12.61,12.61,0,0,0-2-3.44,15.27,15.27,0,0,0-4.17-3.84,44.48,44.48,0,0,1-5.86-4.17,19.89,19.89,0,0,1-6-7.59,28.3,28.3,0,0,1-1.62-6.66c-.88-5.82.11-11.46,1.76-17,.5-1.68,1.09-3.32,1.75-5.32C77.47,60.54,85.83,70,94.65,79.3a22,22,0,0,0-1.18-5.38,112.15,112.15,0,0,0-4.76-12.41c-.92-1.83-1.85-3.66-2.94-5.4a15.11,15.11,0,0,1-2-5.28,84.52,84.52,0,0,1-1-9.39c-.35-4.3,1.12-7.94,3.52-11.34a7.13,7.13,0,0,0,1.57-2.83c.64,1.8.34,3.51.78,5.12a12,12,0,0,0,2.34,4.74c2.29,2.74,5,5,7.53,7.51a24.87,24.87,0,0,1,7,13c0,.13,0,.31.23.33,1.7-1.87,3-4,4.57-6a36.59,36.59,0,0,1,12.09-10.13c2.78-1.45,5.59-2.87,8.42-4.23a26.19,26.19,0,0,0,6.7-4.72c2.9-2.75,3.52-6,2.16-9.73a21.62,21.62,0,0,0-4.88-7.64c-1.21-1.26-2.43-2.52-3.64-3.79a1.12,1.12,0,0,1-.43-.83,11,11,0,0,1,3.8.34,43,43,0,0,1,11.08,4.46,14,14,0,0,1,6,6.72,12,12,0,0,1-.69,10.83,59.14,59.14,0,0,1-5.36,7.6c-1.06,1.33-2.16,2.64-3.34,3.86A24.41,24.41,0,0,0,136,57.44a24.34,24.34,0,0,0-.22,8.08c.57-.31.53-1,.71-1.45a17.7,17.7,0,0,1,4.87-7.28,13.33,13.33,0,0,1,11.41-3.14.29.29,0,0,0-.07-.19c-2.86-3.74-3-7.82-1.46-12.08a21.49,21.49,0,0,1,6.43-9.07,34.57,34.57,0,0,1,8.2-5.19,9.5,9.5,0,0,1,2.86-.83.83.83,0,0,1,1,.4,1.25,1.25,0,0,1-.46,1.1,29,29,0,0,0-6.49,14.38c-.46,2.75-.86,5.52-1.33,8.28a20.63,20.63,0,0,0-.1,5.38c.09,1,.24,2,.23,3,4.51,2.86,11.95,2.75,15-3.13-.06-.48-.48-.73-.76-1.07a54.54,54.54,0,0,1-7.11-10.36,20.33,20.33,0,0,1-1.88-5.82A19.79,19.79,0,0,1,167,33.2c0-.2.24-.39.42-.68A37.53,37.53,0,0,0,173,41.59c.51.64.94,1.39,1.8,1.67Zm6.61,19.56a1.93,1.93,0,0,1-.33,1.42c-.69,1.55-1.2,3.16-1.79,4.75-2,5.26-1.21,10.28,1.36,15.11a15.48,15.48,0,0,0,2.24,3.55,47.46,47.46,0,0,0,1.08-5.41,32.67,32.67,0,0,0,.14-12.92c-.57-2.52-1.08-5.06-2.66-7.21a31,31,0,0,0-3.19-4.8c-.21.58-.36,1-.52,1.42a11,11,0,0,1-7.82,7.18A19.55,19.55,0,0,1,162,66a23.15,23.15,0,0,0-4.32-.4c-3.7.16-5.45,2.19-5.1,5.86a10.94,10.94,0,0,0,2.58,5.81,60.2,60.2,0,0,0,9.21,9.4,6.3,6.3,0,0,0,1.71,1.27c0-.56,0-1,0-1.45s0-1,0-1.5a29.5,29.5,0,0,1,12.76-21.27A4.07,4.07,0,0,1,181.36,62.79ZM133.68,12.6c.09.22.11.35.18.4.53.37,1.06.74,1.6,1.09a28.8,28.8,0,0,1,8.07,8.35,7.57,7.57,0,0,1,1.12,4.73,13.44,13.44,0,0,1-3.13,7.65,26.55,26.55,0,0,1-6.18,5.44,125,125,0,0,0-11.89,8.88c-7.87,6.49-13.44,14.45-15.79,24.47-1,4.34-1.75,8.74-1,13.23a15.19,15.19,0,0,0,3.61,8.4,56.46,56.46,0,0,0,4.91,4.62c1.77,1.49,3.71,2.71,5.58,4a15.15,15.15,0,0,1,5.84,7.6,78.72,78.72,0,0,1,2.55,8.91c.91,4.4,1.37,8.88,2.39,13.27a7.44,7.44,0,0,1,0,3.72c-.35,1.23-1.35,1.61-2.22.7a24.21,24.21,0,0,0-4-3.16,7.09,7.09,0,0,1-1.21-1.12,18.92,18.92,0,0,1-4.29-8.31,14.56,14.56,0,0,1-.44-6.67,11.12,11.12,0,0,0,.34-4.08c-.4.07-.43.35-.52.57a44.57,44.57,0,0,0-3,17.77,12.28,12.28,0,0,0,2.85,7.89c1.28,1.54,2.54,3.09,3.8,4.64,2.63,3.22,4.46,6.78,4.57,11,.06,2.65-.08,5.27-1.49,7.69a27.69,27.69,0,0,1-4.29,5.17,11.26,11.26,0,0,1-3.85,2.53,10.11,10.11,0,0,0-4.46-7.52,9.1,9.1,0,0,1-2.65-2.63,5.53,5.53,0,0,0-1-1.11,31.07,31.07,0,0,1-7.54-9.94,3.42,3.42,0,0,0-.13,1.71,11.74,11.74,0,0,0,2.75,6.05c1.42,1.62,2.83,3.25,4.12,5,1.53,2,2.94,4.17,3,6.88a6.08,6.08,0,0,0,.31,1.31c.31,1.21.53,2.44.73,3.67.27,1.72.12,3.45.24,5.45,1-1.74,2.48-2.76,3.58-4.11a57,57,0,0,1,7.65-7.17,91.17,91.17,0,0,0,9.78-9.27,10.38,10.38,0,0,0,2.73-5.23,22.33,22.33,0,0,1,2-5.64,53.73,53.73,0,0,1,9.23-13.78c2-2.22,4-4.48,6-6.69a21.2,21.2,0,0,0,3.91-5.84,34.38,34.38,0,0,0,2.79-11.9,12,12,0,0,0-.54-4.89A43.14,43.14,0,0,0,157,98.89c-.17-.27-.35-.49,0-.82a4.73,4.73,0,0,1,1.7,1.74,110.81,110.81,0,0,1,5.76,9.66,24.62,24.62,0,0,1,3.18,12,39.58,39.58,0,0,1-1.91,11.65c-.36,1.23-.78,2.44-1.18,3.66.41.1.55-.13.74-.26a34.36,34.36,0,0,1,7.37-4,11.77,11.77,0,0,1,6.45-.83c.35.06.55.17.56.56-3.54,3-6.86,6.21-9.16,10.33a13.57,13.57,0,0,0-1.62,4.65,32.5,32.5,0,0,0-.39,4.63c0,3.8.8,7.51,1,11.42a3.31,3.31,0,0,0,1.18-1.29c.6-.86,1.17-1.74,1.83-2.56,1.78-2.22,3.53-4.47,5.28-6.72.29-.36.57-.69,1.14-.53.3.85-.33,1.43-.71,2a19.77,19.77,0,0,0-2.49,6.18c-.05.21-.08.51.4.54,2.66-3.87,3.51-8.61,5.6-12.76a.65.65,0,0,1,.48.92c-.17.68-.37,1.35-.52,2a46.87,46.87,0,0,1-2.31,8.46c-.11.24-.21.58.17.76.4,0,.56-.32.73-.64,1.95-3.59,3.58-7.26,3.26-11.49-.12-1.6-.23-3.19-.3-4.79,0-.46-.2-1,.39-1.33a.66.66,0,0,1,.64.56c1.19,5.23,1.87,10.47.5,15.77.38.24.58,0,.77-.23a6.57,6.57,0,0,0,.93-2c1.06-3.31.67-6.61-.11-9.91-.51-2.15-1.49-4.13-2.14-6.22a27,27,0,0,1-1.28-8.27,2.3,2.3,0,0,1,.91-2.12c.54,2.1.46,4.18,1.11,6.1s1.09,4,2.61,5.67c.06-.19.12-.28.11-.36,0-.3-.06-.6-.11-.89-1.64-9.8-.19-19.34,2.52-28.75,1-3.61,2.79-7,4-10.49a65.84,65.84,0,0,0,4.19-21.85A23.78,23.78,0,0,0,193.44,64a36.8,36.8,0,0,0-5.6-5.42,167,167,0,0,1-14.71-13.17c-.1-.1-.27-.07-.41.05a.77.77,0,0,0,.05.83,20.15,20.15,0,0,1,1.69,2.52,40.6,40.6,0,0,0,5.69,6.17c2.66,2.59,5.15,5.32,6.64,8.8a30.51,30.51,0,0,1,1.94,7.07,32.19,32.19,0,0,1,.2,11.33,73.82,73.82,0,0,1-3.17,11.09,8.47,8.47,0,0,0-.81,3,1.1,1.1,0,0,1-.84,1.18c-.88-.17-1.22-.93-1.46-1.68A18.26,18.26,0,0,0,179,89.59a37.32,37.32,0,0,1-2.38-3.09,11.91,11.91,0,0,1-1.94-9.14A31.69,31.69,0,0,1,176.58,71a.45.45,0,0,0-.15-.63,2.91,2.91,0,0,0-1.05,1,40.9,40.9,0,0,0-3.67,8.18A16.69,16.69,0,0,0,173.47,94c1.29,2.14,2.55,4.29,3.7,6.52a20.21,20.21,0,0,1,2,11.21c-.29,3.55-1.66,6.78-2.87,10a4.88,4.88,0,0,1-1.26,1.85c-.42.4-.87.67-1.44.24a4.15,4.15,0,0,1,.12-2.24c.23-.92.58-1.81.88-2.71a25,25,0,0,0,.77-13.16,3.3,3.3,0,0,0-1-2.25,23.48,23.48,0,0,1,.09,5.6c-.28,1.84-.7,3.64-2.27,4.9a4.12,4.12,0,0,1-.47-2.89c0-1.4.3-2.8.25-4.19a12.49,12.49,0,0,0-1-5.38c-.21,6.07-.7,8-2.45,9.34-.06-.57-.4-1.07-.28-1.63a28.64,28.64,0,0,0,.34-4.34,13.92,13.92,0,0,0-1.3-7.57,32.16,32.16,0,0,0-7.14-9c-2.1-1.93-3.85-4.2-6-6.08a2.46,2.46,0,0,1-.64-1c-.37-.93-1-1.76-1.39-2.65-1.49-3-2.53-6.07-2.13-9.5a6.74,6.74,0,0,1,5.18-5.69,10,10,0,0,1,5,.29,15.88,15.88,0,0,0,8.4.25,10.32,10.32,0,0,0,4.65-2.46,2.3,2.3,0,0,0-1.86.24,11.73,11.73,0,0,1-10.26-.11,30,30,0,0,1-3.74-2.23,34.2,34.2,0,0,0-3.56-2.22,6.71,6.71,0,0,0-7,.28,11.75,11.75,0,0,0-4,4A27.14,27.14,0,0,0,139.59,70c-.81,3.61-1.05,7.22.33,10.77a1.07,1.07,0,0,1,.06,1,5.56,5.56,0,0,1-.5.39,3.15,3.15,0,0,1-.52.21,2.56,2.56,0,0,1-.44-.22A24.35,24.35,0,0,1,131.47,72a19.68,19.68,0,0,1-1.08-11.19,31,31,0,0,1,6.55-14c2.59-3.18,5.05-6.46,7.54-9.72a30.34,30.34,0,0,0,4.07-6.8c2-4.94,1.27-8.26-2.71-11.46-.24-.19-.47-.37-.72-.54a31,31,0,0,1-2.85-1.93c-2.35-2-5.35-2.59-8.06-3.82C134.1,12.49,133.93,12.57,133.68,12.6ZM163,112.1c-.15,1.26-.42,2.47-.56,3.68a29.91,29.91,0,0,1-7.7,17c-1.57,1.74-3.11,3.52-4.65,5.3a36.61,36.61,0,0,0-8.16,15.29c-.83,3.43-1.75,6.85-2.66,10.27a14.08,14.08,0,0,1-.66,1.81c-1,2.32-2.31,4.51-3.53,6.73-.13.23-.44.48.11.82,1.49-1.52,2.19-3.63,3.83-5.14-.93,2.76-1.52,5.58-2.23,8.41,3-2.6,4.79-6.15,7.5-9.22.36,2.35-.66,4.24-.75,6.29a2.41,2.41,0,0,0,.52-.13c3.48-2.06,6.68-4.4,8.49-8.18a8.43,8.43,0,0,1,.86-1.41,9,9,0,0,0,1.46-3.26,25.14,25.14,0,0,0,.58-9.22,20.54,20.54,0,0,1,.37-5.65c.27-1.75,1.39-3.19,1.91-4.86a9.74,9.74,0,0,1,1.8-3.09,19.74,19.74,0,0,0,3.29-5.33,30.35,30.35,0,0,0,2-11.59,23.73,23.73,0,0,0-.53-4.46C163.92,114.83,163.87,113.35,163,112.1ZM70.91,55A17.47,17.47,0,0,0,71,59.64a64.9,64.9,0,0,0,3.64,13.41A26.19,26.19,0,0,0,83.46,84.9a52.69,52.69,0,0,1,6.74,5.93c2.26,2.5,4.44,5,5.56,8.27.07.18.14.37.52.23C96.2,98,96.14,96.6,96,95.22a21.26,21.26,0,0,0-5.42-12.88c-3-3.35-6.13-6.59-9.24-9.85A30.22,30.22,0,0,1,78,68.27a53.82,53.82,0,0,1-6.54-12.76C71.42,55.3,71.43,55,70.91,55ZM85.26,35.65a19.11,19.11,0,0,0-.2,5.39,28.81,28.81,0,0,0,2.35,9.4,34,34,0,0,0,4,7,47.94,47.94,0,0,1,7.71,16.3c.08.3.08.73.58.71.33-.12.28-.4.3-.63.18-1.59.4-3.18.52-4.77a28.11,28.11,0,0,0,0-7c-.41-2.25-1-4.49-1.43-6.73a6.5,6.5,0,0,0-1.51-3.06c-.8-.89-1.6-1.79-2.45-2.64C93.57,48,92,46.53,90.42,45a17.91,17.91,0,0,1-4.34-7.1C85.84,37.11,85.53,36.38,85.26,35.65ZM210.35,148.43a1.93,1.93,0,0,0,.91-1.08,66.3,66.3,0,0,0,4.27-9.73,22,22,0,0,0,1.35-8.8,27,27,0,0,1,.15-5.39,34.46,34.46,0,0,0,0-3.94c-.17.05-.29,0-.35.1a15.4,15.4,0,0,0-4.59,7.2,53.17,53.17,0,0,0-2.31,14A41.62,41.62,0,0,0,210.35,148.43ZM165,29.66c-3.44,2-8,6.37-9.7,9.5a13.59,13.59,0,0,0-2.17,7.5c.21,3.36,2,5.59,4.8,7.36C158.29,42.18,158.34,42,165,29.66ZM74.87,159.05c2-3.28,3.47-6.82,5.51-10.07,2.38-3.78,3.86-8.06,6.23-11.9a6.36,6.36,0,0,0-3.2,1.57A24.1,24.1,0,0,0,75.69,150a9.13,9.13,0,0,1-.72,2.12,4.26,4.26,0,0,0-.53,2.73C74.53,156.27,74.72,157.66,74.87,159.05ZM119.48,161a21.16,21.16,0,0,0-2.59-9.46,63.19,63.19,0,0,1-3.6-7.91c-.53-1.41-1-2.86-1.48-4.34a2,2,0,0,0-.21.47A20.76,20.76,0,0,0,113.88,154C115.39,156.56,117.59,158.62,119.48,161ZM96.41,112c7.58,2,12.42,6.66,14.55,14.41a12.35,12.35,0,0,0-4-11.84C103.81,111.81,100.25,111.38,96.41,112Zm78-8.8-.07-.06v.11Z"/><path class="cls-23" d="M137.85,251.08a2.72,2.72,0,0,1-1.53,1.95,28.46,28.46,0,0,1-5.58,2.49c-1.45.55-2.91,1-4.36,1.55a30.59,30.59,0,0,0-7.64,3.73c-2.4,1.66-5.22,2.44-7.81,3.72a37.74,37.74,0,0,1-4.25,1.78,22.56,22.56,0,0,0-8,5.15,10.87,10.87,0,0,0-2,2c-.26.4-.69.32-1.07.05-.31-.45-.14-1-.15-1.44a40.35,40.35,0,0,0-2-12.95,30.28,30.28,0,0,0-4.88-8c-1.9-2.45-3.88-4.84-5.83-7.24a4.5,4.5,0,0,1-1-1.67c.72-.44,1.26.07,1.8.36a38.15,38.15,0,0,1,5.78,4,78.5,78.5,0,0,1,6.27,5.14c-.71-3.67-2.47-7-3.09-10.62.46-.45.74-.12,1,.13a45.79,45.79,0,0,1,4.82,4.93c1,1.11,2,2.26,3.05,3.52a6.35,6.35,0,0,0-.63-2.86c-1-2.56-1.58-5.25-2.73-7.74a1.73,1.73,0,0,1-.09-1.44c1.83.7,5,3.92,8.72,8.84a10,10,0,0,0-.32-5c-.76-2.47-1.6-4.92-2.41-7.37-.1-.33-.29-.65.07-1.07a37.47,37.47,0,0,1,9,12.12c0-4.56-.8-9-1.28-13.49,3.2,2.5,4.9,6,6.94,9.42a29,29,0,0,0-.17-2.95c-.18-1.08-.2-2.18-.42-3.27s-.42-2-.6-3.07a7,7,0,0,1-.28-3.12c.78-.36,1.07.3,1.43.72a43.8,43.8,0,0,1,5.1,7.73c.23.43.3,1,.87,1.27-.31-3.6-.25-7.17-1.29-10.7.36,0,.55,0,.64,0a21.69,21.69,0,0,1,3.76,3.84c1.38,2,1.61,4,2.61,6.06.21.43,1.5,3,1.5,3a5.63,5.63,0,0,0,1.19,2.39c2.23,3.84,2.23,3.84,4.24,7.16C137.44,250.42,137.65,250.76,137.85,251.08Z"/><path class="cls-24" d="M40.82,249c.79.37,1.2-.3,1.65-.67a20.47,20.47,0,0,0,3.57-4,83.81,83.81,0,0,0,8.89-16.56,52.89,52.89,0,0,0,2.4-7.34,1,1,0,0,1,.44-.76c.5.35.45.89.49,1.41a22.1,22.1,0,0,1-.75,6.67,38.88,38.88,0,0,0-1,7.42,44.74,44.74,0,0,0,3.58-6.5,48.6,48.6,0,0,0,3-7.2,4.12,4.12,0,0,1,.68,3,53.08,53.08,0,0,1-.83,5.47c-.3,1.84-.62,3.67-.82,5.57.89-.73,1.12-1.86,1.64-2.8s1.11-2,1.62-3,1-2.07,1.49-3.09,1.08-2,1.65-3c1.09.85.91,1.93.77,2.93q-.41,2.9-1,5.76a11.66,11.66,0,0,1-.49,3c1.06-.41,2-1.88,4.32-6.68a67.92,67.92,0,0,0,3.52-7.17c.71.19.62.62.55.92a14.4,14.4,0,0,0-.2,3.28c0,2.45-.27,4.88-.47,7.32,0,.29-.17.6.14.83-.1-.08-.18-.08-.2,0s0,.12.07.17l.1-.22c.63-.17.68-.8,1-1.23a36.89,36.89,0,0,0,4.79-9.58c0-.16.16-.24.5-.26.48,3-.13,6.07.13,9.45,1.84-3.37,4.23-6.11,4.91-9.78,1.06.7,1.06.7,1,6.81.53-.16.76-.63,1-1,1-1.25,2-2.5,2.92-3.8.82-1.15,1.83-2.22,1.88-3.81,1.43,1,1.46,1.12,1.73,6.72a39.71,39.71,0,0,0,4.75-6.76c1.69,2.38,1.44,4.71,1.12,7.12l-4.81,1.87L74.5,238.14c-.34.13-.76.16-.94.58l.06-.05c-1.71.2-2.19.58-2.54,2.08a24,24,0,0,0-.25,5.22,22.12,22.12,0,0,1,.06,3.25,3.71,3.71,0,0,1-3.18,1.27c-7.34.14-14.67.37-22,.56-1.25,0-2.5,0-3.74,0a1.59,1.59,0,0,1-1.3-.36c-.39-.38-.08-.87-.39-1.18l-.05,0c.32.1.43,0,.34-.34l0,0c.32.1.43,0,.33-.34ZM56.4,235.55l-.07-.1s-.09.08-.08.09.07.07.1.11Z"/><path class="cls-25" d="M191,235.45c.9-1,1.82-2,2.68-3a4.08,4.08,0,0,1,1.72-1.34,40,40,0,0,1-.12,6.55c2-2,2.88-4.54,4.9-6.12.08-.07.28,0,.54.06.25,2.37.13,4.76.21,7.45,1.53-2.74,2.65-5.44,4.72-7.52.76.22.61.82.63,1.34.09,2.36-.16,4.7-.3,7,0,.29,0,.58,0,1.2,2.42-3.16,4.63-6.16,7.75-8.17.89.47.56,1,.3,1.47a29,29,0,0,0-2.8,7.52,41.79,41.79,0,0,0-.19,19.42,2,2,0,0,1,0,1,1.25,1.25,0,0,1-1.87.18c-2.36-1.85-5.24-2.35-8-3.22-1.14-.37-2.27-.75-3.41-1.08-1.55-.45-2.7-1.56-4.26-2.27,2.66-3.57,4.35-7.33,4.39-11.69a3.73,3.73,0,0,0-1.29-.72,60.07,60.07,0,0,1-12.41-8.25c-1.57-1.33-2.88-2.86-4.36-4.25-.91-.86-1.58-2-2.68-2.6a15.5,15.5,0,0,1,2.54-5.66c.78,0,.8.55.78,1.12a30,30,0,0,0,0,4.23c.75-1.21,1.13-2.66,2.78-2.67.63,1.71.16,3.5.48,5.39,1.06-1.4,1.66-3,3-4.32.62,2.39-.26,4.48,0,6.73,1.33-1.74,2.1-3.78,4.07-4.77a1.54,1.54,0,0,1,.29,1.65c-.36,1.63-.17,3.29-.38,4.93,0,.11.13.24.21.36-.19-.19-.21,0-.23.12Z"/><path class="cls-26" d="M205.08,219.19c.45-.12.46-.57.63-.89a37.59,37.59,0,0,1,5-7.26c.31-.35.53-.88,1.3-.83-.58,3.08-1.65,6.08-1.45,9.29,2.16-3.3,4.26-6.62,7.31-9.18,0,0,.17.07.4.17a59.9,59.9,0,0,0-2.64,9,34.7,34.7,0,0,1,6.14-7.21c-.78,2.81-1.41,5.61-2.15,8.41.73.06.84-.53,1.1-.9a59,59,0,0,1,4.89-6.25c.52-.56.54-.55,1.35-.51-.91,2.45-.9,5-1.26,7.62.53,0,.58-.34.76-.6a47.67,47.67,0,0,1,8.22-9.86c1.28-1.11,1.47-1.23,2.53-1.4.37.49,0,1-.1,1.39-.72,2.32-1.49,4.63-2.25,6.94a73.26,73.26,0,0,0-2.34,9.7,17.49,17.49,0,0,0-.1,3c0,2.95,0,5.9.22,8.85.13,1.93-.75,2.59-2.51,2a3.21,3.21,0,0,1-.06-1.48c.18-2.35-.33-4.67-.36-7a1.94,1.94,0,0,0-.52-1,15.38,15.38,0,0,0-2.83-2.87,7.43,7.43,0,0,1-2-2.13c-2.83,0-5.68-.08-8.52-.25a41.88,41.88,0,0,1-8.56-1.23,73.17,73.17,0,0,0-7.77-1.42,57.87,57.87,0,0,1-6.39-1.44c-.57-.16-1.21,0-1.8-.44a15.26,15.26,0,0,1,2.94-6.58c1,1.34.64,2.85,1.25,4.21a46.31,46.31,0,0,1,5.68-8.73c.44.25.42.45.36.81a43.58,43.58,0,0,0-.82,5.46.79.79,0,0,0,.09.57c-.34.12-.2.34-.07.66l.11-.62c1.17-1.41,1.86-3.12,3-4.57.36-.48.68-1,1.05-1.45a.67.67,0,0,1,1.07-.17,14.62,14.62,0,0,1-.46,2.57c-.31,1.82-.45,3.66-.58,5.5,0,.07.12.15.18.23-.39,0-.18.23-.14.54Z"/><path class="cls-27" d="M163.61,270.7c0-.28-.07-.51,0-.66,1.58-2.81,2.62-5.89,4.27-8.66,3.48-5.84,7.62-11.11,13.24-15.06a17.82,17.82,0,0,1,7.29-3.26,8.23,8.23,0,0,1,3.56.1,4.54,4.54,0,0,1,3.38,5.28,16.18,16.18,0,0,1-3.23,7,43.89,43.89,0,0,1-20,14.93,15.65,15.65,0,0,1-5.7,1.09A5.32,5.32,0,0,1,163.61,270.7Z"/><path class="cls-23" d="M73.56,238.72a9.62,9.62,0,0,1,4.06,1.8A15.64,15.64,0,0,1,82,244.58c.88,1.21,1.84,2.36,2.71,3.57,1.74,2.43,3.5,4.84,5.12,7.35a11.24,11.24,0,0,1,1.62,3.67,12.34,12.34,0,0,0,1.07,2.62,13.8,13.8,0,0,1,1.25,5.65c.08,2.25-.09,4.5.16,6.74a1.14,1.14,0,0,1-.41,1.05,1.41,1.41,0,0,1-1.56-.2c-2.26-1.46-4.75-2.51-7.07-3.88A4.77,4.77,0,0,1,83,269.09a25,25,0,0,0-2.25-4c-.57-.77-.59-1.79-1.17-2.57-1.37-1.83-2.24-4-3.53-5.85-.86-1.26-1.36-2.71-2.31-4s-1-3.11-1.29-4.71a15.92,15.92,0,0,1,.86-8.66,4.43,4.43,0,0,1,.36-.63Z"/><path class="cls-25" d="M159.85,255.63c1.61-1.64,3.21-3.29,5-4.79a4.68,4.68,0,0,1,2.58-1.34,41.56,41.56,0,0,0-3.06,8.57,46.26,46.26,0,0,1,6.44-6.46c.52-.45,1-1.15,2.12-.67a111.64,111.64,0,0,0-9.82,17.42l-.46.27a1.11,1.11,0,0,1-.81.12c-.49-.14-.77-.65-1.1-1.07-3-3.79-6.07-7.55-8.89-11.49-.15-.2-.27-.47-.47-.57-2.32-1.17-3.63-3.26-4.65-5.47a25.92,25.92,0,0,1-2.55-12,20.75,20.75,0,0,1,1.83-8.7,1.32,1.32,0,0,1,.53-.7c1.28.21,1.3.23,2.46,1.43a1.34,1.34,0,0,1-.66,1.4,13.2,13.2,0,0,0-2.09,2.33,2,2,0,0,0-.49,2c1.56-.75,2.61-2.47,4.77-2.41,0,2.39-1.54,4.39-1.71,6.75,1.08-.08,1.72-1,2.6-1.47a4.05,4.05,0,0,1,3-.56c-.61,2.65-1.91,5-2.56,7.79,1-.29,1.24-1.15,1.79-1.63s1.05-1.08,1.58-1.6,1.17-1.09,1.76-1.63c.83.29.73.85.54,1.45a31.84,31.84,0,0,0-1.22,5.08c-.12.87-.17,1.74-.28,2.93,2.08-2.29,3.75-4.53,6.32-5.82-.9,3.58-2,7.06-2.76,10.64-.09.21-.18.42.06.63Z"/><path class="cls-23" d="M222.12,227.83a11.25,11.25,0,0,1,5.48,5.22,4.16,4.16,0,0,0-.36,2.54c.16,3.69.29,7.39.24,11.09a14.9,14.9,0,0,1-1.29,4.88c-.95,2.57-2.23,5-3.08,7.62a3.25,3.25,0,0,1-1.34,1.71c-1.06.75-2.06,1.58-3.14,2.3a6.28,6.28,0,0,1-4.12,1.08c-1.11-.09-1.65-.61-1.61-1.73.13-4,.27-8.08.5-12.12a121.13,121.13,0,0,1,1.82-12.73,5.7,5.7,0,0,1,1.36-2.89c1.55-1.82,3-3.77,4.44-5.65C221.36,228.72,221.72,228.31,222.12,227.83Z"/><path class="cls-28" d="M40.27,249.51c-.8.46-1.52,1.44-2.6.41a1.07,1.07,0,0,1-.14-.38c0-2.54-.05-5.09-.09-7.63a11,11,0,0,1,1.21-4.9c.81-1.71,1.61-3.43,2.48-5.11a31.87,31.87,0,0,0,2.67-6.31,7.21,7.21,0,0,1,2.32-3.43,49.55,49.55,0,0,1,6-4.71A21.45,21.45,0,0,0,55,215.33c.27-.24.52-.48,1-.3a26.17,26.17,0,0,1-1.15,6.79,69.66,69.66,0,0,1-7,17.39,67.63,67.63,0,0,1-6.38,8.67c-.27.32-.75.53-.66,1.08l0-.05c-.29-.07-.39.05-.33.34l0,0c-.31-.08-.36.1-.34.34Z"/><path class="cls-29" d="M190.78,171.4c2.36-2.31,4.15-5.08,7-6.81a14.73,14.73,0,0,1-1.75,3.72,44.84,44.84,0,0,0-4.9,10.06A13.21,13.21,0,0,0,191,186a32.25,32.25,0,0,1,1.07,7.11,18.81,18.81,0,0,1-2.81,11.29c-1,1.55-1.89,3.17-2.86,4.74-.24.4-.37,1-1,.93-.33-.4-.13-.78,0-1.13.85-1.81,1.36-3.76,2.32-5.53a13.31,13.31,0,0,0,1-3.75,11.71,11.71,0,0,0-.37-7.34,41.08,41.08,0,0,0-3.8-6.94,15.72,15.72,0,0,1-3.09-6.9,10.83,10.83,0,0,1,1.31-7.17,25.72,25.72,0,0,1,6.6-7.25,1.85,1.85,0,0,1,1.38-.62c.21,1.13-.37,2.08-.67,3.07.48.35.73,0,1-.26.68-.73,1.36-1.47,2.08-2.16.33-.33.66-.78,1.46-.49C193.61,166.36,191.51,168.56,190.78,171.4Z"/><path class="cls-24" d="M236.87,240.84a1.87,1.87,0,0,1-1.82-1.91,78.57,78.57,0,0,1-.5-8.81,30.48,30.48,0,0,1,.63-5c.83-4,1.47-8.14,3-12a26,26,0,0,1,3.72-6.77,1.08,1.08,0,0,1,1.29-.47,1.54,1.54,0,0,1,1.21,1.19,18.25,18.25,0,0,1,.32,3.13c-.1,3.44-.13,6.88-.3,10.32a39.64,39.64,0,0,1-.64,4.72c-.33,1.91-.77,3.8-1.09,5.71a34.33,34.33,0,0,1-2.46,7,4.24,4.24,0,0,1-1.68,1.85C238,240.14,237.46,240.47,236.87,240.84Z"/><path class="cls-30" d="M174.78,43.26c-.32-1.73.76-3,1.32-4.53a17.21,17.21,0,0,0,.6-11A14.4,14.4,0,0,0,175.38,25a10.64,10.64,0,0,1-.11-10.48,3.16,3.16,0,0,0,.29-.68,6.12,6.12,0,0,1,2.28-3.49.87.87,0,0,1,.1.82,7.23,7.23,0,0,0,.89,5.47A15.52,15.52,0,0,0,181,19.76a38.56,38.56,0,0,1,3.86,5c3.4,5.5,2.41,11.43-2.6,15.53a19.79,19.79,0,0,1-3.55,2.23c-1.16.6-2.33,1.18-3.69.59,0,0-.15.1-.23.16Zm4.2-3.91a5.87,5.87,0,0,0,2.53-1.79c3.42-3.87,3.52-7.19,1.75-10.57a16.54,16.54,0,0,0-2.21-3.38,22.41,22.41,0,0,1-2.13-3.07,21,21,0,0,1-2.23-5.14,8.72,8.72,0,0,0-.49,5.12,16.31,16.31,0,0,0,2.07,4.62,10.18,10.18,0,0,1,1.4,4.07,23.22,23.22,0,0,1-.59,9c-.09.36-.38.73-.08,1.12-.09-.11-.15-.1-.19,0s.05,0,.07.05C179.08,39.51,178.81,39.46,179,39.35Z"/><path class="cls-31" d="M197.14,201.77c0-1.47-.39-2.91-.07-4.33.53-2.39-.08-4.68-.51-7a40,40,0,0,1-.45-11.35,8.28,8.28,0,0,1,2.14-4.43c.47.06.47.39.55.68.81,3.13,1.66,6.26,2.41,9.41a11.14,11.14,0,0,1-.07,6.37c-.76,2.17-1.11,4.43-1.78,6.62A9.49,9.49,0,0,1,197.14,201.77Z"/><path class="cls-32" d="M139.38,127.1a5.58,5.58,0,0,1-.1-3.25,7.9,7.9,0,0,1,.38-1.13c2.41-6.11,1.07-11.66-2.49-16.88a52.26,52.26,0,0,0-8.61-9.16,67.88,67.88,0,0,1-9-9.06,23.82,23.82,0,0,1-5-10.77,20.07,20.07,0,0,1-.25-5.53c.26-2.23.35-4.48.4-6.73a17.76,17.76,0,0,1,1.6-5.83c.67.25.42.72.44,1.07a34.49,34.49,0,0,0,.29,4.16c.64,3.41,2.62,6,4.82,8.49a16.36,16.36,0,0,0,3.4,2.92c1.81,1.16,3.44,2.57,5.28,3.68A26.75,26.75,0,0,1,134.41,82a16,16,0,0,0,1.66,1.29,42.64,42.64,0,0,1,10,9.65,14.91,14.91,0,0,1,2.65,13.2c-.39,1.44-.67,2.92-1.13,4.34A82.38,82.38,0,0,1,141.32,125,5,5,0,0,1,139.38,127.1ZM145,110.46a23.9,23.9,0,0,1,1.07-4.64c1.33-4.34.2-8.19-2.34-11.72-3.14-4.36-7.48-7.48-11.63-10.74-3.41-2.68-7.16-4.89-10.49-7.7a13.64,13.64,0,0,1-3.91-4.37c-.14-.29-.36-.64-.8-.37a.37.37,0,0,0,0,.42,28.58,28.58,0,0,0,2.9,4.84c3.53,4.82,8.16,8.65,11.86,13.3l.1.11a63.07,63.07,0,0,1,5.1,5.87c1.72,2.26,3.38,4.57,5,6.89a12.58,12.58,0,0,1,2.73,7.15C144.56,109.82,144.46,110.22,145,110.46Z"/></g></g></svg>